TexturaLibera-Light.sfdir
StartChar: exclam
Encoding: 33 33 1
Width: 300
Flags: W
VStem: 113 74<277.199 533.978> 123 54<206 391.025>
LayerCount: 2
Back
SplineSet
135 30 m 25
 165 0 l 1049
125 550 m 1
 125 550 139 520 140 500 c 24
 148 379 150 190 150 190 c 1
 150 190 153 379 160 500 c 24
 161 539 175 600 175 600 c 9
 125 550 l 1
EndSplineSet
Fore
SplineSet
98 534 m 1x80
 191 627 l 1
 202 616 l 1
 202 616 188 555 187 516 c 0x80
 180 395 177 206 177 206 c 1
 134 163 l 1
 123 174 l 1x40
 123 174 121 363 113 484 c 0
 112 504 98 534 98 534 c 1x80
108 14 m 1
 151 57 l 1
 192 16 l 1
 149 -27 l 1
 108 14 l 1
EndSplineSet
EndChar
StartChar: quotedbl
Encoding: 34 34 2
Width: 500
Flags: W
HStem: 406 213
LayerCount: 2
Back
SplineSet
327.5 582.5 m 25
 367.5 542.5 l 1
 367.5 502.5 l 25
 307.5 442.5 l 1049
127.5 582.5 m 25
 167.5 542.5 l 1
 167.5 502.5 l 25
 107.5 442.5 l 1049
EndSplineSet
Fore
SplineSet
91 563 m 1
 147 619 l 1
 204 562 l 1
 204 522 l 1
 88 406 l 1
 71 423 l 1
 131 483 l 1
 131 523 l 1
 91 563 l 1
291 563 m 1
 347 619 l 1
 404 562 l 1
 404 522 l 1
 288 406 l 1
 271 423 l 1
 331 483 l 1
 331 523 l 1
 291 563 l 1
EndSplineSet
EndChar
StartChar: numbersign
Encoding: 35 35 3
Width: 700
Flags: W
HStem: -177 21G<23 54 223 254> 173 54<66 183 247 383 447 634> 373 54<66 277 341 477 541 634>
LayerCount: 2
Back
SplineSet
250 -150 m 25
 650 700 l 1049
50 -150 m 25
 450 700 l 1049
50 200 m 25
 650 200 l 1049
50 400 m 25
 650 400 l 1049
EndSplineSet
Fore
SplineSet
23 384 m 1
 66 427 l 1
 302 427 l 1
 423 684 l 1
 466 727 l 1
 477 716 l 1
 341 427 l 1
 502 427 l 1
 623 684 l 1
 666 727 l 1
 677 716 l 1
 541 427 l 1
 666 427 l 1
 677 416 l 1
 634 373 l 1
 516 373 l 1
 447 227 l 1
 666 227 l 1
 677 216 l 1
 634 173 l 1
 422 173 l 1
 277 -134 l 1
 234 -177 l 1
 223 -166 l 1
 383 173 l 1
 222 173 l 1
 77 -134 l 1
 34 -177 l 1
 23 -166 l 1
 183 173 l 1
 34 173 l 1
 23 184 l 1
 66 227 l 1
 208 227 l 1
 277 373 l 1
 34 373 l 1
 23 384 l 1
247 227 m 1
 408 227 l 1
 477 373 l 1
 316 373 l 1
 247 227 l 1
EndSplineSet
EndChar
StartChar: dollar
Encoding: 36 36 4
Width: 600
Flags: W
HStem: -177 21G<273 304> 1 61<142.881 273> 23 54<93.9006 270.745> 523 54<329.255 506.405> 538 61<327 457.119>
VStem: 73 54<365 484> 273 54<-134 -11 62 265 335 538 611 684> 473 54<116 235>
CounterMasks: 1 07
LayerCount: 2
Back
SplineSet
300 700 m 25
 300 -150 l 1049
550 600 m 17
 550 600 510 550 475 550 c 24
 366 550 200 600 200 600 c 9
 100 500 l 1
 100 340 l 1
 500 260 l 1
 500 100 l 1
 400 0 l 17
 400 0 234 50 125 50 c 24
 90 50 50 0 50 0 c 1025
EndSplineSet
Fore
SplineSet
566 627 m 1x97
 577 616 l 1
 577 616 571 609 563 601 c 2
 521 558 l 2
 520 557 l 0
 505 542 481 523 459 523 c 0x97
 419 523 371 529 327 538 c 1
 327 325 l 1
 516 287 l 1
 527 276 l 1
 527 116 l 1
 384 -27 l 1
 384 -27 362 -20 327 -11 c 1
 327 -134 l 1
 284 -177 l 1
 273 -166 l 1
 273 1 l 1xcf
 221 12 159 23 109 23 c 0
 93 23 77 13 63 2 c 2
 34 -27 l 1
 23 -16 l 1
 23 -16 29 -9 37 -1 c 2
 79 42 l 2
 94 57 119 77 141 77 c 0xa7
 181 77 229 71 273 62 c 1
 273 275 l 1
 84 313 l 1
 73 324 l 1
 73 484 l 1
 216 627 l 1
 216 627 238 620 273 611 c 1
 273 684 l 1
 316 727 l 1
 327 716 l 1
 327 599 l 1xcf
 379 588 441 577 491 577 c 0
 507 577 522 586 537 598 c 2
 566 627 l 1x97
273 550 m 1
 222 562 184 573 184 573 c 2
 184 573 133 522 127 516 c 1
 127 365 l 1
 273 335 l 1
 273 550 l 1
327 50 m 1
 378 38 416 27 416 27 c 1
 473 84 l 1
 473 235 l 1
 327 265 l 1
 327 50 l 1
EndSplineSet
EndChar
StartChar: ampersand
Encoding: 38 38 6
Width: 500
Flags: W
HStem: 323 54<216 273 327 384>
VStem: 73 54<71 234 421 484> 273 54<84 323 377 529>
LayerCount: 2
Back
SplineSet
200 350 m 25
 400 350 l 1049
450 100 m 1
 350 0 l 1
 300 50 l 1
 300 550 l 9
 200 600 l 1
 100 500 l 17
 100 400 l 1
 200 350 l 1
 100 250 l 25
 99 50 l 25
 200 0 l 25
 300 100 l 1041
EndSplineSet
Fore
SplineSet
273 62 m 1
 184 -27 l 1
 83 23 l 1
 72 34 l 1
 73 234 l 1
 169 331 l 1
 84 373 l 1
 73 384 l 1
 73 484 l 1
 216 627 l 1
 316 577 l 1
 327 566 l 1
 327 377 l 1
 416 377 l 1
 427 366 l 1
 384 323 l 1
 327 323 l 1
 327 66 l 1
 366 27 l 1
 466 127 l 1
 477 116 l 1
 334 -27 l 1
 273 34 l 1
 273 62 l 1
273 323 m 1
 184 323 l 1
 127 266 l 1
 126 71 l 1
 216 27 l 2
 216 27 267 78 273 84 c 1
 273 323 l 1
273 377 m 1
 273 529 l 1
 184 573 l 2
 184 573 133 522 127 516 c 1
 127 421 l 1
 216 377 l 1
 273 377 l 1
EndSplineSet
EndChar
StartChar: quotesingle
Encoding: 39 39 7
Width: 300
Flags: W
HStem: 433 159
VStem: 88 99
LayerCount: 2
Back
SplineSet
130 565 m 25
 160 535 l 1
 160 505 l 25
 115 460 l 1049
EndSplineSet
Fore
SplineSet
103 549 m 1
 146 592 l 1
 187 551 l 1
 187 521 l 1
 99 433 l 1
 88 444 l 1
 133 489 l 1
 133 519 l 1
 103 549 l 1
EndSplineSet
EndChar
StartChar: parenleft
Encoding: 40 40 8
Width: 250
Flags: W
HStem: -187 21G<172 200>
VStem: 13 74<113.048 433.883>
LayerCount: 2
Back
SplineSet
200 700 m 17
 200 700 50 575 50 275 c 0
 50 -25 200 -150 200 -150 c 1033
EndSplineSet
Fore
SplineSet
237 720 m 1
 219 702 l 2
 179 658 87 531 87 295 c 0
 87 58 180 -70 219 -113 c 0
 220 -113 l 1
 237 -130 l 1
 180 -187 l 1
 180 -187 177 -184 172 -179 c 2
 155 -162 l 2
 124 -131 13 -2 13 255 c 0
 13 512 124 641 155 672 c 2
 211 729 l 2
 216 734 220 737 220 737 c 1
 237 720 l 1
EndSplineSet
EndChar
StartChar: parenright
Encoding: 41 41 9
Width: 250
Flags: W
HStem: -177 21G<23 43>
VStem: 173 54<107.266 443.709>
LayerCount: 2
Back
SplineSet
50 700 m 17
 50 700 200 575 200 275 c 0
 200 -25 50 -150 50 -150 c 1033
EndSplineSet
Fore
SplineSet
23 684 m 1
 66 727 l 1
 66 727 69 724 74 719 c 2
 85 708 l 2
 117 676 227 548 227 291 c 0
 227 34 117 -95 85 -127 c 2
 43 -169 l 2
 38 -174 34 -177 34 -177 c 2
 23 -166 l 1
 41 -148 l 2
 80 -104 173 23 173 259 c 0
 173 502 75 631 37 671 c 0
 35 673 34 673 34 673 c 1
 23 684 l 1
EndSplineSet
EndChar
StartChar: asterisk
Encoding: 42 42 10
Width: 500
Flags: W
HStem: 517 20G<100 159.574 380.299 437>
VStem: 213 74<270 360 490 580>
LayerCount: 2
Back
SplineSet
100 350 m 25
 400 500 l 1049
250 600 m 25
 250 250 l 1049
100 500 m 25
 400 350 l 1049
EndSplineSet
Fore
SplineSet
63 480 m 1
 120 537 l 1
 213 490 l 1
 213 580 l 1
 270 637 l 1
 287 620 l 1
 287 470 l 1
 420 537 l 1
 437 520 l 1
 380 463 l 1
 324 435 l 1
 420 387 l 1
 437 370 l 1
 380 313 l 1
 287 360 l 1
 287 270 l 1
 230 213 l 1
 213 230 l 1
 213 380 l 1
 80 313 l 1
 63 330 l 1
 120 387 l 1
 176 415 l 1
 80 463 l 1
 63 480 l 1
EndSplineSet
EndChar
StartChar: plus
Encoding: 43 43 11
Width: 600
Flags: W
HStem: 273 54<116 273 327 484> 507 20G<296 327>
VStem: 273 54<116 273 327 484>
LayerCount: 2
Back
SplineSet
300 500 m 25
 300 100 l 1049
100 300 m 25
 500 300 l 1049
EndSplineSet
Fore
SplineSet
73 284 m 1
 116 327 l 1
 273 327 l 1
 273 484 l 1
 316 527 l 1
 327 516 l 1
 327 327 l 1
 516 327 l 1
 527 316 l 1
 484 273 l 1
 327 273 l 1
 327 116 l 1
 284 73 l 1
 273 84 l 1
 273 273 l 1
 84 273 l 1
 73 284 l 1
EndSplineSet
EndChar
StartChar: hyphen
Encoding: 45 45 13
Width: 300
Flags: W
HStem: 163 99
VStem: 63 174
LayerCount: 2
Back
SplineSet
100 200 m 25
 200 225 l 1049
EndSplineSet
Fore
SplineSet
63 180 m 1
 120 237 l 1
 220 262 l 1
 237 245 l 1
 180 188 l 1
 80 163 l 1
 63 180 l 1
EndSplineSet
EndChar
StartChar: period
Encoding: 46 46 14
Width: 300
Flags: W
HStem: -37 114
VStem: 93 114
LayerCount: 2
Back
SplineSet
130 40 m 25
 170 0 l 1049
EndSplineSet
Fore
SplineSet
93 20 m 1
 150 77 l 1
 207 20 l 1
 150 -37 l 1
 93 20 l 1
EndSplineSet
EndChar
StartChar: slash
Encoding: 47 47 15
Width: 500
Flags: W
HStem: -187 21G<13 50>
LayerCount: 2
Back
SplineSet
50 -150 m 25
 450 700 l 1049
EndSplineSet
Fore
SplineSet
30 -187 m 1
 13 -170 l 1
 413 680 l 1
 470 737 l 1
 487 720 l 1
 87 -130 l 1
 30 -187 l 1
EndSplineSet
EndChar
StartChar: zero
Encoding: 48 48 16
Width: 400
Flags: W
HStem: 417 20G<200 260> 417 20G<200 260>
VStem: 63 74<78 280> 263 74<120 322>
LayerCount: 2
Back
SplineSet
200 400 m 1
 100 300 l 1
 100 50 l 25
 200 0 l 1
 300 100 l 1
 300 350 l 25
 200 400 l 1
EndSplineSet
Fore
SplineSet
180 363 m 1x30
 137 320 l 1
 137 78 l 1
 220 37 l 2
 220 37 259 76 263 80 c 1
 263 322 l 1
 180 363 l 1x30
63 280 m 1
 220 437 l 1xb0
 320 387 l 1
 337 370 l 1
 337 120 l 1
 180 -37 l 1
 80 13 l 1
 63 30 l 1
 63 280 l 1
EndSplineSet
Substitution2: "Subscript forms-1" zero.inferior
Substitution2: "Superscript forms-1" zero.superior
EndChar
StartChar: one
Encoding: 49 49 17
Width: 400
Flags: W
HStem: 407 20G<171 211> 407 20G<171 211>
VStem: 173 54<61 341>
LayerCount: 2
Back
SplineSet
125 50 m 25
 225 0 l 1
 275 50 l 1049
225 350 m 25
 175 400 l 25
 125 350 l 1049
200 375 m 9
 200 25 l 1025
EndSplineSet
Fore
SplineSet
98 34 m 1xa0
 141 77 l 1
 173 61 l 1
 173 359 l 1
 159 373 l 1
 109 323 l 1
 98 334 l 1
 191 427 l 1
 216 402 l 1
 227 391 l 1
 252 366 l 1
 227 341 l 1
 227 41 l 1
 222 36 l 1
 241 27 l 2
 241 27 247 33 248 34 c 2
 291 77 l 1
 302 66 l 1
 209 -27 l 1
 109 23 l 1
 98 34 l 1xa0
EndSplineSet
Substitution2: "Subscript forms-1" one.inferior
Substitution2: "Superscript forms-1" one.superior
EndChar
StartChar: two
Encoding: 50 50 18
Width: 400
Flags: W
HStem: 13 74<170.174 277.581> 417 20G<150 260> 417 20G<150 260>
VStem: 263 74<295 322>
LayerCount: 2
Back
SplineSet
100 350 m 1
 150 400 l 1
 200 400 l 1
 300 350 l 1
 300 275 l 1
 100 75 l 25
 100 0 l 1
 100 0 163 50 250 50 c 3
 285 50 325 0 326 0 c 1025
EndSplineSet
Fore
SplineSet
80 313 m 1xd0
 63 330 l 1
 170 437 l 1
 220 437 l 1
 320 387 l 1
 337 370 l 1
 337 295 l 1
 137 95 l 1
 137 48 l 1
 162 63 210 87 270 87 c 0
 293 87 318 65 333 50 c 2
 350 33 l 0
 355 28 359 24 361 22 c 2
 363 20 l 1
 306 -37 l 2
 306 -36 l 0
 289 -19 l 2
 288 -18 287 -17 285 -15 c 0
 270 -2 249 13 230 13 c 0
 143 13 80 -37 80 -37 c 1
 63 -20 l 1
 63 55 l 1
 263 255 l 1
 263 322 l 1
 180 363 l 1
 130 363 l 1
 80 313 l 1xd0
EndSplineSet
Substitution2: "Subscript forms-1" two.inferior
Substitution2: "Superscript forms-1" two.superior
EndChar
StartChar: three
Encoding: 51 51 19
Width: 400
Flags: W
HStem: -187 74<123.401 190.586> 417 20G<150 250> 417 20G<150 250>
VStem: 238 74<270 325> 263 74<-130 113.448>
LayerCount: 2
Back
SplineSet
100 350 m 1
 150 400 l 1
 200 400 l 1
 275 350 l 1
 275 250 l 1
 175 150 l 1049
75 -200 m 25
 75 -200 115 -150 150 -150 c 27
 194 -150 250 -200 250 -200 c 25
 300 -150 l 1
 300 100 l 9
 225 175 l 1049
EndSplineSet
Fore
SplineSet
55 -237 m 1xc8
 38 -220 l 1
 38 -220 44 -213 52 -205 c 2
 109 -148 l 2
 124 -133 148 -113 170 -113 c 0
 205 -113 248 -146 263 -158 c 1
 263 80 l 2xc8
 263 111 222 121 205 138 c 2
 193 151 l 1
 155 113 l 1
 138 130 l 1
 238 230 l 1
 238 325 l 1
 180 363 l 1
 130 363 l 1
 80 313 l 1
 63 330 l 1
 170 437 l 1
 220 437 l 1
 295 387 l 1
 312 370 l 1
 312 270 l 1xd0
 249 207 l 1
 337 120 l 1
 337 -130 l 1
 230 -237 l 1
 230 -237 174 -187 130 -187 c 0
 114 -187 98 -196 84 -208 c 2
 55 -237 l 1xc8
EndSplineSet
Substitution2: "Subscript forms-1" three.inferior
Substitution2: "Superscript forms-1" three.superior
EndChar
StartChar: four
Encoding: 52 52 20
Width: 400
Flags: W
HStem: -187 21G<255 295> -37 74<314.183 380> -12 74<137.664 238> 338 74<210.141 262.5> 417 20G<200 228 276 312> 417 20G<200 228 276 312>
VStem: 63 74<49 180> 238 74<-110 -21 62 346>
LayerCount: 2
Back
SplineSet
255 -110 m 25
 295 -150 l 1049
275 -130 m 1
 275 400 l 1
 275 400 257 375 240 375 c 27
 222 375 200 400 200 400 c 1
 100 200 l 1
 100 0 l 1
 100 0 114 25 200 25 c 3
 336 25 399 0 400 0 c 1025
EndSplineSet
Fore
SplineSet
137 49 m 1xb3
 151 55 176 62 220 62 c 0
 226 62 232 62 238 62 c 1
 238 346 l 1
 232 342 226 338 220 338 c 0
 213 338 206 342 200 346 c 1
 137 220 l 1
 137 49 l 1xb3
312 58 m 2
 314 58 316 57 318 57 c 0
 387 50 419 37 420 37 c 2
 437 20 l 1
 380 -37 l 2xdb
 379 -37 359 -28 312 -21 c 1
 312 -110 l 1
 332 -130 l 1
 275 -187 l 1
 255 -167 l 1
 238 -150 l 1
 218 -130 l 1
 238 -110 l 1
 238 -13 l 1
 220 -12 201 -12 180 -12 c 0xb3
 120 -12 96 -24 86 -31 c 2
 80 -37 l 1
 63 -20 l 1
 63 180 l 1
 163 380 l 1
 220 437 l 1
 228 429 l 2
 236 422 249 412 260 412 c 0
 265 412 271 414 276 418 c 2
 295 437 l 1xdb
 312 420 l 1
 312 58 l 2
EndSplineSet
Substitution2: "Subscript forms-1" four.inferior
Substitution2: "Superscript forms-1" four.superior
EndChar
StartChar: five
Encoding: 53 53 21
Width: 400
Flags: W
HStem: -177 54<93.9006 156.644> 323 54<169.25 252.425> 407 20G<96 166 307 327> 407 20G<96 166 307 327>
VStem: 73 54<158 350> 273 54<-84 59>
LayerCount: 2
Back
SplineSet
300 400 m 17
 300 400 253 350 225 350 c 0
 181 350 100 400 100 400 c 1
 100 125 l 1
 200 175 l 1
 300 75 l 1
 300 -100 l 17
 200 -200 l 1
 200 -200 160 -150 125 -150 c 24
 90 -150 50 -200 50 -200 c 1025
EndSplineSet
Fore
SplineSet
316 427 m 1xec
 327 416 l 1
 327 416 326 414 323 411 c 2
 280 369 l 2
 268 357 232 323 209 323 c 0
 186 323 153 337 127 350 c 1
 127 158 l 1
 216 202 l 1
 327 91 l 1
 327 -84 l 1
 184 -227 l 1
 173 -216 l 1
 173 -216 170 -211 165 -206 c 0
 150 -192 129 -177 109 -177 c 0
 93 -177 77 -187 63 -198 c 2
 34 -227 l 1
 23 -216 l 1
 23 -216 29 -209 37 -201 c 2
 79 -158 l 2
 94 -143 119 -123 141 -123 c 0
 163 -123 186 -143 201 -158 c 0
 202 -158 l 2
 213 -169 l 2
 214 -170 215 -171 216 -172 c 2
 273 -116 l 1
 273 59 l 1
 184 148 l 1
 84 98 l 1
 73 109 l 1
 73 384 l 1
 116 427 l 1
 116 427 197 377 241 377 c 0
 262 377 292 403 307 418 c 2
 316 427 l 1xec
EndSplineSet
Substitution2: "Subscript forms-1" five.inferior
Substitution2: "Superscript forms-1" five.superior
EndChar
StartChar: six
Encoding: 54 54 22
Width: 400
Flags: W
HStem: 407 20G<196 236> 407 20G<196 236> 573 29<266.971 285>
VStem: 73 54<116 316 338 509> 273 54<116 284>
LayerCount: 2
Back
SplineSet
100 300 m 25
 200 400 l 25
 300 300 l 25
 300 100 l 25
 200 0 l 25
 100 100 l 1
 100 525 l 1
 175 600 l 25
 175 600 213 575 250 575 c 3
 278 575 300 600 301 600 c 1049
EndSplineSet
Fore
SplineSet
127 316 m 1x38
 127 116 l 1
 216 27 l 1
 273 84 l 1
 273 284 l 1
 184 373 l 1
 127 316 l 1x38
127 338 m 1
 216 427 l 1xb8
 327 316 l 1
 327 116 l 1
 184 -27 l 1
 73 84 l 1
 73 509 l 1
 191 627 l 1
 191 627 229 602 266 602 c 0
 294 602 316 627 317 627 c 2
 328 616 l 1
 285 573 l 2
 284 573 262 548 234 548 c 0
 197 548 159 573 159 573 c 1
 127 541 l 1
 127 338 l 1
EndSplineSet
Substitution2: "Subscript forms-1" six.inferior
Substitution2: "Superscript forms-1" six.superior
EndChar
StartChar: seven
Encoding: 55 55 23
Width: 400
Flags: W
HStem: 113 74<126.766 174.765> 113 49<252.234 306> 313 74<144.588 265.968> 417 20G<75 155 320 387> 417 20G<75 155 320 387>
VStem: 163 74<-105 87.968>
LayerCount: 2
Back
SplineSet
180 -105 m 25
 220 -145 l 1049
75 400 m 1
 75 400 137 350 225 350 c 3
 279 350 350 400 350 400 c 1
 350 400 200 276 200 0 c 3
 200 -32 200 -125 200.799804688 -125 c 1025
100 125 m 25
 100 125 147 150 175 150 c 24
 219 150 206 125 250 125 c 24
 278 125 325 150 326 150 c 1049
EndSplineSet
Fore
SplineSet
63 105 m 1xa4
 120 162 l 1x64
 120 162 167 187 195 187 c 0xa4
 216 250 244 297 267 329 c 1
 247 320 225 313 205 313 c 0
 117 313 55 363 55 363 c 1
 38 380 l 1
 95 437 l 1
 95 437 157 387 245 387 c 0
 299 387 370 437 370 437 c 1
 387 420 l 1
 365 398 l 2
 334 363 279 287 252 164 c 1
 257 163 262 162 270 162 c 0x74
 298 162 345 187 346 187 c 2xa4
 363 170 l 1
 306 113 l 2x64
 305 113 268 93 240 89 c 1
 238 67 237 44 237 20 c 0
 237 -12 237 -104 238 -105 c 2
 237 -106 l 1
 257 -125 l 1
 200 -182 l 1
 143 -125 l 1
 163 -105 l 1
 163 -76 163 -38 163 -20 c 0
 163 28 167 72 175 111 c 1
 170 113 164 113 155 113 c 0
 127 113 80 88 80 88 c 1
 63 105 l 1xa4
181 -162 m 1
 181 -162 l 1
EndSplineSet
Substitution2: "Subscript forms-1" seven.inferior
Substitution2: "Superscript forms-1" seven.superior
EndChar
StartChar: eight
Encoding: 56 56 24
Width: 400
Flags: W
VStem: 73 54<84 209 396 484> 273 54<116 254 441 516>
LayerCount: 2
Back
SplineSet
200 600 m 25
 100 500 l 25
 100 375 l 25
 200 325 l 25
 300 425 l 25
 300 500 l 25
 200 600 l 25
200 325 m 25
 100 225 l 25
 100 100 l 25
 200 0 l 25
 300 100 l 25
 300 275 l 25
 200 325 l 25
EndSplineSet
Fore
SplineSet
184 573 m 1
 127 516 l 1
 127 396 l 1
 216 352 l 2
 216 352 267 403 273 409 c 1
 273 484 l 2
 273 534 210 547 184 573 c 1
73 484 m 1
 216 627 l 1
 327 516 l 1
 327 441 l 1
 231 344 l 1
 316 302 l 1
 327 291 l 1
 327 116 l 1
 184 -27 l 1
 73 84 l 1
 73 209 l 1
 169 306 l 1
 84 348 l 1
 73 359 l 1
 73 484 l 1
184 298 m 1
 127 241 l 1
 127 116 l 2
 127 66 190 53 216 27 c 1
 273 84 l 1
 273 254 l 1
 184 298 l 1
EndSplineSet
Substitution2: "Subscript forms-1" eight.inferior
Substitution2: "Superscript forms-1" eight.superior
EndChar
StartChar: nine
Encoding: 57 57 25
Width: 400
Flags: W
HStem: -177 54<118.901 194.303> 407 20G<196 236> 407 20G<196 236>
VStem: 73 54<116 284> 273 54<-134 62 84 284>
LayerCount: 2
Back
SplineSet
300 100 m 1
 200 0 l 1
 100 100 l 25
 100 300 l 25
 200 400 l 25
 300 300 l 1
 300 -150 l 9
 250 -200 l 25
 250 -200 194 -150 150 -150 c 27
 115 -150 75 -200 75 -200 c 1025
EndSplineSet
Fore
SplineSet
273 84 m 1x98
 273 284 l 1
 184 373 l 1
 127 316 l 1
 127 116 l 1
 216 27 l 1
 273 84 l 1x98
273 62 m 1
 184 -27 l 1
 73 84 l 1
 73 284 l 1
 216 427 l 1xd8
 327 316 l 1
 327 -134 l 1
 234 -227 l 1
 234 -227 178 -177 134 -177 c 0
 118 -177 102 -187 88 -198 c 2
 59 -227 l 1
 48 -216 l 1
 48 -216 54 -209 62 -201 c 2
 104 -158 l 2
 119 -143 144 -123 166 -123 c 0
 210 -123 266 -173 266 -173 c 1
 273 -166 l 1
 273 62 l 1
EndSplineSet
Substitution2: "Subscript forms-1" nine.inferior
Substitution2: "Superscript forms-1" nine.superior
EndChar
StartChar: colon
Encoding: 58 58 26
Width: 300
Flags: W
VStem: 108 84
LayerCount: 2
Back
SplineSet
135 340 m 25
 165 310 l 1049
135 30 m 25
 165 0 l 1049
EndSplineSet
Fore
SplineSet
108 14 m 1
 151 57 l 1
 192 16 l 1
 149 -27 l 1
 108 14 l 1
108 324 m 1
 151 367 l 1
 192 326 l 1
 149 283 l 1
 108 324 l 1
EndSplineSet
EndChar
StartChar: semicolon
Encoding: 59 59 27
Width: 300
Flags: W
VStem: 71 136
LayerCount: 2
Back
SplineSet
127.5 40 m 25
 167.5 0 l 1
 167.5 -40 l 25
 107.5 -100 l 1049
130 345 m 25
 170 305 l 1049
EndSplineSet
Fore
SplineSet
93 325 m 1
 150 382 l 1
 207 325 l 1
 150 268 l 1
 93 325 l 1
91 20 m 1
 147 77 l 1
 204 20 l 1
 204 -20 l 1
 88 -137 l 1
 71 -120 l 1
 131 -60 l 1
 131 -20 l 1
 91 20 l 1
EndSplineSet
EndChar
StartChar: less
Encoding: 60 60 28
Width: 600
Flags: W
HStem: 507 20G<476 527>
LayerCount: 2
Back
SplineSet
500 500 m 25
 100 300 l 25
 500 100 l 1049
EndSplineSet
Fore
SplineSet
527 516 m 1
 484 473 l 1
 154 308 l 1
 516 127 l 1
 527 116 l 1
 484 73 l 1
 84 273 l 1
 73 284 l 1
 116 327 l 1
 516 527 l 1
 527 516 l 1
EndSplineSet
EndChar
StartChar: equal
Encoding: 61 61 29
Width: 600
Flags: W
HStem: 163 74<120 480> 363 74<120 480>
LayerCount: 2
Back
SplineSet
100 200 m 25
 500 200 l 1049
100 400 m 25
 500 400 l 1049
EndSplineSet
Fore
SplineSet
63 380 m 1
 120 437 l 1
 520 437 l 1
 537 420 l 1
 480 363 l 1
 80 363 l 1
 63 380 l 1
63 180 m 1
 120 237 l 1
 520 237 l 1
 537 220 l 1
 480 163 l 1
 80 163 l 1
 63 180 l 1
EndSplineSet
EndChar
StartChar: greater
Encoding: 62 62 30
Width: 600
Flags: W
HStem: 507 20G<96 156>
LayerCount: 2
Back
SplineSet
100 500 m 25
 500 300 l 25
 100 100 l 1049
EndSplineSet
Fore
SplineSet
73 484 m 1
 116 527 l 1
 516 327 l 1
 527 316 l 1
 484 273 l 1
 84 73 l 1
 73 84 l 1
 116 127 l 1
 446 292 l 1
 84 473 l 1
 73 484 l 1
EndSplineSet
EndChar
StartChar: question
Encoding: 63 63 31
Width: 400
Flags: W
VStem: 63 74<470 505> 163 74<215 330> 263 74<420 520>
CounterMasks: 1 e0
LayerCount: 2
Back
SplineSet
100 450 m 25
 100 525 l 25
 175 600 l 25
 300 550 l 25
 300 400 l 25
 200 350 l 25
 200 195 l 1049
180 40 m 25
 220 0 l 1049
EndSplineSet
Fore
SplineSet
143 20 m 1
 200 77 l 1
 257 20 l 1
 200 -37 l 1
 143 20 l 1
80 413 m 1
 63 430 l 1
 63 505 l 1
 195 637 l 1
 320 587 l 1
 337 570 l 1
 337 420 l 1
 280 363 l 1
 237 342 l 1
 237 215 l 1
 180 158 l 1
 163 175 l 1
 163 330 l 1
 220 387 l 1
 263 408 l 1
 263 520 l 1
 155 563 l 1
 137 545 l 1
 137 470 l 1
 80 413 l 1
EndSplineSet
EndChar
StartChar: at
Encoding: 64 64 32
Width: 800
Flags: W
HStem: -187 74<316.169 498.919> 442 20G<400 437 500 537> 563 74<352.878 526.698>
VStem: 63 74<107.179 333.466> 263 74<86.5521 305> 463 74<70 96 130 366> 663 74<254.575 415.675>
LayerCount: 2
Back
SplineSet
650 -50 m 1
 650 -50 550 -150 400 -150 c 11
 213 -150 100 38 100 225 c 27
 100 425 250 600 450 600 c 27
 595 600 700 470 700 325 c 27
 700 216 575 75 575 75 c 26
 525 25 l 1
 500 50 l 1
 500 425 l 1
 500 425 478 385 450 385 c 0
 422 385 400 425 400 425 c 9
 300 325 l 1
 300 100 l 17
 375 25 l 1
 500 150 l 1049
EndSplineSet
Fore
SplineSet
463 366 m 2
 462 365 463 366 462 365 c 0
 462 364 l 0
 453 355 442 348 430 348 c 0
 418 348 407 356 398 365 c 2
 381 382 l 2
 380 383 378 384 377 385 c 2
 337 345 l 1
 337 120 l 2
 337 89 378 79 395 62 c 1
 463 130 l 1
 463 366 l 2
463 96 m 1
 355 -12 l 1
 263 80 l 1
 263 305 l 1
 420 462 l 1
 437 445 l 2
 437 445 440 439 446 431 c 0
 452 426 462 422 470 422 c 0
 474 422 478 422 482 424 c 2
 520 462 l 1
 537 445 l 1
 537 70 l 1
 544 62 l 1
 569 92 663 210 663 305 c 0
 663 379 635 450 589 501 c 1
 547 539 492 563 430 563 c 0
 351 563 280 536 222 490 c 1
 169 423 137 337 137 245 c 0
 137 138 174 31 241 -42 c 1
 288 -86 349 -113 420 -113 c 0
 570 -113 670 -13 670 -13 c 1
 687 -30 l 1
 630 -87 l 1
 630 -87 530 -187 380 -187 c 0
 305 -187 242 -156 193 -107 c 2
 176 -90 l 2
 175 -90 l 0
 103 -18 63 94 63 205 c 0
 63 311 105 410 175 480 c 2
 232 537 l 2
 294 598 376 637 470 637 c 0
 536 637 594 609 637 566 c 2
 654 549 l 2
 655 549 l 0
 706 498 737 423 737 345 c 0
 737 236 612 95 612 95 c 1
 505 -12 l 1
 463 30 l 1
 463 96 l 1
EndSplineSet
EndChar
StartChar: A
Encoding: 65 65 33
Width: 700
Flags: W
HStem: 13 74<98.9946 179.793> 313 39<232 258.079> 538 21G<188 223 403 440> 563 74<245.492 296.758>
VStem: 313 74<385.713 551.593>
AnchorPoint: "blwmark" 400 0 basechar 0
AnchorPoint: "abvmark" 450 700 basechar 0
LayerCount: 2
Back
SplineSet
520 560 m 25
 480 600 l 25
 440 560 l 1049
200 300 m 1
 200 300 230 350 300 350 c 3
 427 350 500 250 501 250 c 1025
225 575 m 1
 225 575 235 600 275 600 c 11
 324 600 350 549 350 500 c 3
 350 263 176 75 176 75 c 1025
50 0 m 17
 50 0 81 50 150 50 c 3
 248 50 275 0 275 0 c 1025
500 580 m 1
 550 50 l 1
 600 0 l 9
 650 50 l 1049
EndSplineSet
Fore
SplineSet
30 -37 m 1
 13 -20 l 1
 13 -20 17 -13 25 -5 c 2
 82 51 l 2
 96 65 123 86 165 87 c 1
 197 129 253 210 286 313 c 1
 284 313 282 313 280 313 c 0
 248 313 226 303 209 292 c 2
 180 263 l 1
 163 280 l 1
 163 280 168 287 176 295 c 2
 232 352 l 2
 233 352 l 0
 246 365 269 382 304 386 c 1
 310 416 313 448 313 480 c 0
 313 506 306 532 292 552 c 0
 282 559 269 563 255 563 c 0
 241 563 231 560 223 556 c 2
 205 538 l 1
 188 555 l 1
 188 555 190 560 195 565 c 2
 252 622 l 2
 259 629 272 637 295 637 c 0
 314 637 329 630 341 618 c 2
 357 601 l 2
 358 600 l 0
 377 581 387 550 387 520 c 0
 387 472 380 425 368 382 c 1
 420 371 460 344 486 322 c 1
 463 560 l 1
 460 563 l 1
 420 523 l 1
 403 540 l 1
 500 637 l 1
 520 617 l 1
 528 608 l 1
 557 580 l 1
 540 563 l 1
 587 70 l 2
 589 54 610 47 620 37 c 1
 670 87 l 1
 687 70 l 1
 580 -37 l 1
 513 30 l 1
 495 227 l 1
 481 213 l 2
 464 230 l 2
 463 231 460 236 454 242 c 0
 431 263 393 291 342 305 c 1
 290 179 213 95 213 95 c 2
 203 85 l 1
 248 79 273 61 285 49 c 2
 302 32 l 2
 309 25 312 20 312 20 c 1
 255 -37 l 1
 238 -20 l 1
 238 -20 237 -18 236 -16 c 0
 218 -2 185 13 130 13 c 0
 98 13 74 3 58 -9 c 2
 30 -37 l 1
EndSplineSet
EndChar
StartChar: B
Encoding: 66 66 34
Width: 700
Flags: W
HStem: -37 21G<13 50 340 500> 13 74<99.3918 188 212 357.808> 513 21G<13 50> 563 74<95.6099 165.589> 563 45<87 116.608 212.896 231>
VStem: 188 24<87 539> 288 74<170 530> 563 74<121 255>
AnchorPoint: "blwmark" 350 0 basechar 0
AnchorPoint: "abvmark" 400 700 basechar 0
LayerCount: 2
Back
SplineSet
50 550 m 1
 50 550 84 600 124 600 c 3
 160 600 178 575 200 575 c 3
 228 575 250 600 251 600 c 1025
200 550 m 1
 200 75 l 1025
325 150 m 1
 325 550 l 1
 375 600 l 1
 600 475 l 1
 450 325 l 1025
500 375 m 1
 600 275 l 1
 600 101 l 25
 500 0 l 17
 500 0 349 50 150 50 c 3
 81 50 50 0 50 0 c 1033
EndSplineSet
Fore
SplineSet
305 113 m 1xef
 288 130 l 1
 288 530 l 1
 395 637 l 1
 620 512 l 1
 637 495 l 1
 537 395 l 1
 637 295 l 1
 637 121 l 1
 537 20 l 1
 480 -37 l 1
 480 -37 329 13 130 13 c 0
 97 13 74 2 58 -9 c 2
 30 -37 l 1
 13 -20 l 2
 13 -20 17 -14 25 -6 c 2
 25 -5 l 2
 82 51 l 2
 97 66 126 87 170 87 c 0
 176 87 182 87 188 87 c 1
 188 539 l 2
 185 539 183 538 180 538 c 0
 158 538 140 563 104 563 c 0xf7
 91 563 78 558 67 550 c 2
 30 513 l 1
 13 530 l 1
 13 530 20 540 31 551 c 2
 87 608 l 2
 88 608 l 0xef
 102 622 122 637 144 637 c 0
 180 637 198 612 220 612 c 0
 248 612 270 637 271 637 c 2xf7
 288 620 l 1
 231 563 l 2
 230 563 223 555 212 548 c 1
 212 86 l 1
 384 80 511 40 519 37 c 1
 563 81 l 1
 563 255 l 1
 480 338 l 1
 430 288 l 1
 413 305 l 1
 463 355 l 1
 520 412 l 1
 558 450 l 1
 362 560 l 1
 362 170 l 1
 305 113 l 1xef
EndSplineSet
EndChar
StartChar: C
Encoding: 67 67 35
Width: 750
Flags: W
HStem: -37 74<305.149 463.215> 455 21G<263 288> 513 74<527.664 581.249> 517 20G<425 462> 563 74<417.812 476.993>
VStem: 88 74<193.29 386.603> 288 24<66 463 522 571> 388 74<120 480>
AnchorPoint: "blwmark" 400 0 basechar 0
AnchorPoint: "abvmark" 450 700 basechar 0
LayerCount: 2
Back
SplineSet
300 550 m 1
 300 100 l 1025
425 500 m 1
 425 100 l 1025
300 600 m 1
 300 600 125 480 125 300 c 3
 125 134 220 0 400 0 c 3
 519 0 651 150 652 150 c 1025
300 492 m 1
 300 492 395 600 455 600 c 3
 519 600 492 550 550 550 c 3
 598 550 625 600 626 600 c 1025
EndSplineSet
Fore
SplineSet
280 455 m 1xcf
 263 472 l 1
 263 472 272 482 286 496 c 2
 288 498 l 1
 288 571 l 1
 280 563 l 1
 280 563 269 555 253 542 c 0
 208 489 162 413 162 320 c 0
 162 234 188 156 237 102 c 0
 252 88 269 76 288 66 c 1
 288 463 l 1
 280 455 l 1xcf
445 537 m 1xd7
 462 520 l 1
 462 120 l 1
 405 63 l 1
 388 80 l 1
 388 480 l 1
 445 537 l 1xd7
302 60 m 1
 336 45 375 37 420 37 c 0
 503 37 592 109 638 153 c 2
 671 186 l 1
 672 187 l 2
 689 170 l 1
 687 168 l 2
 684 165 680 161 672 153 c 2
 615 95 l 2
 575 55 473 -37 380 -37 c 0
 298 -37 234 -9 188 37 c 2
 171 54 l 2
 116 109 88 189 88 280 c 0
 88 392 156 481 207 532 c 2
 263 588 l 2
 294 619 320 637 320 637 c 1
 337 620 l 1
 307 590 l 1
 312 590 l 1
 312 522 l 1
 342 553 l 2
 374 585 433 637 475 637 c 0xcf
 497 637 507 631 515 623 c 2
 533 606 l 2
 537 602 540 596 543 592 c 0
 550 588 558 587 570 587 c 0xe7
 584 587 596 591 606 597 c 2
 646 637 l 2xcf
 663 620 l 2
 661 618 655 607 644 596 c 2
 587 540 l 2
 574 527 555 513 530 513 c 0xe7
 512 513 502 518 495 525 c 0
 478 542 l 2
 474 546 470 551 467 556 c 0
 460 560 450 563 435 563 c 0xcf
 402 563 360 531 327 502 c 2
 312 487 l 1
 312 60 l 1
 302 60 l 1
EndSplineSet
EndChar
StartChar: F
Encoding: 70 70 38
Width: 700
Flags: W
HStem: -37 21G<13 50 238 275> 13 74<99.8359 186.608> 263 74<473.5 529.569> 313 74<398.643 447.5> 488 74<456.628 533.354> 513 21G<13 50> 563 74<95.6099 165.589> 563 45<87 116.608 212.896 231>
VStem: 188 24<86 539> 288 74<70 308.537 330 530>
AnchorPoint: "blwmark" 350 0 basechar 0
AnchorPoint: "abvmark" 400 700 basechar 0
LayerCount: 2
Back
SplineSet
50 0 m 17
 50 0 81 50 150 50 c 3
 248 50 275 0 275 0 c 9
 325 50 l 1
 325 550 l 1
 375 600 l 1
 375 600 438 525 500 525 c 27
 555 525 600 600 601 600 c 1025
50 550 m 1
 50 550 84 600 124 600 c 3
 160 600 178 575 200 575 c 3
 228 575 250 600 251 600 c 1025
200 550 m 1
 200 75 l 1025
350 300 m 1
 350 300 393 350 421 350 c 3
 456 350 465 300 500 300 c 3
 541 300 575 350 576 350 c 1049
EndSplineSet
Fore
SplineSet
30 513 m 1xd6c0
 13 530 l 1
 13 530 20 540 31 551 c 2
 87 608 l 2
 88 608 l 0xc5c0
 102 622 122 637 144 637 c 0
 180 637 198 612 220 612 c 0
 248 612 270 637 271 637 c 2xc2c0
 288 620 l 1
 231 563 l 2xc1c0
 230 563 223 555 212 548 c 1
 212 83 l 1
 252 76 274 60 285 49 c 2
 288 46 l 1
 288 530 l 1
 395 637 l 1
 412 620 l 1
 412 620 414 617 417 614 c 0
 441 592 481 562 520 562 c 0
 534 562 549 567 560 574 c 0
 562 578 564 580 564 580 c 2
 621 637 l 2
 638 620 l 2
 636 617 624 598 606 580 c 2
 549 524 l 2
 531 506 507 488 480 488 c 0
 435 488 391 527 369 549 c 2
 362 556 l 1
 362 330 l 1
 382 350 l 2
 383 351 l 0
 398 366 423 387 441 387 c 0xdac0
 454 387 463 380 471 372 c 2
 488 355 l 2
 491 352 494 348 497 345 c 0
 504 340 511 337 520 337 c 0xe0c0
 536 337 551 345 562 353 c 2
 596 387 l 2xd0c0
 613 370 l 1
 610 367 605 360 596 351 c 2
 595 350 l 2
 539 293 l 2
 525 279 503 263 480 263 c 0xe0c0
 467 263 458 270 450 278 c 2
 433 295 l 2
 430 298 427 301 424 305 c 0
 418 310 410 313 401 313 c 0
 389 313 375 305 362 294 c 1
 362 70 l 1
 255 -37 l 1
 238 -20 l 1
 238 -20 237 -18 236 -16 c 0
 218 -2 185 13 130 13 c 0
 98 13 74 3 58 -9 c 2
 30 -37 l 1
 13 -20 l 1
 13 -20 17 -13 25 -5 c 2
 82 51 l 2
 97 66 126 87 170 87 c 0
 176 87 182 86 188 86 c 1
 188 539 l 2
 185 539 183 538 180 538 c 0
 158 538 140 563 104 563 c 0
 91 563 78 558 67 550 c 2
 30 513 l 1xd6c0
EndSplineSet
EndChar
StartChar: G
Encoding: 71 71 39
Width: 750
Flags: W
HStem: -37 74<305.15 490.494> 327 74<538.602 603.5> 455 21G<263 288> 513 74<527.664 581.249> 517 20G<425 462> 563 74<417.812 476.993>
VStem: 88 74<191.788 386.673> 288 24<67 463 522 571> 388 74<120 270 306 480> 613 74<137.744 312.295>
AnchorPoint: "blwmark" 400 0 basechar 0
AnchorPoint: "abvmark" 450 700 basechar 0
LayerCount: 2
Back
SplineSet
475 300 m 17
 475 300 522 364 575 364 c 3
 631 364 650 306 650 200 c 3
 650 75 519 0 400 0 c 3
 220 0 125 134 125 300 c 3
 125 480 300 600 300 600 c 1025
300 550 m 1
 300 100 l 1025
425 500 m 1
 425 100 l 1025
300 492 m 1
 300 492 395 600 455 600 c 3
 519 600 492 550 550 550 c 3
 598 550 625 600 626 600 c 1025
EndSplineSet
Fore
SplineSet
280 455 m 1xe7c0
 263 472 l 1
 263 472 272 482 286 496 c 2
 288 498 l 1
 288 571 l 1
 280 563 l 1
 280 563 269 556 253 542 c 0
 208 490 162 413 162 320 c 0
 162 234 187 157 237 102 c 0
 252 88 269 77 288 67 c 1
 288 463 l 1
 280 455 l 1xe7c0
445 537 m 1xefc0
 462 520 l 1
 462 306 l 1
 514 358 l 2
 533 377 563 401 595 401 c 0
 612 401 626 396 637 385 c 2
 654 367 l 2
 678 343 687 293 687 220 c 0
 687 170 666 128 634 96 c 2
 577 40 l 2
 528 -9 452 -37 380 -37 c 0
 298 -37 234 -9 188 37 c 2
 171 54 l 1
 116 109 88 190 88 280 c 0
 88 392 156 481 207 532 c 2
 263 588 l 2
 264 589 l 2
 295 620 320 637 320 637 c 2
 337 620 l 1
 307 590 l 1
 312 590 l 1
 312 522 l 1
 342 553 l 2
 374 585 433 637 475 637 c 0xefc0
 497 637 507 631 515 623 c 2
 533 606 l 2
 537 602 540 596 543 592 c 0
 550 588 558 587 570 587 c 0xf3c0
 584 587 596 591 606 597 c 2
 646 637 l 2xe7c0
 663 620 l 2
 661 618 655 607 644 596 c 2
 587 540 l 2
 574 527 555 513 530 513 c 0xf3c0
 512 513 502 518 495 525 c 0
 478 542 l 2
 474 546 470 551 467 556 c 0
 460 560 450 563 435 563 c 0
 402 563 360 531 327 502 c 2
 312 487 l 1
 312 60 l 1
 302 60 l 1
 336 45 376 37 420 37 c 0
 478 37 538 54 585 87 c 1
 602 113 613 145 613 180 c 0
 613 245 606 291 588 318 c 1
 579 324 568 327 555 327 c 0
 533 327 513 316 495 303 c 2
 462 270 l 1
 462 120 l 1
 405 63 l 1
 388 80 l 1
 388 480 l 1
 445 537 l 1xefc0
EndSplineSet
EndChar
StartChar: I
Encoding: 73 73 41
Width: 450
Flags: W
HStem: -37 21G<13 50 238 275> 13 74<99.3918 186.608> 513 21G<13 50> 563 74<95.6099 165.589> 563 45<87 116.608 212.896 231>
VStem: 188 24<86 539> 288 74<70 530>
AnchorPoint: "blwmark" 250 0 basechar 0
AnchorPoint: "abvmark" 250 700 basechar 0
LayerCount: 2
Back
SplineSet
50 550 m 1
 50 550 84 600 124 600 c 3
 160 600 178 575 200 575 c 3
 228 575 250 600 251 600 c 1025
200 550 m 1
 200 75 l 1025
375 600 m 1
 325 550 l 1
 325 50 l 1
 275 0 l 17
 275 0 248 50 150 50 c 3
 81 50 50 0 50 0 c 1033
EndSplineSet
Fore
SplineSet
395 637 m 1xf6
 412 620 l 1
 362 570 l 1
 362 70 l 1
 255 -37 l 1
 238 -20 l 1
 238 -20 237 -18 236 -16 c 0
 218 -2 185 13 130 13 c 0
 97 13 74 2 58 -9 c 2
 30 -37 l 1
 13 -20 l 2
 13 -20 17 -14 25 -6 c 2
 25 -5 l 2
 82 51 l 2
 97 66 126 87 170 87 c 0
 176 87 182 86 188 86 c 1
 188 539 l 2
 185 539 183 538 180 538 c 0
 158 538 140 563 104 563 c 0xf6
 91 563 78 558 67 550 c 2
 30 513 l 1
 13 530 l 1
 13 530 20 540 31 551 c 2
 87 608 l 2
 88 608 l 0xee
 102 622 122 637 144 637 c 0
 180 637 198 612 220 612 c 0
 248 612 270 637 271 637 c 2xf6
 288 620 l 1
 231 563 l 2xee
 230 563 223 555 212 548 c 1
 212 83 l 1
 251 76 273 60 285 49 c 0
 288 46 l 1
 288 530 l 1
 395 637 l 1xf6
EndSplineSet
EndChar
StartChar: J
Encoding: 74 74 42
Width: 450
Flags: W
HStem: -187 74<24.2395 149.889> 513 21G<13 50> 563 74<95.6099 165.589> 563 45<87 116.608 212.896 231>
VStem: 188 24<-134 539> 288 74<-55 530>
AnchorPoint: "abvmark" 250 700 basechar 0
LayerCount: 2
Back
SplineSet
50 550 m 1
 50 550 84 600 124 600 c 3
 160 600 178 575 200 575 c 3
 228 575 250 600 251 600 c 1025
200 550 m 1
 200 -125 l 1025
375 600 m 1
 325 550 l 1
 325 -75 l 1
 200 -200 l 1
 200 -200 173 -150 75 -150 c 3
 6 -150 -25 -200 -25 -200 c 1025
EndSplineSet
Fore
SplineSet
395 637 m 1xec
 412 620 l 1
 362 570 l 1
 362 -55 l 1
 180 -237 l 1
 163 -220 l 1
 163 -220 162 -218 161 -216 c 0
 143 -202 110 -187 55 -187 c 0
 22 -187 -1 -198 -17 -209 c 2
 -45 -237 l 1
 -62 -220 l 2
 -62 -220 -58 -214 -50 -206 c 2
 -50 -205 l 2
 7 -149 l 2
 22 -134 51 -113 95 -113 c 0
 139 -113 169 -123 188 -134 c 1
 188 539 l 2
 185 539 183 538 180 538 c 0
 158 538 140 563 104 563 c 0xec
 91 563 78 558 67 550 c 2
 30 513 l 1
 13 530 l 1
 13 530 20 540 31 551 c 2
 87 608 l 2
 88 608 l 0xdc
 102 622 122 637 144 637 c 0
 180 637 198 612 220 612 c 0
 248 612 270 637 271 637 c 2xec
 288 620 l 1
 231 563 l 2xdc
 230 563 223 555 212 548 c 1
 212 -153 l 1
 221 -162 l 1
 288 -95 l 1
 288 530 l 1
 395 637 l 1xec
EndSplineSet
EndChar
StartChar: K
Encoding: 75 75 43
Width: 700
Flags: W
HStem: -37 21G<13 50 238 275> 13 74<99.3918 186.608> 513 31G<13 50 565.833 605> 563 74<95.6099 165.589> 563 45<87 116.608 212.896 231>
VStem: 188 24<86 539> 288 74<70 220 254 530> 488 74<420 540> 513 74<47.972 205>
AnchorPoint: "blwmark" 400 0 basechar 0
AnchorPoint: "abvmark" 450 700 basechar 0
LayerCount: 2
Back
SplineSet
50 550 m 1
 50 550 84 600 124 600 c 3
 160 600 178 575 200 575 c 3
 228 575 250 600 251 600 c 1025
200 550 m 1
 200 75 l 1025
375 250 m 1
 525 400 l 1
 525 560 l 1
 565 600 l 9
 605 560 l 1049
450 325 m 1
 550 225 l 1
 550 50 l 1
 590 10 l 9
 630 50 l 1049
375 600 m 1
 325 550 l 1
 325 50 l 1
 275 0 l 1
 275 0 248 50 150 50 c 3
 81 50 50 0 50 0 c 1033
EndSplineSet
Fore
SplineSet
395 637 m 1xf680
 412 620 l 1
 362 570 l 1
 362 254 l 1
 413 305 l 1
 470 362 l 1
 488 380 l 1
 488 540 l 1
 585 637 l 1
 642 580 l 1
 585 523 l 1
 562 547 l 1
 562 420 l 1xf7
 487 345 l 1
 587 245 l 1
 587 70 l 2
 587 59 603 54 610 47 c 1
 650 87 l 1
 667 70 l 1
 570 -27 l 1
 513 30 l 1
 513 205 l 1
 430 288 l 1
 362 220 l 1
 362 70 l 1
 255 -37 l 1
 238 -20 l 1
 238 -20 237 -18 236 -16 c 0
 218 -2 185 13 130 13 c 0
 97 13 74 2 58 -9 c 2
 30 -37 l 1
 13 -20 l 2
 13 -20 17 -14 25 -6 c 2
 25 -5 l 2
 82 51 l 2
 97 66 126 87 170 87 c 0
 176 87 182 86 188 86 c 1
 188 539 l 2
 185 539 183 538 180 538 c 0
 158 538 140 563 104 563 c 0xf680
 91 563 78 558 67 550 c 2
 30 513 l 1
 13 530 l 1
 13 530 20 540 31 551 c 2
 87 608 l 2
 88 608 l 0xee80
 102 622 122 637 144 637 c 0
 180 637 198 612 220 612 c 0
 248 612 270 637 271 637 c 2xf680
 288 620 l 1
 231 563 l 2xee80
 230 563 223 555 212 548 c 1
 212 83 l 1
 251 76 273 60 285 49 c 0
 288 46 l 1
 288 530 l 1
 395 637 l 1xf680
EndSplineSet
EndChar
StartChar: M
Encoding: 77 77 45
Width: 900
Flags: W
HStem: -27 21G<23 54 248 279 514 554 739 779> 23 54<95.0542 190.937> 523 21G<23 54> 548 54<161.837 192> 573 25<83 97.9505 220.009 235> 607 20G<266.5 278 371 410.823 596 636>
VStem: 192 16<76 549> 298 54<66 534> 473 54<66 491> 698 54<66 491>
AnchorPoint: "blwmark" 450 0 basechar 0
AnchorPoint: "abvmark" 500 700 basechar 0
LayerCount: 2
Back
SplineSet
825 50 m 25
 775 0 l 17
 725 50 l 1
 725 475 l 1
 600 600 l 1
 500 500 l 1025
50 550 m 1
 50 550 84 600 124 600 c 3
 160 600 178 575 200 575 c 3
 228 575 250 600 251 600 c 1025
200 550 m 1
 200 75 l 1025
600 50 m 25
 550 0 l 17
 500 50 l 1
 500 475 l 1
 375 600 l 1
 325 550 l 1
 325 50 l 1
 275 0 l 1
 275 0 248 50 150 50 c 3
 81 50 50 0 50 0 c 1033
EndSplineSet
Fore
SplineSet
616 77 m 1xefc0
 627 66 l 1
 534 -27 l 1
 473 34 l 1
 473 459 l 2
 473 523 393 539 359 573 c 1xefc0
 352 566 l 1
 352 66 l 1
 259 -27 l 1
 248 -16 l 1
 248 -16 247 -13 244 -9 c 0
 227 6 193 23 134 23 c 0
 101 23 78 12 62 1 c 2
 34 -27 l 1
 23 -16 l 2
 23 -16 27 -9 35 -1 c 2
 78 41 l 2
 93 56 122 77 166 77 c 0
 175 77 184 77 192 76 c 1
 192 549 l 2
 190 549 187 548 184 548 c 0xf7c0
 162 548 144 573 108 573 c 0
 95 573 83 568 71 560 c 2
 34 523 l 1
 23 534 l 1
 23 534 30 544 41 555 c 2
 83 598 l 2
 84 598 l 0xefc0
 98 612 118 627 140 627 c 0
 176 627 194 602 216 602 c 0xf7c0
 244 602 266 627 267 627 c 2
 278 616 l 1
 235 573 l 2
 234 573 224 561 208 554 c 1
 208 73 l 1
 247 66 270 50 281 39 c 0
 292 28 l 1
 298 34 l 1
 298 534 l 1
 391 627 l 1
 503 514 l 1
 616 627 l 1
 752 491 l 1
 752 66 l 1
 791 27 l 1
 841 77 l 1
 852 66 l 1
 759 -27 l 1
 698 34 l 1
 698 459 l 2
 698 523 618 539 584 573 c 1
 514 503 l 1
 527 491 l 1
 527 66 l 1
 566 27 l 1
 616 77 l 1xefc0
EndSplineSet
EndChar
StartChar: N
Encoding: 78 78 46
Width: 750
Flags: W
HStem: -27 21G<23 54 248 279 564 604> 23 54<95.2575 190.937> 523 21G<23 54> 548 54<161.837 192> 573 25<83 97.9505 220.009 235> 607 20G<266.5 278 371 419>
VStem: 192 16<76 549> 298 54<66 534> 523 54<38.6367 456>
AnchorPoint: "blwmark" 400 0 basechar 0
AnchorPoint: "abvmark" 400 700 basechar 0
LayerCount: 2
Back
SplineSet
50 550 m 1
 50 550 84 600 124 600 c 3
 160 600 178 575 200 575 c 3
 228 575 250 600 251 600 c 1025
200 550 m 1
 200 75 l 1025
50 0 m 17
 50 0 81 50 150 50 c 3
 248 50 275 0 275 0 c 1
 325 50 l 1
 325 550 l 1
 375 600 l 1
 550 475 l 1
 550 50 l 1
 600 0 l 9
 650 50 l 1049
EndSplineSet
Fore
SplineSet
34 -27 m 1xef80
 23 -16 l 1
 23 -16 27 -9 35 -1 c 2
 78 41 l 2
 93 56 122 77 166 77 c 0
 175 77 184 77 192 76 c 1
 192 549 l 2
 190 549 187 548 184 548 c 0xf780
 162 548 144 573 108 573 c 0
 95 573 83 568 71 560 c 2
 34 523 l 1
 23 534 l 1
 23 534 30 544 41 555 c 2
 83 598 l 2
 84 598 l 0xef80
 98 612 118 627 140 627 c 0
 176 627 194 602 216 602 c 0xf780
 244 602 266 627 267 627 c 2
 278 616 l 1
 235 573 l 2
 234 573 224 561 208 554 c 1
 208 73 l 1
 247 66 270 50 281 39 c 2
 292 28 l 1
 298 34 l 1
 298 534 l 1
 391 627 l 1
 566 502 l 1
 577 491 l 1
 577 66 l 2
 577 45 605 38 616 27 c 1
 666 77 l 1
 677 66 l 1
 584 -27 l 1
 523 34 l 1
 523 456 l 1
 359 573 l 1
 352 566 l 1
 352 66 l 1
 259 -27 l 1
 248 -16 l 1
 248 -16 247 -13 244 -9 c 0
 227 5 193 23 134 23 c 0
 102 23 78 13 62 1 c 2
 34 -27 l 1xef80
EndSplineSet
EndChar
StartChar: O
Encoding: 79 79 47
Width: 800
Flags: W
HStem: -37 74<305.149 464.23> 455 21G<263 288> 617 20G<296.735 337 448.5 493.5>
VStem: 88 74<193.29 386.603> 288 24<66 463 533 571> 388 74<120 530> 616 74<210.48 431.971>
AnchorPoint: "blwmark" 400 0 basechar 0
AnchorPoint: "abvmark" 450 700 basechar 0
LayerCount: 2
Back
SplineSet
300 550 m 1
 300 100 l 1025
427 550 m 1
 425 100 l 1025
300 600 m 1
 300 600 125 480 125 300 c 3
 125 134 220 0 400 0 c 3
 519 0 653 142 653 300 c 3
 653 512 561 600 450 600 c 3
 363 600 300 492 300 492 c 1025
EndSplineSet
Fore
SplineSet
423 563 m 1
 397 561 373 549 353 535 c 1
 343 521 337 512 337 512 c 1
 312 487 l 1
 312 60 l 1
 302 60 l 1
 336 45 375 37 420 37 c 0
 463 37 507 55 546 85 c 1
 588 139 616 208 616 280 c 0
 616 394 589 473 547 521 c 1
 522 543 495 555 464 560 c 1
 462 120 l 1
 405 63 l 1
 388 80 l 1
 390 530 l 1
 423 563 l 1
288 571 m 1
 280 563 l 1
 280 563 269 555 253 542 c 0
 208 489 162 413 162 320 c 0
 162 234 188 156 237 102 c 0
 252 88 269 76 288 66 c 1
 288 463 l 1
 280 455 l 1
 263 472 l 1
 263 472 272 488 288 507 c 1
 288 571 l 1
312 533 m 1
 363 584 l 2
 390 611 427 637 470 637 c 0
 517 637 561 621 596 586 c 2
 613 569 l 2
 660 522 690 442 690 320 c 0
 690 233 649 151 593 95 c 2
 537 38 l 2
 491 -8 434 -37 380 -37 c 0
 298 -37 234 -9 188 37 c 2
 171 54 l 2
 116 109 88 189 88 280 c 0
 88 392 156 481 207 532 c 2
 263 588 l 2
 294 619 320 637 320 637 c 1
 337 620 l 1
 307 590 l 1
 312 590 l 1
 312 533 l 1
EndSplineSet
EndChar
StartChar: Q
Encoding: 81 81 49
Width: 800
Flags: W
HStem: -37 74<305.149 464.23 641.569 712> -12 74<572.302 648.431> 455 21G<263 288> 617 20G<296.735 337 448.5 493.5>
VStem: 88 74<193.29 386.603> 288 24<66 463 533 571> 388 74<120 530> 616 74<210.48 431.971>
AnchorPoint: "blwmark" 400 0 basechar 0
AnchorPoint: "abvmark" 450 700 basechar 0
LayerCount: 2
Back
SplineSet
550 0 m 25
 550 0 565 25 600 25 c 27
 635 25 655 0 690 0 c 27
 718 0 750 50 750 50 c 1049
300 550 m 1
 300 100 l 1025
427 550 m 1
 425 100 l 1025
300 600 m 1
 300 600 125 480 125 300 c 3
 125 134 220 0 400 0 c 3
 519 0 653 142 653 300 c 3
 653 512 561 600 450 600 c 3
 363 600 300 492 300 492 c 1025
EndSplineSet
Fore
SplineSet
530 -37 m 1xbf
 513 -20 l 1
 513 -20 516 -16 520 -12 c 2
 576 44 l 2
 583 51 598 62 620 62 c 0x7f
 655 62 675 37 710 37 c 0
 714 37 719 38 723 40 c 2
 770 87 l 1
 787 70 l 1
 787 70 777 54 763 40 c 2
 706 -16 l 2
 695 -27 682 -37 670 -37 c 0xbf
 635 -37 615 -12 580 -12 c 0x7f
 564 -12 552 -17 544 -23 c 2
 530 -37 l 1xbf
423 563 m 1
 397 561 373 549 353 535 c 1
 343 521 337 512 337 512 c 1
 312 487 l 1
 312 60 l 1
 302 60 l 1
 336 45 375 37 420 37 c 0xbf
 463 37 507 55 546 85 c 1
 588 139 616 208 616 280 c 0
 616 394 589 473 547 521 c 1
 522 543 495 555 464 560 c 1
 462 120 l 1
 405 63 l 1
 388 80 l 1
 390 530 l 1
 423 563 l 1
288 571 m 1
 280 563 l 1
 280 563 269 555 253 542 c 0
 208 489 162 413 162 320 c 0
 162 234 188 156 237 102 c 0
 252 88 269 76 288 66 c 1
 288 463 l 1
 280 455 l 1
 263 472 l 1
 263 472 272 488 288 507 c 1
 288 571 l 1
312 533 m 1
 363 584 l 2
 390 611 427 637 470 637 c 0
 517 637 561 621 596 586 c 2
 613 569 l 2
 660 522 690 442 690 320 c 0
 690 233 649 151 593 95 c 2
 537 38 l 2
 491 -8 434 -37 380 -37 c 0
 298 -37 234 -9 188 37 c 2
 171 54 l 2
 116 109 88 189 88 280 c 0
 88 392 156 481 207 532 c 2
 263 588 l 2
 294 619 320 637 320 637 c 1
 337 620 l 1
 307 590 l 1
 312 590 l 1
 312 533 l 1
EndSplineSet
EndChar
StartChar: R
Encoding: 82 82 50
Width: 700
Flags: W
HStem: -27 21G<23 54 248 279 564 604> 23 54<95.0542 190.937> 523 21G<23 54> 548 54<161.837 192> 573 25<83 97.9505 220.009 235> 607 20G<266.5 278 371 427>
VStem: 192 16<76 549> 298 54<66 534> 523 54<38.6367 309>
AnchorPoint: "blwmark" 400 0 basechar 0
AnchorPoint: "abvmark" 400 700 basechar 0
LayerCount: 2
Back
SplineSet
50 550 m 1
 50 550 84 600 124 600 c 3
 160 600 178 575 200 575 c 3
 228 575 250 600 251 600 c 1025
200 550 m 1
 200 75 l 1025
450 325 m 1
 600 475 l 1
 375 600 l 1
 325 550 l 1
 325 50 l 1
 275 0 l 1
 275 0 248 50 150 50 c 3
 81 50 50 0 50 0 c 1033
500 375 m 1
 550 325 l 1
 550 50 l 1
 600 0 l 9
 650 50 l 1049
EndSplineSet
Fore
SplineSet
434 298 m 1xef80
 423 309 l 1
 473 359 l 1
 516 402 l 1
 570 456 l 1
 359 573 l 2xef80
 359 573 353 567 352 566 c 2
 352 66 l 1
 259 -27 l 1
 248 -16 l 1
 248 -16 247 -13 244 -9 c 0
 227 6 193 23 134 23 c 0
 101 23 78 12 62 1 c 2
 34 -27 l 1
 23 -16 l 2
 23 -16 27 -9 35 -1 c 2
 78 41 l 2
 93 56 122 77 166 77 c 0
 175 77 184 77 192 76 c 1
 192 549 l 2
 190 549 187 548 184 548 c 0xf780
 162 548 144 573 108 573 c 0
 95 573 83 568 71 560 c 2
 34 523 l 1
 23 534 l 1
 23 534 30 544 41 555 c 2
 83 598 l 2
 84 598 l 0xef80
 98 612 118 627 140 627 c 0
 176 627 194 602 216 602 c 0xf780
 244 602 266 627 267 627 c 2
 278 616 l 1
 235 573 l 2
 234 573 224 561 208 554 c 1
 208 73 l 1
 247 66 270 50 281 39 c 0
 292 28 l 1
 298 34 l 1
 298 534 l 1
 391 627 l 1
 616 502 l 1
 627 491 l 1
 527 391 l 1
 577 341 l 1
 577 66 l 2
 577 45 605 38 616 27 c 1
 666 77 l 1
 677 66 l 1
 584 -27 l 1
 523 34 l 1
 523 309 l 1
 484 348 l 1
 434 298 l 1xef80
EndSplineSet
EndChar
StartChar: S
Encoding: 83 83 51
Width: 700
Flags: W
HStem: 13 74<125.802 338.393> 513 74<334.513 520.59> 617 20G<200 320 560 637>
VStem: 563 74<120 229>
AnchorPoint: "blwmark" 350 0 basechar 0
AnchorPoint: "abvmark" 350 700 basechar 0
LayerCount: 2
Back
SplineSet
550 525 m 25
 123 100 l 1049
460 179 m 1
 110 300 l 9
 150 375 l 1049
600 600 m 1
 600 600 514 550 450 550 c 3
 379 550 200 600 200 600 c 1
 100 500 l 1
 100 440 l 1
 600 260 l 1
 600 100 l 1
 500 0 l 1
 500 0 270 50 200 50 c 3
 127 50 50 0 50 0 c 1025
EndSplineSet
Fore
SplineSet
637 620 m 1
 580 563 l 1
 580 563 578 562 573 559 c 1
 587 545 l 1
 530 488 l 1
 413 371 l 1
 620 297 l 1
 637 280 l 1
 637 120 l 1
 480 -37 l 1
 480 -37 250 13 180 13 c 0
 107 13 30 -37 30 -37 c 1
 13 -20 l 1
 70 37 l 1
 70 37 147 87 220 87 c 0
 290 87 520 37 520 37 c 1
 563 80 l 1
 563 229 l 1
 348 307 l 1
 314 273 l 1
 480 216 l 1
 497 199 l 1
 440 142 l 1
 249 208 l 1
 103 63 l 1
 86 80 l 1
 143 137 l 1
 224 217 l 1
 90 263 l 1
 73 280 l 1
 113 355 l 1
 140 382 l 1
 80 403 l 1
 63 420 l 1
 63 480 l 1
 220 637 l 1
 220 637 399 587 470 587 c 0
 534 587 620 637 620 637 c 1
 637 620 l 1
173 370 m 1
 152 329 l 1
 289 282 l 1
 323 316 l 1
 173 370 l 1
561 553 m 1
 532 538 475 513 430 513 c 0
 359 513 180 563 180 563 c 2
 180 563 141 524 137 520 c 1
 137 471 l 1
 388 380 l 1
 561 553 l 1
EndSplineSet
EndChar
StartChar: T
Encoding: 84 84 52
Width: 700
Flags: W
HStem: -27 54<259.348 419.248> 460 20G<243.059 267 267 283> 473 54<386.443 412> 573 54<202.756 293.112>
VStem: 98 54<143.732 314.158> 267 16<70 456 477 480> 373 54<116 434>
AnchorPoint: "blwmark" 350 0 basechar 0
AnchorPoint: "abvmark" 400 700 basechar 0
LayerCount: 2
Back
SplineSet
275 450 m 1
 275 100 l 1049
400 450 m 1
 400 100 l 1049
250 450 m 1
 250 450 125 356 125 250 c 3
 125 84 214 0 350 0 c 3
 469 0 601 150 602 150 c 1049
100 500 m 17
 100 500 180 600 250 600 c 27
 330 600 348 500 428 500 c 19
 505 500 575 600 576 600 c 1033
EndSplineSet
Fore
SplineSet
346 585 m 2xbe
 358 573 l 2
 361 570 365 567 368 564 c 0
 389 544 411 527 444 527 c 0
 478 527 510 546 535 567 c 0
 543 577 548 583 549 584 c 2
 591 627 l 2
 592 627 l 2
 603 616 l 1
 600 613 588 596 568 576 c 2
 525 533 l 2
 499 507 460 476 419 473 c 1
 427 466 l 1
 427 116 l 1
 384 73 l 1
 373 84 l 1
 373 434 l 1
 412 473 l 1
 377 473 354 492 332 514 c 2
 332 515 l 1
 320 526 l 2
 317 529 313 533 310 536 c 0
 290 556 267 573 234 573 c 0
 199 573 162 548 133 523 c 0
 129 518 127 516 127 516 c 1
 84 473 l 1
 73 484 l 1
 73 484 84 498 101 515 c 2
 143 557 l 2
 172 586 222 627 266 627 c 0
 301 627 324 607 346 585 c 2xbe
267 480 m 1xde
 283 480 l 1
 283 70 l 1
 267 70 l 1
 267 456 l 1
 234 423 l 1
 234 423 227 418 218 410 c 0
 185 372 152 321 152 266 c 0
 152 184 174 122 212 80 c 1
 251 45 303 27 366 27 c 0
 449 27 537 99 584 143 c 2
 617 176 l 1
 617 177 l 2
 618 177 l 2
 629 166 l 1
 627 164 l 2
 625 162 620 156 612 148 c 2
 569 105 l 2
 529 65 428 -27 334 -27 c 0
 268 -27 214 -7 175 32 c 2
 164 43 l 2
 122 85 98 148 98 234 c 0
 98 301 148 363 185 400 c 2
 227 443 l 2
 249 465 266 477 266 477 c 1
 267 475 l 1
 267 480 l 1xde
EndSplineSet
EndChar
StartChar: U
Encoding: 85 85 53
Width: 700
Flags: W
HStem: -37 74<288.308 414.254> 513 21G<13 50> 544 68<261 263 288.082 371> 563 74<95.6099 226.585> 563 45<87 116.608>
VStem: 88 74<146.632 371.679> 263 24<59 541> 363 74<120 530> 563 74<40 94 114.902 168 172 585>
AnchorPoint: "blwmark" 350 0 basechar 0
AnchorPoint: "abvmark" 450 700 basechar 0
LayerCount: 2
Back
SplineSet
400 550 m 1
 400 100 l 1025
580 40 m 25
 620 0 l 25
 660 40 l 1049
580 625 m 25
 620 585 l 1049
600 605 m 9
 600 20 l 1049
250 550 m 1
 250 550 125 466 125 250 c 3
 125 84 214 0 350 0 c 3
 469 0 601 150 602 150 c 1049
50 550 m 1
 50 550 84 600 124 600 c 3
 204 600 228 575 400 575 c 3
 428 575 450 600 451 600 c 1025
275 525 m 1
 275 50 l 1025
EndSplineSet
Fore
SplineSet
30 513 m 1xd780
 13 530 l 1
 13 530 20 540 31 551 c 2
 87 608 l 2
 88 608 l 0xcf80
 102 622 122 637 144 637 c 0xd780
 224 637 248 612 420 612 c 0xe780
 448 612 470 637 471 637 c 2
 488 620 l 1
 437 569 l 1
 437 120 l 1
 380 63 l 1
 363 80 l 1
 363 530 l 1
 371 538 l 1
 338 538 310 539 287 541 c 1
 287 49 l 1
 312 41 340 37 370 37 c 0
 440 37 514 89 563 131 c 1
 563 585 l 1
 543 605 l 1
 600 662 l 1
 620 642 l 1
 637 625 l 1
 657 605 l 1
 637 585 l 1
 637 172 l 1
 639 170 l 1
 637 168 l 2
 637 40 l 1
 640 37 l 1
 680 77 l 1
 697 60 l 1
 600 -37 l 1
 580 -17 l 1
 563 0 l 1
 543 20 l 1
 563 40 l 1
 563 94 l 1
 522 53 422 -37 330 -37 c 0
 264 -37 210 -17 171 22 c 2
 154 39 l 2
 112 81 88 144 88 230 c 0
 88 386 154 473 190 510 c 0
 228 548 l 1
 179 555 151 563 104 563 c 0
 91 563 78 558 67 550 c 2
 30 513 l 1xd780
263 543 m 2
 262 543 262 544 261 544 c 2xe780
 240 523 l 1
 204 477 162 397 162 270 c 0
 162 190 183 128 219 87 c 0
 232 75 247 67 263 59 c 1
 263 543 l 2
EndSplineSet
EndChar
StartChar: V
Encoding: 86 86 54
Width: 700
Flags: W
HStem: -37 21G<338 375> 113 73<212 266.84> 513 21G<13 50> 563 74<95.6099 165.589> 563 45<87 116.608 212.896 231>
VStem: 188 24<186 539> 288 74<270 530> 463 74<447 506.137> 538 74<221 388.125>
AnchorPoint: "blwmark" 375 0 basechar 0
AnchorPoint: "abvmark" 450 700 basechar 0
LayerCount: 2
Back
SplineSet
50 550 m 1
 50 550 84 600 124 600 c 3
 160 600 178 575 200 575 c 3
 228 575 250 600 251 600 c 1025
200 550 m 1
 200 175 l 1025
325 250 m 1
 325 550 l 1
 375 600 l 1025
100 100 m 17
 100 100 138 150 175 150 c 3
 374 150 375 0 375 0 c 1
 575 201 l 1
 575 415 l 1
 575 415 500 419 500 475 c 3
 500 530 600 600 600 600 c 1025
EndSplineSet
Fore
SplineSet
80 63 m 1xef80
 63 80 l 1
 63 80 70 89 79 98 c 2
 135 154 l 2
 148 167 168 183 188 186 c 1
 188 539 l 2
 185 539 183 538 180 538 c 0
 158 538 140 563 104 563 c 0xf780
 91 563 78 558 67 550 c 2
 30 513 l 1
 13 530 l 1
 13 530 20 540 31 551 c 2
 87 608 l 2
 88 608 l 0xef80
 102 622 122 637 144 637 c 0
 180 637 198 612 220 612 c 0
 248 612 270 637 271 637 c 2xf780
 288 620 l 1
 231 563 l 2xef80
 230 563 223 555 212 548 c 1
 212 186 l 1
 281 183 324 161 351 134 c 2
 368 117 l 2
 391 94 402 68 407 49 c 1
 538 181 l 1
 538 381 l 1
 525 384 507 390 495 402 c 2
 478 419 l 2
 469 428 463 439 463 455 c 0
 463 481 486 511 510 535 c 2
 566 592 l 2
 567 593 l 2
 593 619 620 637 620 637 c 2xf780
 637 620 l 1
 580 563 l 2
 580 563 572 558 559 547 c 0
 547 530 537 512 537 495 c 0
 537 484 539 475 544 468 c 0
 565 454 595 452 595 452 c 1
 612 435 l 1
 612 221 l 1
 412 20 l 1
 355 -37 l 1
 338 -20 l 1
 338 -20 339 -16 338 -11 c 0
 336 4 329 38 303 69 c 1
 274 94 227 113 155 113 c 0
 140 113 125 105 112 95 c 2
 80 63 l 1xef80
305 213 m 1
 288 230 l 1
 288 530 l 1
 395 637 l 1
 412 620 l 1
 362 570 l 1
 362 270 l 1
 305 213 l 1
EndSplineSet
EndChar
StartChar: W
Encoding: 87 87 55
Width: 1000
Flags: W
HStem: -37 21G<338 375 638 675> 113 73<212 266.84> 513 21G<13 50> 563 74<95.6099 165.589> 563 45<87 116.608 212.896 231>
VStem: 188 24<186 539> 288 74<270 530> 538 74<221 560> 763 74<447 506.137> 838 74<221 388.125>
AnchorPoint: "blwmark" 550 0 basechar 0
AnchorPoint: "abvmark" 575 700 basechar 0
LayerCount: 2
Back
SplineSet
555 600 m 25
 595 560 l 1049
50 550 m 1
 50 550 84 600 124 600 c 3
 160 600 178 575 200 575 c 3
 228 575 250 600 251 600 c 1025
200 550 m 1
 200 175 l 1025
325 250 m 1
 325 550 l 1
 375 600 l 1025
100 100 m 17
 100 100 138 150 175 150 c 3
 374 150 375 0 375 0 c 1
 575 201 l 1
 575 580 l 1025
900 600 m 1
 900 600 800 530 800 475 c 3
 800 419 875 415 875 415 c 1
 875 201 l 1
 675 0 l 1
 575 201 l 1049
EndSplineSet
Fore
SplineSet
937 620 m 1xf7c0
 880 563 l 1xefc0
 880 563 871 557 859 547 c 0
 846 530 837 512 837 495 c 0
 837 484 840 475 844 468 c 0
 866 454 895 452 895 452 c 1
 912 435 l 1
 912 221 l 1
 712 20 l 1
 655 -37 l 1
 638 -20 l 1
 550 158 l 1
 412 20 l 1
 355 -37 l 1
 338 -20 l 1
 338 -20 339 -16 338 -11 c 0
 336 4 329 38 303 69 c 1
 274 94 227 113 155 113 c 0
 140 113 125 105 112 95 c 2
 80 63 l 1
 63 80 l 1
 63 80 70 89 79 98 c 2
 135 154 l 2
 148 167 168 183 188 186 c 1
 188 539 l 2
 185 539 183 538 180 538 c 0
 158 538 140 563 104 563 c 0xf7c0
 91 563 78 558 67 550 c 2
 30 513 l 1
 13 530 l 1
 13 530 20 540 31 551 c 2
 87 608 l 2
 88 608 l 0xefc0
 102 622 122 637 144 637 c 0
 180 637 198 612 220 612 c 0
 248 612 270 637 271 637 c 2xf7c0
 288 620 l 1
 231 563 l 2xefc0
 230 563 223 555 212 548 c 1
 212 186 l 1
 281 183 324 161 351 134 c 2
 368 117 l 2
 391 94 402 68 407 49 c 1
 538 181 l 1
 538 560 l 1
 518 580 l 1
 575 637 l 1
 595 617 l 1
 612 600 l 1
 632 580 l 1
 612 560 l 1
 612 221 l 1
 700 43 l 1
 838 181 l 1
 838 381 l 1
 826 384 807 390 795 402 c 0
 778 419 l 2
 769 428 763 439 763 455 c 0
 763 481 786 511 810 535 c 2
 866 592 l 2
 892 618 920 637 920 637 c 1
 937 620 l 1xf7c0
305 213 m 1
 288 230 l 1
 288 530 l 1
 395 637 l 1xf7c0
 412 620 l 1
 362 570 l 1
 362 270 l 1
 305 213 l 1
EndSplineSet
EndChar
StartChar: X
Encoding: 88 88 56
Width: 600
Flags: W
HStem: 288 74<159.122 224.282> 513 21G<38 75 485 525> 617 20G<125 162 475 515>
AnchorPoint: "abvmark" 300 700 basechar 0
LayerCount: 2
Back
SplineSet
100 275 m 25
 100 275 156 325 200 325 c 27
 279 325 321 300 400 300 c 27
 444 300 500 350 500 350 c 1049
550 50 m 25
 500 0 l 17
 125 600 l 9
 75 550 l 1049
50 50 m 25
 100 0 l 17
 475 600 l 9
 525 550 l 1049
EndSplineSet
Fore
SplineSet
13 30 m 1
 70 87 l 1
 107 50 l 1
 251 281 l 1
 230 285 207 288 180 288 c 0
 136 288 80 238 80 238 c 1
 63 255 l 1
 120 312 l 1
 120 312 176 362 220 362 c 0
 222 362 223 362 225 362 c 2
 101 559 l 1
 55 513 l 1
 38 530 l 1
 145 637 l 1
 162 620 l 1
 312 379 l 1
 438 580 l 1
 495 637 l 1
 562 570 l 1
 505 513 l 1
 468 550 l 1
 340 345 l 1
 364 340 389 337 420 337 c 0
 464 337 520 387 520 387 c 1
 537 370 l 1
 480 313 l 1
 480 313 428 266 385 263 c 1
 524 41 l 1
 570 87 l 1
 587 70 l 1
 480 -37 l 1
 463 -20 l 1
 288 261 l 1
 137 20 l 1
 80 -37 l 1
 13 30 l 1
EndSplineSet
EndChar
StartChar: Y
Encoding: 89 89 57
Width: 700
Flags: W
HStem: -187 74<108.852 393.279> -37 21G<338 375> 113 73<212 266.84> 513 21G<13 50> 563 74<95.6099 165.589> 563 45<87 116.608 212.896 231>
VStem: 188 24<186 539> 288 74<270 530> 538 74<-80 146 180 560>
AnchorPoint: "abvmark" 450 700 basechar 0
LayerCount: 2
Back
SplineSet
50 550 m 1
 50 550 84 600 124 600 c 3
 160 600 178 575 200 575 c 3
 228 575 250 600 251 600 c 1025
200 550 m 1
 200 175 l 1025
325 250 m 1
 325 550 l 1
 375 600 l 1025
100 100 m 17
 100 100 138 150 175 150 c 3
 374 150 375 0 375 0 c 1
 575 200 l 1025
50 -200 m 17
 50 -200 66 -150 250 -150 c 3
 412 -150 475 -200 475 -200 c 9
 575 -100 l 1
 575 580 l 1025
555 600 m 25
 595 560 l 1049
EndSplineSet
Fore
SplineSet
518 580 m 1xf780
 575 637 l 1
 595 617 l 1
 612 600 l 1
 632 580 l 1
 612 560 l 1
 612 220 l 1
 612 -80 l 1
 455 -237 l 1
 455 -237 392 -187 230 -187 c 0
 121 -187 71 -204 48 -219 c 1
 30 -237 l 1
 13 -220 l 1
 13 -220 15 -216 20 -211 c 2
 76 -154 l 2
 90 -140 136 -113 270 -113 c 0
 432 -113 495 -163 495 -163 c 2
 495 -163 534 -124 538 -120 c 1
 538 146 l 1
 355 -37 l 1
 338 -20 l 1
 338 -20 338 28 303 69 c 1
 274 94 227 113 155 113 c 0
 140 113 125 105 112 95 c 2
 80 63 l 1
 63 80 l 1
 63 80 70 89 79 98 c 2
 135 154 l 2
 148 167 168 183 188 186 c 1
 188 539 l 2
 185 539 183 538 180 538 c 0
 158 538 140 563 104 563 c 0xfb80
 91 563 78 558 67 550 c 2
 30 513 l 1
 13 530 l 1
 13 530 20 540 31 551 c 2
 87 608 l 2
 88 608 l 0xf780
 102 622 122 637 144 637 c 0
 180 637 198 612 220 612 c 0
 248 612 270 637 271 637 c 2xfb80
 288 620 l 1
 231 563 l 2
 230 563 223 555 212 548 c 1
 212 186 l 1
 281 183 324 161 351 134 c 2
 368 117 l 2
 391 94 402 68 407 49 c 1
 538 180 l 1
 538 560 l 1
 518 580 l 1xf780
305 213 m 1
 288 230 l 1
 288 530 l 1
 395 637 l 1
 412 620 l 1
 362 570 l 1
 362 270 l 1
 305 213 l 1
EndSplineSet
EndChar
StartChar: Z
Encoding: 90 90 58
Width: 700
Flags: W
HStem: 13 74<111.39 419.745> 263 74<387.406 491.061> 288 74<208.939 321.491> 513 74<234.063 539.113> 617 20G<100 260 560 637>
AnchorPoint: "blwmark" 300 0 basechar 0
AnchorPoint: "abvmark" 350 700 basechar 0
LayerCount: 2
Back
SplineSet
150 275 m 25
 150 275 206 325 250 325 c 27
 329 325 371 300 450 300 c 27
 494 300 550 350 550 350 c 1049
625 100 m 1
 525 0 l 1
 525 0 448 50 200 50 c 3
 127 50 50 0 50 0 c 1
 600 600 l 1
 600 600 514 550 450 550 c 3
 240 550 100 600 100 600 c 1025
EndSplineSet
Fore
SplineSet
645 137 m 1xd8
 662 120 l 1
 505 -37 l 1
 505 -37 428 13 180 13 c 0
 107 13 30 -37 30 -37 c 1
 13 -20 l 1
 291 283 l 1
 273 286 253 288 230 288 c 0
 186 288 130 238 130 238 c 1
 113 255 l 1
 170 312 l 1
 170 312 226 362 270 362 c 0xb8
 303 362 329 357 354 352 c 1
 522 535 l 1
 493 523 459 513 430 513 c 0
 220 513 80 563 80 563 c 1
 63 580 l 1
 120 637 l 1
 120 637 260 587 470 587 c 0
 534 587 620 637 620 637 c 1
 637 620 l 1
 386 346 l 1
 411 341 437 337 470 337 c 0
 514 337 570 387 570 387 c 1
 587 370 l 1
 530 313 l 1
 530 313 474 263 430 263 c 0
 387 263 356 270 323 277 c 1
 130 67 l 1
 156 77 189 87 220 87 c 0
 468 87 545 37 545 37 c 1
 645 137 l 1xd8
EndSplineSet
EndChar
StartChar: bracketleft
Encoding: 91 91 59
Width: 300
Flags: W
HStem: -187 74<137 230> 663 74<137 230>
VStem: 63 74<-113 663>
LayerCount: 2
Back
SplineSet
250 700 m 25
 100 700 l 25
 100 -150 l 25
 250 -150 l 1033
EndSplineSet
Fore
SplineSet
287 720 m 1
 230 663 l 1
 137 663 l 1
 137 -113 l 1
 270 -113 l 1
 287 -130 l 1
 230 -187 l 1
 80 -187 l 1
 63 -170 l 1
 63 680 l 1
 120 737 l 1
 270 737 l 1
 287 720 l 1
EndSplineSet
EndChar
StartChar: backslash
Encoding: 92 92 60
Width: 500
Flags: W
HStem: -187 21G<413 450>
LayerCount: 2
Back
SplineSet
450 -150 m 25
 50 700 l 1049
EndSplineSet
Fore
SplineSet
430 -187 m 1
 413 -170 l 1
 13 680 l 1
 70 737 l 1
 87 720 l 1
 487 -130 l 1
 430 -187 l 1
EndSplineSet
EndChar
StartChar: bracketright
Encoding: 93 93 61
Width: 300
Flags: W
HStem: -187 74<70 163> 663 74<70 163>
VStem: 163 74<-113 663>
LayerCount: 2
Back
SplineSet
50 700 m 25
 200 700 l 25
 200 -150 l 25
 50 -150 l 1033
EndSplineSet
Fore
SplineSet
13 680 m 1
 70 737 l 1
 220 737 l 1
 237 720 l 1
 237 -130 l 1
 180 -187 l 1
 30 -187 l 1
 13 -170 l 1
 70 -113 l 1
 163 -113 l 1
 163 663 l 1
 30 663 l 1
 13 680 l 1
EndSplineSet
EndChar
StartChar: asciicircum
Encoding: 94 94 62
Width: 600
Flags: W
LayerCount: 2
Back
SplineSet
100 300 m 25
 300 600 l 25
 500 300 l 1049
EndSplineSet
Fore
SplineSet
80 263 m 1
 63 280 l 1
 263 580 l 1
 320 637 l 1
 337 620 l 1
 537 320 l 1
 480 263 l 1
 463 280 l 1
 287 545 l 1
 137 320 l 1
 80 263 l 1
EndSplineSet
EndChar
StartChar: underscore
Encoding: 95 95 63
Width: 700
Flags: W
HStem: -187 74<120 580>
LayerCount: 2
Back
SplineSet
100 -150 m 25
 600 -150 l 1049
EndSplineSet
Fore
SplineSet
63 -170 m 1
 120 -113 l 1
 620 -113 l 1
 637 -130 l 1
 580 -187 l 1
 80 -187 l 1
 63 -170 l 1
EndSplineSet
EndChar
StartChar: grave
Encoding: 96 96 64
Width: 400
Flags: W
HStem: 513 224
VStem: 88 74<656.863 680>
LayerCount: 2
Back
SplineSet
125 700 m 17
 125 600 275 550 275 550 c 1049
EndSplineSet
Fore
SplineSet
145 737 m 1
 162 720 l 1
 162 691 175 665 193 645 c 0
 237 606 295 587 295 587 c 1
 312 570 l 1
 255 513 l 1
 255 513 188 536 144 580 c 2
 127 597 l 2
 105 619 88 647 88 680 c 1
 145 737 l 1
EndSplineSet
EndChar
StartChar: a
Encoding: 97 97 65
Width: 400
Flags: W
HStem: 188 74<199.383 263> 417 20G<175 295> 417 20G<175 295>
VStem: 63 74<95 155> 263 74<37.0945 71 105 188 262 342>
AnchorPoint: "blwmark" 200 0 basechar 0
AnchorPoint: "abvmark" 225 500 basechar 0
LayerCount: 2
Back
SplineSet
125 250 m 17
 100 325 l 1
 175 400 l 1
 300 375 l 1
 300 25 l 1
 325 0 l 1
 375 50 l 1049
300 125 m 25
 175 0 l 1
 100 75 l 1
 100 175 l 1
 175 250 l 1
 175 250 193.964297096 225 250 225 c 3
 300 225 l 1033
EndSplineSet
Fore
SplineSet
105 213 m 1xd8
 88 230 l 1
 63 305 l 1
 195 437 l 1
 320 412 l 1
 337 395 l 1
 337 245 l 1
 337 145 l 1
 337 45 l 2
 337 42 343 39 345 37 c 2
 395 87 l 1
 412 70 l 1
 305 -37 l 1
 263 5 l 1
 263 71 l 1
 155 -37 l 1
 63 55 l 1
 63 155 l 1
 195 287 l 1
 199 282 l 2
 207 275 226 263 263 262 c 1
 263 342 l 1
 155 363 l 1
 137 345 l 1
 162 270 l 1
 105 213 l 1xd8
263 188 m 1
 230 188 l 2
 184 188 163 205 157 211 c 2
 155 213 l 1
 137 195 l 1
 137 95 l 1
 195 37 l 1
 263 105 l 1
 263 188 l 1
EndSplineSet
Substitution2: "Stylistic alternates-1" ascript
EndChar
StartChar: b
Encoding: 98 98 66
Width: 400
Flags: W
HStem: 417 20G<200 240> 417 20G<200 240>
VStem: 63 74<80 320 354 585> 263 74<120 320>
AnchorPoint: "blwmark" 200 0 basechar 0
AnchorPoint: "abvmark" 200 700 basechar 0
LayerCount: 2
Back
SplineSet
80 625 m 25
 120 585 l 1049
100 605 m 9
 100 100 l 25
 200 0 l 25
 300 100 l 25
 300 300 l 25
 200 400 l 1
 100 300 l 1049
EndSplineSet
Fore
SplineSet
137 320 m 1x30
 137 120 l 2
 137 75 196 61 220 37 c 1
 263 80 l 1
 263 280 l 2
 263 325 204 339 180 363 c 1
 137 320 l 1x30
137 354 m 1
 220 437 l 1xb0
 337 320 l 1
 337 120 l 1
 180 -37 l 1
 63 80 l 1
 63 585 l 1
 43 605 l 1
 100 662 l 1
 137 625 l 1
 157 605 l 1
 137 585 l 1
 137 354 l 1
EndSplineSet
EndChar
StartChar: c
Encoding: 99 99 67
Width: 350
Flags: W
HStem: 417 20G<200 240> 417 20G<200 240>
VStem: 63 74<80 280>
AnchorPoint: "blwmark" 200 0 basechar 0
AnchorPoint: "abvmark" 200 500 basechar 0
LayerCount: 2
Back
SplineSet
300 300 m 9
 200 400 l 25
 100 300 l 25
 100 100 l 25
 200 0 l 25
 300 100 l 1041
EndSplineSet
Fore
SplineSet
337 320 m 1xa0
 280 263 l 1
 180 363 l 1
 137 320 l 1
 137 120 l 2
 137 75 196 61 220 37 c 1
 320 137 l 1
 337 120 l 1
 180 -37 l 1
 63 80 l 1
 63 280 l 1
 220 437 l 1
 337 320 l 1xa0
EndSplineSet
EndChar
StartChar: e
Encoding: 101 101 69
Width: 350
Flags: W
HStem: 417 20G<200 240> 417 20G<200 240>
VStem: 63 74<154 280>
AnchorPoint: "blwmark" 200 0 basechar 0
AnchorPoint: "abvmark" 200 500 basechar 0
LayerCount: 2
Back
SplineSet
300 100 m 9
 200 0 l 25
 100 100 l 25
 100 300 l 25
 200 400 l 25
 300 300 l 1
 100 100 l 1049
EndSplineSet
Fore
SplineSet
137 154 m 1x20
 263 280 l 1
 180 363 l 1
 137 320 l 1
 137 154 l 1x20
137 120 m 1
 220 37 l 1
 320 137 l 1
 337 120 l 1
 180 -37 l 1
 63 80 l 1
 63 280 l 1
 220 437 l 1xa0
 337 320 l 1
 137 120 l 1
EndSplineSet
EndChar
StartChar: g
Encoding: 103 103 71
Width: 400
Flags: W
HStem: -237 74<199.194 248.642> -187 74<97.4456 149.605> 417 20G<200 237 300 337> 417 20G<200 237 300 337>
VStem: 63 74<80 280> 263 74<-130 46 80 341>
AnchorPoint: "abvmark" 225 500 basechar 0
LayerCount: 2
Back
SplineSet
50 -200 m 17
 50 -200 87 -150 125 -150 c 8
 156 -150 193 -200 225 -200 c 24
 253 -200 300 -150 300 -150 c 9
 300 400 l 1
 300 400 278 360 250 360 c 24
 222 360 200 400 200 400 c 1
 100 300 l 25
 100 100 l 25
 200 0 l 25
 300 100 l 1041
EndSplineSet
Fore
SplineSet
263 80 m 1x0c
 263 341 l 2
 262 340 263 341 262 340 c 0
 262 339 l 0
 253 330 242 323 230 323 c 0
 218 323 207 331 198 340 c 2
 181 357 l 2
 180 358 178 359 177 360 c 2
 137 320 l 1
 137 120 l 2
 137 75 196 61 220 37 c 1
 263 80 l 1x0c
263 46 m 1
 180 -37 l 1
 63 80 l 1
 63 280 l 1
 220 437 l 1
 237 420 l 2
 237 420 240 414 246 406 c 0
 252 401 262 397 270 397 c 0
 274 397 278 397 282 399 c 2
 320 437 l 1
 337 420 l 1
 337 -130 l 2
 337 -130 336 -131 333 -134 c 2
 276 -191 l 2
 264 -203 228 -237 205 -237 c 0xac
 173 -237 136 -187 105 -187 c 0x4c
 90 -187 75 -195 63 -204 c 2
 30 -237 l 1x8c
 13 -220 l 1
 13 -220 19 -212 29 -202 c 2
 86 -145 l 2
 101 -130 123 -113 145 -113 c 0x4c
 176 -113 213 -163 245 -163 c 0x8c
 251 -163 257 -161 263 -158 c 1
 263 46 l 1
EndSplineSet
EndChar
StartChar: h
Encoding: 104 104 72
Width: 400
Flags: W
HStem: 417 20G<225 265> 417 20G<225 265>
VStem: 63 74<40 295 329 585> 263 74<40 338.448>
AnchorPoint: "blwmark" 200 0 basechar 0
AnchorPoint: "abvmark" 200 700 basechar 0
LayerCount: 2
Back
SplineSet
280 40 m 25
 320 0 l 1049
80 40 m 25
 120 0 l 1049
80 625 m 25
 120 585 l 1049
100 605 m 9
 100 20 l 1049
300 20 m 25
 300 325 l 25
 225 400 l 1
 100 275 l 1049
EndSplineSet
Fore
SplineSet
43 605 m 1xb0
 100 662 l 1
 128 633 l 1
 137 625 l 1
 157 605 l 1
 137 585 l 1
 137 329 l 1
 245 437 l 1
 337 345 l 1
 337 40 l 1
 357 20 l 1
 300 -37 l 1
 280 -17 l 1
 263 0 l 1
 243 20 l 1
 263 40 l 1
 263 305 l 2
 263 336 222 346 205 363 c 1
 137 295 l 1
 137 40 l 1
 157 20 l 1
 100 -37 l 1
 80 -17 l 1
 63 0 l 1
 43 20 l 1
 63 40 l 1
 63 255 l 1
 63 585 l 1
 43 605 l 1xb0
EndSplineSet
Substitution2: "Stylistic alternates-1" h.alt
EndChar
StartChar: i
Encoding: 105 105 73
Width: 200
Flags: W
HStem: 407 20G<81 116> 407 20G<81 116> 543 21G<83 114>
VStem: 73 54<31 369>
AnchorPoint: "blwmark" 100 0 basechar 0
LayerCount: 2
Back
SplineSet
110 630 m 25
 140 600 l 25
 110 570 l 1049
85 30 m 25
 115 0 l 25
 145 30 l 1049
115 370 m 25
 85 400 l 25
 55 370 l 1049
100 385 m 9
 100 15 l 1025
EndSplineSet
Fore
SplineSet
83 614 m 1x30
 126 657 l 1
 167 616 l 1
 94 543 l 1
 83 554 l 1
 113 584 l 1
 83 614 l 1x30
127 401 m 1
 142 386 l 1
 127 371 l 1
 127 31 l 1
 131 27 l 1
 161 57 l 1
 172 46 l 1
 99 -27 l 1
 84 -12 l 1
 73 -1 l 1
 58 14 l 1
 73 29 l 1
 73 369 l 1
 69 373 l 1
 39 343 l 1
 28 354 l 1
 101 427 l 1xb0
 116 412 l 1
 127 401 l 1
EndSplineSet
Substitution2: "Dotless forms-1" dotlessi
EndChar
StartChar: j
Encoding: 106 106 74
Width: 200
Flags: W
HStem: 407 20G<81 116> 407 20G<81 116> 543 21G<83 114>
VStem: 73 54<-84 369>
LayerCount: 2
Back
SplineSet
110 630 m 25
 140 600 l 25
 110 570 l 1049
115 370 m 25
 85 400 l 25
 55 370 l 1049
100 385 m 1
 100 -100 l 9
 70 -130 l 1049
EndSplineSet
Fore
SplineSet
83 614 m 1x30
 126 657 l 1
 167 616 l 1
 94 543 l 1
 83 554 l 1
 113 584 l 1
 83 614 l 1x30
127 401 m 1
 142 386 l 1
 127 371 l 1
 127 -84 l 1
 54 -157 l 1
 43 -146 l 1
 73 -116 l 1
 73 369 l 1
 69 373 l 1
 39 343 l 1
 28 354 l 1
 101 427 l 1xb0
 116 412 l 1
 127 401 l 1
EndSplineSet
Substitution2: "Dotless forms-1" dotlessj
EndChar
StartChar: k
Encoding: 107 107 75
Width: 400
Flags: W
HStem: 437 20G<280 320> 637 20G<80 120>
VStem: 63 74<45 206 249 580> 263 74<45 176 370 380>
AnchorPoint: "blwmark" 200 0 basechar 0
AnchorPoint: "abvmark" 200 700 basechar 0
LayerCount: 2
Back
SplineSet
280 420 m 25
 320 380 l 1049
80 620 m 25
 120 580 l 1049
80 620 m 25
 120 580 l 1049
100 200 m 1
 300 350 l 9
 300 400 l 1049
200 275 m 1
 300 200 l 1
 300 25 l 1025
280 45 m 25
 320 5 l 1049
80 45 m 25
 120 5 l 1049
80 620 m 25
 120 580 l 1049
100 600 m 9
 100 25 l 1049
EndSplineSet
Fore
SplineSet
243 400 m 1
 300 457 l 1
 320 437 l 1
 337 420 l 1
 357 400 l 1
 337 380 l 1
 337 370 l 1
 280 313 l 1
 249 290 l 1
 320 237 l 1
 337 220 l 1
 337 45 l 1
 357 25 l 1
 300 -32 l 1
 280 -12 l 1
 263 5 l 1
 243 25 l 1
 263 45 l 1
 263 176 l 1
 180 238 l 1
 137 206 l 1
 137 45 l 1
 157 25 l 1
 100 -32 l 1
 80 -12 l 1
 63 5 l 1
 43 25 l 1
 63 45 l 1
 63 180 l 1
 63 580 l 1
 43 600 l 1
 100 657 l 1
 120 637 l 1
 137 620 l 1
 157 600 l 1
 137 580 l 1
 137 249 l 1
 220 312 l 1
 263 344 l 1
 263 380 l 1
 243 400 l 1
EndSplineSet
EndChar
StartChar: l
Encoding: 108 108 76
Width: 200
Flags: W
HStem: 637 20G<80 120>
VStem: 63 74<40 580>
AnchorPoint: "blwmark" 100 0 basechar 0
AnchorPoint: "abvmark" 100 700 basechar 0
LayerCount: 2
Back
SplineSet
80 40 m 25
 120 0 l 25
 160 40 l 1049
80 620 m 25
 120 580 l 1049
100 600 m 9
 100 20 l 1049
EndSplineSet
Fore
SplineSet
43 600 m 1
 100 657 l 1
 120 637 l 1
 137 620 l 1
 157 600 l 1
 137 580 l 1
 137 40 l 1
 140 37 l 1
 180 77 l 1
 197 60 l 1
 100 -37 l 1
 80 -17 l 1
 63 0 l 1
 43 20 l 1
 63 40 l 1
 63 580 l 1
 43 600 l 1
EndSplineSet
EndChar
StartChar: m
Encoding: 109 109 77
Width: 600
Flags: W
HStem: 417 20G<80 120 225 265 425 465> 417 20G<80 120 225 265 425 465>
VStem: 63 74<40 295 329 360> 263 74<40 295> 463 74<40 338.448>
CounterMasks: 1 38
AnchorPoint: "blwmark" 300 0 basechar 0
AnchorPoint: "abvmark" 300 500 basechar 0
LayerCount: 2
Back
SplineSet
480 40 m 25
 520 0 l 1049
500 20 m 1
 500 325 l 25
 425 400 l 1
 300 275 l 1049
280 40 m 25
 320 0 l 1049
300 20 m 1
 300 325 l 25
 225 400 l 1
 100 275 l 1049
80 40 m 25
 120 0 l 1049
120 360 m 25
 80 400 l 1049
100 380 m 9
 100 20 l 1025
EndSplineSet
Fore
SplineSet
137 400 m 1xb8
 157 380 l 1
 137 360 l 1
 137 329 l 1
 245 437 l 1
 337 345 l 1
 337 329 l 1
 445 437 l 1
 537 345 l 1
 537 40 l 1
 557 20 l 1
 500 -37 l 1
 480 -17 l 1
 463 0 l 1
 443 20 l 1
 463 40 l 1
 463 305 l 2
 463 336 422 346 405 363 c 1
 337 295 l 1
 337 40 l 1
 357 20 l 1
 300 -37 l 1
 280 -17 l 1
 263 0 l 1
 243 20 l 1
 263 40 l 1
 263 255 l 1
 263 305 l 2
 263 336 222 346 205 363 c 1
 137 295 l 1
 137 40 l 1
 157 20 l 1
 100 -37 l 1
 80 -17 l 1
 63 0 l 1
 43 20 l 1
 63 40 l 1
 63 255 l 1
 63 360 l 1
 43 380 l 1
 100 437 l 1
 120 417 l 1
 137 400 l 1xb8
EndSplineSet
Substitution2: "Stylistic alternates-1" m.alt
EndChar
StartChar: n
Encoding: 110 110 78
Width: 400
Flags: W
HStem: 417 20G<80 120 225 265> 417 20G<80 120 225 265>
VStem: 63 74<40 295 329 360> 263 74<40 338.448>
AnchorPoint: "blwmark" 200 0 basechar 0
AnchorPoint: "abvmark" 200 500 basechar 0
LayerCount: 2
Back
SplineSet
280 40 m 25
 320 0 l 1049
300 20 m 1
 300 325 l 25
 225 400 l 1
 100 275 l 1049
80 40 m 25
 120 0 l 1049
120 360 m 25
 80 400 l 1049
100 380 m 9
 100 20 l 1025
EndSplineSet
Fore
SplineSet
137 400 m 1xb0
 157 380 l 1
 137 360 l 1
 137 329 l 1
 245 437 l 1
 337 345 l 1
 337 40 l 1
 357 20 l 1
 300 -37 l 1
 280 -17 l 1
 263 0 l 1
 243 20 l 1
 263 40 l 1
 263 305 l 2
 263 336 222 346 205 363 c 1
 137 295 l 1
 137 40 l 1
 157 20 l 1
 100 -37 l 1
 80 -17 l 1
 63 0 l 1
 43 20 l 1
 63 40 l 1
 63 255 l 1
 63 360 l 1
 43 380 l 1
 100 437 l 1
 120 417 l 1
 137 400 l 1xb0
EndSplineSet
Substitution2: "Stylistic alternates-1" n.alt
EndChar
StartChar: o
Encoding: 111 111 79
Width: 400
Flags: W
HStem: 417 20G<200 240> 417 20G<200 240>
VStem: 63 74<80 280> 263 74<120 320>
AnchorPoint: "blwmark" 200 0 basechar 0
AnchorPoint: "abvmark" 200 500 basechar 0
LayerCount: 2
Back
SplineSet
200 400 m 25
 100 300 l 25
 100 100 l 25
 200 0 l 25
 300 100 l 25
 300 300 l 25
 200 400 l 25
EndSplineSet
Fore
SplineSet
180 363 m 1x30
 137 320 l 1
 137 120 l 2
 137 75 196 61 220 37 c 1
 263 80 l 1
 263 280 l 2
 263 325 204 339 180 363 c 1x30
63 280 m 1
 220 437 l 1xb0
 337 320 l 1
 337 120 l 1
 180 -37 l 1
 63 80 l 1
 63 280 l 1
EndSplineSet
EndChar
StartChar: p
Encoding: 112 112 80
Width: 400
Flags: W
HStem: -187 21G<63 100> 417 20G<80 120 200 240> 417 20G<80 120 200 240>
VStem: 63 74<-130 -7 86 320 354 360> 263 74<120 320>
AnchorPoint: "abvmark" 200 500 basechar 0
LayerCount: 2
Back
SplineSet
50 0 m 1
 50 0 96 50 125 50 c 0
 154 50 200 0 200 0 c 9
 300 100 l 1
 300 300 l 25
 200 400 l 1
 100 300 l 1049
80 400 m 25
 120 360 l 1049
100 380 m 1
 100 -150 l 1025
EndSplineSet
Fore
SplineSet
43 380 m 1xd8
 100 437 l 1
 120 417 l 1
 137 400 l 1
 157 380 l 1
 137 360 l 1
 137 354 l 1
 220 437 l 1
 337 320 l 1
 337 120 l 1
 180 -37 l 1
 168 -24 l 2
 160 -16 149 -7 137 1 c 1
 137 -130 l 1
 80 -187 l 1
 63 -170 l 1
 63 -7 l 1
 55 -13 49 -18 43 -24 c 2
 30 -37 l 1
 13 -20 l 1
 13 -20 15 -18 19 -14 c 2
 63 30 l 1
 63 280 l 1
 63 360 l 1
 43 380 l 1xd8
137 320 m 1
 137 86 l 2
 140 87 142 87 145 87 c 0
 168 87 201 56 214 43 c 2
 220 37 l 1
 263 80 l 1
 263 280 l 2
 263 325 204 339 180 363 c 1
 137 320 l 1
EndSplineSet
EndChar
StartChar: q
Encoding: 113 113 81
Width: 400
Flags: W
HStem: -177 21G<273 304> 333 54<232.603 271.953> 407 20G<196 227 296 327> 407 20G<196 227 296 327>
VStem: 73 54<116 284> 273 54<-134 62 84 356>
AnchorPoint: "abvmark" 225 500 basechar 0
LayerCount: 2
Back
SplineSet
300 100 m 9
 200 0 l 25
 100 100 l 25
 100 300 l 25
 200 400 l 1
 200 400 222 360 250 360 c 24
 278 360 300 400 300 400 c 9
 300 -150 l 1049
EndSplineSet
Fore
SplineSet
273 84 m 1xcc
 273 356 l 1
 266 349 l 2
 257 340 246 333 234 333 c 0
 222 333 211 340 202 349 c 2
 191 361 l 2
 188 364 185 368 182 371 c 1
 127 316 l 1
 127 116 l 1
 216 27 l 1
 273 84 l 1xcc
273 62 m 1
 184 -27 l 1
 73 84 l 1
 73 284 l 1
 216 427 l 1
 227 416 l 1
 227 416 231 407 239 398 c 0
 247 392 256 387 266 387 c 0
 270 387 274 388 278 389 c 2
 316 427 l 1xec
 327 416 l 1
 327 -134 l 1
 284 -177 l 1
 273 -166 l 1
 273 62 l 1
EndSplineSet
EndChar
StartChar: r
Encoding: 114 114 82
Width: 300
Flags: W
HStem: 417 20G<80 120 200 240> 417 20G<80 120 200 240>
VStem: 63 74<40 320 354 360>
AnchorPoint: "blwmark" 150 0 basechar 0
AnchorPoint: "abvmark" 150 500 basechar 0
LayerCount: 2
Back
SplineSet
250 350 m 25
 200 400 l 25
 100 300 l 1049
80 40 m 25
 120 0 l 1049
80 400 m 25
 120 360 l 1049
100 380 m 9
 100 20 l 1025
EndSplineSet
Fore
SplineSet
43 380 m 1xa0
 100 437 l 1
 120 417 l 1
 137 400 l 1
 157 380 l 1
 137 360 l 1
 137 354 l 1
 220 437 l 1
 287 370 l 1
 230 313 l 1
 180 363 l 1
 137 320 l 1
 137 40 l 1
 157 20 l 1
 100 -37 l 1
 80 -17 l 1
 63 0 l 1
 43 20 l 1
 63 40 l 1
 63 280 l 1
 63 360 l 1
 43 380 l 1xa0
EndSplineSet
EndChar
StartChar: s
Encoding: 115 115 83
Width: 400
Flags: W
HStem: 13 74<101.031 150.435> 313 74<245.813 298.604> 417 20G<200 237 361 387> 417 20G<200 237 361 387>
AnchorPoint: "blwmark" 200 0 basechar 0
AnchorPoint: "abvmark" 200 500 basechar 0
LayerCount: 2
Back
SplineSet
350 400 m 17
 350 400 303 350 275 350 c 24
 231 350 200 400 200 400 c 9
 100 300 l 1
 100 240 l 1
 300 160 l 1
 300 100 l 1
 200 0 l 17
 200 0 154 50 125 50 c 24
 96 50 50 0 50 0 c 1025
EndSplineSet
Fore
SplineSet
370 437 m 1xe0
 387 420 l 1
 387 420 386 419 383 416 c 2
 326 359 l 2
 314 347 278 313 255 313 c 0
 231 313 211 328 198 341 c 2
 181 358 l 2
 180 359 179 360 178 361 c 2
 137 320 l 1
 137 270 l 1
 320 197 l 1
 337 180 l 1
 337 120 l 1
 180 -37 l 1
 168 -24 l 2
 152 -9 125 13 105 13 c 0
 85 13 59 -9 43 -24 c 2
 30 -37 l 1
 13 -20 l 1
 13 -20 15 -18 19 -14 c 2
 76 43 l 2
 89 56 122 87 145 87 c 0
 168 87 200 57 214 43 c 0
 220 37 l 1
 263 80 l 1
 263 130 l 1
 80 203 l 1
 63 220 l 1
 63 280 l 1
 220 437 l 1
 237 420 l 2
 237 420 240 415 247 407 c 0
 259 397 276 387 295 387 c 0
 315 387 345 413 361 428 c 2
 370 437 l 1xe0
EndSplineSet
EndChar
StartChar: t
Encoding: 116 116 84
Width: 325
Flags: W
HStem: 363 74<70 88 162 230> 567 20G<125 162>
VStem: 88 74<45.2178 363 437 530>
AnchorPoint: "blwmark" 175 0 basechar 0
AnchorPoint: "abvmark" 150 650 basechar 0
LayerCount: 2
Back
SplineSet
50 400 m 25
 250 400 l 1049
125 550 m 1
 125 50 l 1
 175 0 l 1
 275 100 l 1025
EndSplineSet
Fore
SplineSet
145 587 m 1
 162 570 l 1
 162 437 l 1
 270 437 l 1
 287 420 l 1
 230 363 l 1
 162 363 l 1
 162 70 l 2
 162 53 186 46 195 37 c 1
 295 137 l 1
 312 120 l 1
 155 -37 l 1
 88 30 l 1
 88 363 l 1
 30 363 l 1
 13 380 l 1
 70 437 l 1
 88 437 l 1
 88 530 l 1
 145 587 l 1
EndSplineSet
EndChar
StartChar: u
Encoding: 117 117 85
Width: 400
Flags: W
HStem: 417 20G<80 120 280 320> 417 20G<80 120 280 320>
VStem: 63 74<61.5521 360> 263 74<45 71 105 360>
AnchorPoint: "blwmark" 200 0 basechar 0
AnchorPoint: "abvmark" 200 500 basechar 0
LayerCount: 2
Back
SplineSet
120 360 m 25
 80 400 l 1049
375 50 m 25
 325 0 l 1
 300 25 l 17
 300 380 l 1025
320 360 m 25
 280 400 l 1049
100 380 m 25
 100 75 l 1
 175 0 l 25
 300 125 l 1049
EndSplineSet
Fore
SplineSet
395 87 m 1xb0
 412 70 l 1
 305 -37 l 1
 263 5 l 1
 263 71 l 1
 155 -37 l 1
 63 55 l 1
 63 360 l 1
 43 380 l 1
 100 437 l 1
 120 417 l 1
 137 400 l 1
 157 380 l 1
 137 360 l 1
 137 95 l 2
 137 64 178 54 195 37 c 1
 263 105 l 1
 263 360 l 1
 243 380 l 1
 300 437 l 1
 320 417 l 1
 337 400 l 1
 357 380 l 1
 337 360 l 1
 337 145 l 1
 337 45 l 1
 345 37 l 1
 395 87 l 1xb0
EndSplineSet
EndChar
StartChar: v
Encoding: 118 118 86
Width: 400
Flags: W
HStem: 417 20G<80 120> 437 130G<80 120 324.5 342>
VStem: 63 74<80 360> 213 74<428.429 502.203> 263 74<120 352>
AnchorPoint: "blwmark" 200 0 basechar 0
LayerCount: 2
Back
SplineSet
120 360 m 25
 80 400 l 1049
100 380 m 25
 100 100 l 1
 200 0 l 25
 300 100 l 1
 300 375 l 25
 310 356 250 423 250 472 c 8
 250 516.5 303.5 550 305 550 c 1033
EndSplineSet
Fore
SplineSet
137 400 m 1xa8
 157 380 l 1
 137 360 l 1
 137 120 l 2
 137 75 196 61 220 37 c 1
 263 80 l 1
 263 352 l 1xa8
 260 355 l 2
 248 367 213 415 213 452 c 0
 213 475 227 495 241 509 c 2
 298 566 l 2
 299 566 l 2
 312 579 324 587 325 587 c 2
 342 570 l 1
 296 524 l 2
 291 515 287 504 287 492 c 0xb0
 287 465 304 433 319 412 c 1
 337 395 l 2
 338 393 338 392 338 392 c 0
 337 391 338 392 337 391 c 2
 337 120 l 1
 180 -37 l 1
 63 80 l 1
 63 360 l 1
 43 380 l 1
 100 437 l 1
 120 417 l 1
 137 400 l 1xa8
EndSplineSet
Substitution2: "Dotless forms-1" v.alt
EndChar
StartChar: w
Encoding: 119 119 87
Width: 600
Flags: W
HStem: 407 20G<81 116 281 316> 407 20G<81 116 281 316 520.5 532>
VStem: 73 54<84 369> 273 54<84 369> 423 54<424.721 508.345> 473 54<116 378>
AnchorPoint: "blwmark" 300 0 basechar 0
LayerCount: 2
Back
SplineSet
315 370 m 25
 285 400 l 1049
300 385 m 25
 300 100 l 1
 400 0 l 25
 500 100 l 1
 500 375 l 25
 520 337 450 423 450 472 c 8
 450 519 503 550 505 550 c 1033
115 370 m 25
 85 400 l 1049
100 385 m 25
 100 100 l 1
 200 0 l 25
 300 100 l 1025
EndSplineSet
Fore
SplineSet
127 401 m 1xb4
 142 386 l 1
 127 371 l 1
 127 116 l 2
 127 66 190 53 216 27 c 1
 273 84 l 1
 273 369 l 1
 258 384 l 1
 301 427 l 1
 316 412 l 1
 327 401 l 1
 342 386 l 1
 327 371 l 1
 327 116 l 2
 327 66 390 53 416 27 c 1
 473 84 l 1
 473 352 l 1xb4
 461 364 423 420 423 456 c 0
 423 480 436 500 450 514 c 2
 493 556 l 2
 506 569 520 577 521 577 c 2
 532 566 l 1
 489 523 l 2
 489 523 488 523 486 522 c 0
 481 512 477 501 477 488 c 0xb8
 477 461 498 423 514 400 c 1
 516 402 l 1
 527 391 l 2
 530 385 531 382 530 381 c 2
 527 378 l 1
 527 116 l 1
 384 -27 l 1
 284 73 l 1
 184 -27 l 1
 73 84 l 1
 73 369 l 1
 58 384 l 1
 101 427 l 1
 116 412 l 1
 127 401 l 1xb4
EndSplineSet
Substitution2: "Dotless forms-1" w.alt
EndChar
StartChar: x
Encoding: 120 120 88
Width: 400
Flags: W
HStem: 188 24<293.215 299.833> 417 20G<100 140 300 340> 417 20G<100 140 300 340>
VStem: 163 74<120 148.286 251.3 280>
AnchorPoint: "blwmark" 200 0 basechar 0
AnchorPoint: "abvmark" 200 500 basechar 0
LayerCount: 2
Back
SplineSet
75 175 m 25
 75 175 122 225 150 225 c 24
 194 225 206 175 250 175 c 24
 278 175 325 225 326 225 c 1049
200 300 m 9
 300 400 l 25
 350 350 l 1049
200 100 m 9
 300 0 l 1
 350 50 l 1049
50 350 m 25
 100 400 l 25
 200 300 l 25
 200 100 l 25
 100 0 l 25
 50 50 l 1049
EndSplineSet
Fore
SplineSet
30 313 m 1xd0
 13 330 l 1
 120 437 l 1
 220 337 l 1
 320 437 l 1
 387 370 l 1
 330 313 l 1
 280 363 l 1
 237 320 l 1
 237 223 l 1
 246 217 257 212 270 212 c 0
 298 212 345 262 346 262 c 2
 363 245 l 1
 306 188 l 2
 305 188 265 145 237 139 c 1
 237 120 l 1
 320 37 l 1
 370 87 l 1
 387 70 l 1
 280 -37 l 1
 180 63 l 1
 80 -37 l 1
 13 30 l 1
 70 87 l 1
 120 37 l 1
 163 80 l 1
 163 177 l 1
 154 183 143 188 130 188 c 0
 110 188 80 162 64 147 c 2
 55 138 l 1
 38 155 l 1
 38 155 39 156 42 159 c 2
 99 216 l 2
 110 227 140 256 163 261 c 1
 163 280 l 1
 80 363 l 1
 30 313 l 1xd0
EndSplineSet
EndChar
StartChar: y
Encoding: 121 121 89
Width: 400
Flags: W
HStem: -237 74<199.69 247.239> -187 74<97.4456 148.765> 417 20G<80 120 280 320> 417 20G<80 120 280 320>
VStem: 63 74<120 360> 263 74<-130 46 80 360>
AnchorPoint: "abvmark" 200 500 basechar 0
LayerCount: 2
Back
SplineSet
120 360 m 25
 80 400 l 1049
320 360 m 25
 280 400 l 1049
50 -200 m 17
 50 -200 87 -150 125 -150 c 8
 149.5 -150 199 -200 225 -200 c 24
 249.5 -200 300 -150 300 -150 c 1
 300 380 l 1025
300 100 m 9
 200 0 l 25
 100 100 l 1
 100 380 l 1049
EndSplineSet
Fore
SplineSet
30 -237 m 1x8c
 13 -220 l 1
 13 -220 19 -212 29 -202 c 2
 86 -145 l 2
 101 -130 123 -113 145 -113 c 0x4c
 169 -113 219 -163 245 -163 c 0x8c
 250 -163 257 -160 263 -157 c 1
 263 46 l 1
 180 -37 l 1
 63 80 l 1
 63 360 l 1
 43 380 l 1
 100 437 l 1
 120 417 l 1
 137 400 l 1
 157 380 l 1
 137 360 l 1
 137 120 l 1
 220 37 l 1
 263 80 l 1
 263 360 l 1
 243 380 l 1
 300 437 l 1
 320 417 l 1
 337 400 l 1
 357 380 l 1
 337 360 l 1
 337 120 l 1
 337 -130 l 1
 280 -187 l 1x6c
 280 -187 229 -237 205 -237 c 0x8c
 179 -237 129 -187 105 -187 c 0x4c
 90 -187 75 -195 63 -204 c 2
 30 -237 l 1x8c
EndSplineSet
EndChar
StartChar: z
Encoding: 122 122 90
Width: 350
Flags: W
HStem: -237 74<149.194 198.72> -187 74<47.1397 99.6054> 313 74<95.4264 148.692> 417 20G<50 87 211 240> 417 20G<50 87 211 240>
VStem: 213 74<-130 75>
AnchorPoint: "abvmark" 150 500 basechar 0
LayerCount: 2
Back
SplineSet
50 400 m 17
 50 400 81 350 125 350 c 0
 153 350 200 400 200 400 c 1
 250 350 l 1
 100 200 l 1
 250 100 l 1
 250 -150 l 1
 250 -150 203 -200 175 -200 c 0
 143 -200 106 -150 75 -150 c 16
 37 -150 0 -200 0 -200 c 1025
EndSplineSet
Fore
SplineSet
70 437 m 1xb4
 87 420 l 1
 87 420 91 414 97 407 c 0
 110 396 126 387 145 387 c 0
 166 387 196 414 211 428 c 2
 220 437 l 1
 287 370 l 1
 140 223 l 1
 270 137 l 1
 287 120 l 1
 287 -130 l 1
 287 -130 286 -131 283 -134 c 2
 226 -191 l 2
 214 -203 178 -237 155 -237 c 0xb4
 123 -237 86 -187 55 -187 c 0x64
 40 -187 24 -195 13 -204 c 2
 -20 -237 l 1xa4
 -37 -220 l 1
 -37 -220 -31 -212 -21 -202 c 2
 36 -145 l 2
 50 -131 72 -113 95 -113 c 0x64
 126 -113 163 -163 195 -163 c 0
 201 -163 206 -162 213 -158 c 1
 213 75 l 1
 80 163 l 1
 63 180 l 1
 213 330 l 1
 180 363 l 1
 176 359 l 2
 164 347 128 313 105 313 c 0
 82 313 62 327 49 340 c 0
 48 341 l 2
 31 358 l 2
 19 370 13 380 13 380 c 1
 70 437 l 1xb4
EndSplineSet
EndChar
StartChar: braceleft
Encoding: 123 123 91
Width: 300
Flags: W
HStem: -187 21G<190 250>
VStem: 113 74<-72 172 370 580>
LayerCount: 2
Back
SplineSet
250 700 m 25
 150 600 l 1
 150 350 l 25
 50 250 l 25
 150 200 l 25
 150 -100 l 1
 250 -150 l 1049
EndSplineSet
Fore
SplineSet
270 737 m 1
 287 720 l 1
 187 620 l 1
 187 370 l 1
 92 275 l 1
 170 237 l 1
 187 220 l 1
 187 -72 l 1
 270 -113 l 1
 287 -130 l 1
 230 -187 l 1
 130 -137 l 1
 113 -120 l 1
 113 172 l 1
 30 213 l 1
 13 230 l 1
 113 330 l 1
 113 580 l 1
 270 737 l 1
EndSplineSet
EndChar
StartChar: bar
Encoding: 124 124 92
Width: 250
Flags: W
HStem: -177 21G<98 129>
VStem: 98 54<-134 684>
LayerCount: 2
Back
SplineSet
125 -150 m 25
 125 700 l 1049
EndSplineSet
Fore
SplineSet
109 -177 m 1
 98 -166 l 1
 98 684 l 1
 141 727 l 1
 152 716 l 1
 152 -134 l 1
 109 -177 l 1
EndSplineSet
EndChar
StartChar: braceright
Encoding: 125 125 93
Width: 300
Flags: W
HStem: -177 21G<23 54>
VStem: 123 54<-34 184 371 629>
LayerCount: 2
Back
SplineSet
50 700 m 25
 150 650 l 1
 150 350 l 25
 250 300 l 25
 150 200 l 25
 150 -50 l 1
 50 -150 l 1049
EndSplineSet
Fore
SplineSet
23 684 m 1
 66 727 l 1
 166 677 l 1
 177 666 l 1
 177 371 l 1
 266 327 l 1
 277 316 l 1
 177 216 l 1
 177 -34 l 1
 34 -177 l 1
 23 -166 l 1
 123 -66 l 1
 123 184 l 1
 219 281 l 1
 134 323 l 1
 123 334 l 1
 123 629 l 1
 34 673 l 1
 23 684 l 1
EndSplineSet
EndChar
StartChar: asciitilde
Encoding: 126 126 94
Width: 700
Flags: W
HStem: 263 74<290.821 541.061> 288 74<158.939 409.179>
LayerCount: 2
Back
SplineSet
100 275 m 17
 100 275 156 325 200 325 c 27
 317 325 383 300 500 300 c 27
 544 300 600 350 600 350 c 1033
EndSplineSet
Fore
SplineSet
63 255 m 1x40
 120 312 l 1
 120 312 176 362 220 362 c 0x40
 337 362 403 337 520 337 c 0
 564 337 620 387 620 387 c 1
 637 370 l 1
 580 313 l 1
 580 313 524 263 480 263 c 0x80
 363 263 297 288 180 288 c 0
 136 288 80 238 80 238 c 1
 63 255 l 1x40
EndSplineSet
EndChar
StartChar: exclamdown
Encoding: 161 161 200
Width: 300
Flags: W
HStem: 417 20G<130 170> 417 20G<130 170>
VStem: 103 94<-129.978 138.229> 113 74<-13.9875 185>
LayerCount: 2
Back
SplineSet
170 360 m 25
 130 400 l 1049
175 -150 m 1
 175 -150 161 -120 160 -100 c 24
 152 19 150 205 150 205 c 1
 150 205 147 19 140 -100 c 24
 138.5 -139 125 -200 125 -200 c 9
 175 -150 l 1
EndSplineSet
Fore
SplineSet
212 -130 m 1x20
 105 -237 l 1
 88 -220 l 1
 88 -220 101 -159 103 -120 c 0x20
 110 -1 113 185 113 185 c 1
 170 242 l 1
 187 225 l 1x10
 187 225 189 39 197 -80 c 0
 198 -100 212 -130 212 -130 c 1x20
207 380 m 1
 150 323 l 1
 93 380 l 1
 150 437 l 1x80
 207 380 l 1
EndSplineSet
EndChar
StartChar: cent
Encoding: 162 162 202
Width: 450
Flags: W
HStem: -187 21G<213 250>
VStem: 63 74<125 230> 213 74<-130 -25 74 326 425 580>
LayerCount: 2
Back
SplineSet
250 600 m 25
 250 -150 l 1049
400 300 m 9
 250 400 l 25
 100 250 l 25
 100 100 l 25
 250 0 l 25
 400 100 l 1041
EndSplineSet
Fore
SplineSet
437 320 m 1
 380 263 l 1
 287 326 l 1
 287 48 l 1
 420 137 l 1
 437 120 l 1
 380 63 l 1
 287 1 l 1
 287 -130 l 1
 230 -187 l 1
 213 -170 l 1
 213 -25 l 1
 80 63 l 1
 63 80 l 1
 63 230 l 1
 213 380 l 1
 213 580 l 1
 270 637 l 1
 287 620 l 1
 287 425 l 1
 420 337 l 1
 437 320 l 1
213 346 m 1
 188 321 143 276 137 270 c 1
 137 125 l 1
 213 74 l 1
 213 346 l 1
EndSplineSet
EndChar
StartChar: sterling
Encoding: 163 163 203
Width: 550
Flags: W
HStem: 13 74<99.3918 163 203 318.377> 263 74<238.333 351.624> 563 74<244.698 315.589> 563 49<347.837 381>
VStem: 163 74<120 274 352.151 554.562>
LayerCount: 2
Back
SplineSet
401 600 m 1
 400 600 378 575 350 575 c 3
 328 575 310 600 274 600 c 3
 234 600 200 550 200 550 c 1
 200 100 l 1025
500 101 m 1
 400 0 l 17
 400 0 349 50 150 50 c 3
 81 50 50 0 50 0 c 1033
100 275 m 17
 100 275 140 325 175 325 c 27
 234 325 266 300 325 300 c 27
 360 300 400 350 400 350 c 1033
EndSplineSet
Fore
SplineSet
80 238 m 1xe8
 63 255 l 1
 63 255 69 262 77 270 c 2
 134 327 l 2
 142 335 152 344 163 351 c 1
 163 530 l 1
 163 530 170 540 181 551 c 2
 237 608 l 2
 251 622 272 637 294 637 c 0xe8
 330 637 348 612 370 612 c 0xd8
 398 612 420 637 421 637 c 2xe8
 438 620 l 1
 381 563 l 2xd8
 380 563 358 538 330 538 c 0
 308 538 290 563 254 563 c 0
 248 563 242 562 237 560 c 1
 237 357 l 1
 273 350 302 337 345 337 c 0
 361 337 378 347 391 358 c 2
 420 387 l 1
 437 370 l 2
 437 370 432 364 424 355 c 2
 423 355 l 2
 366 298 l 2
 351 283 327 263 305 263 c 0
 278 263 258 268 237 274 c 1
 237 120 l 1
 203 86 l 1
 366 81 416 41 420 37 c 1
 463 81 l 1
 520 138 l 1
 537 121 l 1
 437 20 l 1
 380 -37 l 1
 380 -37 329 13 130 13 c 0
 97 13 74 2 58 -9 c 2
 30 -37 l 1
 13 -20 l 2
 13 -20 17 -14 25 -6 c 2
 25 -5 l 2
 82 51 l 2
 96 65 122 85 163 87 c 1
 163 288 l 2
 160 288 158 288 155 288 c 0
 139 288 123 279 109 267 c 2
 80 238 l 1xe8
EndSplineSet
EndChar
StartChar: currency
Encoding: 164 164 207
Width: 500
Flags: W
HStem: 448 21G<123 154> 507 20G<221 275.444>
VStem: 73 54<220 359> 373 54<241 380>
LayerCount: 2
Back
SplineSet
450 0 m 25
 350 125 l 1049
50 0 m 25
 150 125 l 1049
450 600 m 25
 350 475 l 1049
50 600 m 25
 150 475 l 1049
225 500 m 25
 100 375 l 25
 100 200 l 25
 275 100 l 25
 400 225 l 25
 400 400 l 25
 225 500 l 25
EndSplineSet
Fore
SplineSet
209 473 m 1
 127 391 l 1
 127 220 l 1
 291 127 l 2
 291 127 367 203 373 209 c 1
 373 380 l 1
 209 473 l 1
73 359 m 1
 241 527 l 1
 334 473 l 1
 423 584 l 1
 466 627 l 1
 477 616 l 1
 377 491 l 1
 350 464 l 1
 416 427 l 1
 427 416 l 1
 427 241 l 1
 259 73 l 1
 166 127 l 1
 77 16 l 1
 34 -27 l 1
 23 -16 l 1
 123 109 l 1
 150 136 l 1
 84 173 l 1
 73 184 l 1
 73 359 l 1
66 627 m 1
 77 616 l 1
 177 491 l 1
 134 448 l 1
 123 459 l 1
 23 584 l 1
 66 627 l 1
434 -27 m 1
 423 -16 l 1
 323 109 l 1
 366 152 l 1
 377 141 l 1
 477 16 l 1
 434 -27 l 1
EndSplineSet
EndChar
StartChar: yen
Encoding: 165 165 204
Width: 650
Flags: W
HStem: -177 54<104.82 349.602> -27 54<312.093 448 502 555.939> -2 54<193.595 432.252> 523 21G<23 54> 573 25<83 97.9505>
VStem: 173 54<291 560.881> 448 54<-84 -27 32 262 284 541>
LayerCount: 2
Back
SplineSet
50 550 m 1
 50 550 84 600 124 600 c 3
 160 600 178 575 200 575 c 1
 200 275 l 1025
100 200 m 17
 100 200 138 250 175 250 c 3
 310 250 325 150 325 150 c 1
 475 300 l 1025
50 -200 m 17
 50 -200 66 -150 250 -150 c 3
 412 -150 375 -200 375 -200 c 9
 475 -100 l 1
 475 575 l 1025
450 600 m 25
 500 550 l 1049
150 -25 m 17
 150 -25 190 25 225 25 c 27
 342 25 408 0 525 0 c 27
 560 0 600 50 600 50 c 1033
EndSplineSet
Fore
SplineSet
134 -52 m 1xbe
 123 -41 l 1
 123 -41 129 -34 137 -26 c 2
 179 17 l 2
 180 18 l 0
 195 33 219 52 241 52 c 0xbe
 324 52 380 39 448 32 c 1
 448 262 l 1
 309 123 l 1
 298 134 l 1
 298 134 294 161 271 187 c 0
 249 206 214 223 159 223 c 0
 144 223 129 215 116 205 c 2
 84 173 l 1
 73 184 l 1
 73 184 79 193 89 202 c 2
 131 244 l 2
 142 255 157 268 173 274 c 1
 173 550 l 1
 156 556 138 573 108 573 c 0
 95 573 83 568 71 560 c 2
 34 523 l 1
 23 534 l 1
 23 534 30 544 41 555 c 2
 83 598 l 2
 84 598 l 0
 98 612 118 627 140 627 c 0
 176 627 194 602 216 602 c 1
 227 591 l 1
 227 291 l 1
 212 276 l 1
 259 272 289 254 308 235 c 2
 320 224 l 2
 334 210 343 194 347 183 c 1
 448 284 l 1
 448 559 l 1
 423 584 l 1
 466 627 l 1
 491 602 l 1
 502 591 l 1
 527 566 l 1
 502 541 l 1
 502 316 l 1
 502 28 l 1
 514 27 527 27 541 27 c 0
 557 27 573 37 587 48 c 2
 616 77 l 1
 627 66 l 1
 627 66 621 59 613 51 c 2
 571 8 l 2
 556 -7 531 -27 509 -27 c 0
 506 -27 505 -27 502 -27 c 2xde
 502 -84 l 1
 359 -227 l 1
 348 -216 l 2
 348 -216 356 -206 350 -195 c 1
 335 -185 301 -177 234 -177 c 0
 125 -177 75 -194 52 -209 c 1
 34 -227 l 1
 23 -216 l 1
 23 -216 25 -212 30 -207 c 2
 72 -164 l 2
 86 -150 132 -123 266 -123 c 0
 344 -123 376 -135 388 -147 c 2
 399 -158 l 2
 400 -159 401 -161 402 -162 c 2
 448 -116 l 1
 448 -25 l 1
 366 -19 304 -2 209 -2 c 0
 193 -2 178 -11 163 -23 c 2
 134 -52 l 1xbe
EndSplineSet
EndChar
StartChar: brokenbar
Encoding: 166 166 205
Width: 250
Flags: W
HStem: -187 21G<88 125>
VStem: 88 74<-130 180 370 680>
LayerCount: 2
Back
SplineSet
125 -150 m 17
 125 200 l 1025
125 350 m 1
 125 700 l 1033
EndSplineSet
Fore
SplineSet
105 313 m 1
 88 330 l 1
 88 680 l 1
 145 737 l 1
 162 720 l 1
 162 370 l 1
 105 313 l 1
105 -187 m 1
 88 -170 l 1
 88 180 l 1
 145 237 l 1
 162 220 l 1
 162 -130 l 1
 105 -187 l 1
EndSplineSet
EndChar
StartChar: section
Encoding: 167 167 206
Width: 500
Flags: W
HStem: -187 74<114.828 225.306> 613 74<280.358 391.061>
VStem: 63 74<181 280 481 580> 363 74<-80 19 220 319>
LayerCount: 2
Back
SplineSet
200 400 m 25
 100 300 l 25
 100 150 l 25
 400 50 l 25
 400 -100 l 25
 300 -200 l 25
 300 -200 220 -150 163 -150 c 27
 115 -150 50 -200 50 -200 c 1049
450 700 m 25
 450 700 394 650 350 650 c 27
 288 650 200 700 200 700 c 25
 100 600 l 25
 100 450 l 25
 400 350 l 25
 400 200 l 25
 300 100 l 1049
EndSplineSet
Fore
SplineSet
487 720 m 1
 430 663 l 1
 430 663 374 613 330 613 c 0
 268 613 180 663 180 663 c 2
 180 663 141 624 137 620 c 1
 137 481 l 1
 420 387 l 1
 437 370 l 1
 437 220 l 1
 333 116 l 1
 420 87 l 1
 437 70 l 1
 437 -80 l 1
 280 -237 l 1
 280 -237 200 -187 143 -187 c 0
 95 -187 30 -237 30 -237 c 1
 13 -220 l 1
 70 -163 l 1
 70 -163 135 -113 183 -113 c 0
 240 -113 320 -163 320 -163 c 1
 363 -120 l 1
 363 19 l 1
 80 113 l 1
 63 130 l 1
 63 280 l 1
 167 384 l 1
 80 413 l 1
 63 430 l 1
 63 580 l 1
 220 737 l 1
 220 737 308 687 370 687 c 0
 414 687 470 737 470 737 c 1
 487 720 l 1
307 124 m 1
 363 180 l 1
 363 319 l 1
 193 376 l 1
 137 320 l 1
 137 181 l 1
 307 124 l 1
EndSplineSet
EndChar
StartChar: dieresis
Encoding: 168 168 101
Width: 400
Flags: W
HStem: 533 84
VStem: 58 284
LayerCount: 2
Back
SplineSet
285 590 m 25
 315 560 l 1049
85 590 m 25
 115 560 l 1049
EndSplineSet
Fore
SplineSet
58 574 m 1
 101 617 l 1
 142 576 l 1
 99 533 l 1
 58 574 l 1
258 574 m 1
 301 617 l 1
 342 576 l 1
 299 533 l 1
 258 574 l 1
EndSplineSet
EndChar
StartChar: copyright
Encoding: 169 169 221
Width: 700
Flags: W
HStem: -27 54<251.021 475.361> 108 54<319.357 413.922> 411 54<430.765 470.91> 438 54<365.418 404.016> 573 54<224.639 448.979>
VStem: 23 54<199.239 425.361> 187 54<223.704 365.092> 302 16<182 387 426 446> 352 54<206 394> 623 54<174.639 400.761>
LayerCount: 2
Back
SplineSet
310 438 m 1
 310 190 l 1025
379 410 m 1
 379 190 l 1025
310 465 m 1
 310 465 214 399 214 300 c 3
 214 208 267 135 366 135 c 3
 431 135 503 218 504 218 c 1025
310 406 m 1
 310 406 362 465 395 465 c 3
 430 465 416 438 448 438 c 3
 474 438 488 465 489 465 c 1025
50 350 m 0
 50 475 175 600 300 600 c 0
 550 600 650 500 650 250 c 0
 650 125 525 0 400 0 c 0
 150 0 50 100 50 350 c 0
EndSplineSet
Fore
SplineSet
23 334 m 0xcfc0
 23 396 54 459 101 506 c 2
 144 549 l 2
 191 596 254 627 316 627 c 0
 441 627 528 602 584 546 c 2
 596 534 l 2
 652 478 677 391 677 266 c 0
 677 204 646 141 599 94 c 2
 556 51 l 2
 509 4 446 -27 384 -27 c 0
 259 -27 172 -2 116 54 c 2
 104 66 l 2
 48 122 23 209 23 334 c 0xcfc0
77 366 m 0
 77 245 100 160 153 103 c 1
 209 51 295 27 416 27 c 0
 469 27 522 50 565 85 c 1
 600 128 623 181 623 234 c 0
 623 355 600 440 547 497 c 1
 491 549 405 573 284 573 c 0
 231 573 178 550 135 515 c 1
 100 472 77 419 77 366 c 0
294 379 m 1
 283 390 l 1
 283 390 288 396 295 403 c 2
 302 410 l 1
 302 446 l 1
 294 438 l 1xdfc0
 294 438 291 436 286 432 c 0
 263 403 241 364 241 316 c 0
 241 269 255 226 281 197 c 0
 287 191 294 186 302 182 c 1
 302 387 l 1
 294 379 l 1
394 436 m 2
 390 437 385 438 379 438 c 0xdfc0
 361 438 337 420 319 404 c 2
 318 403 l 1
 318 174 l 1
 336 166 358 162 382 162 c 0
 427 162 476 202 501 226 c 2
 519 244 l 2
 520 245 l 2
 531 234 l 1
 528 230 l 2
 527 229 524 227 521 224 c 2
 521 223 l 2
 478 181 l 2
 456 159 401 108 350 108 c 0
 305 108 269 123 244 148 c 2
 244 149 l 0
 233 160 l 2
 203 190 187 234 187 284 c 0
 187 346 224 395 252 423 c 2
 295 465 l 2xefc0
 312 482 326 492 326 492 c 1
 337 481 l 1
 318 462 l 1
 318 426 l 1
 337 445 l 2
 338 446 l 0
 356 464 388 492 411 492 c 0xdfc0
 423 492 429 488 433 484 c 2
 445 473 l 2
 447 471 448 469 449 468 c 0
 453 466 457 465 464 465 c 0xefc0
 472 465 478 467 483 470 c 2
 504 492 l 2
 505 492 l 2xdfc0
 516 481 l 2
 514 479 512 474 506 468 c 2
 505 467 l 2
 463 425 l 2
 456 418 445 411 432 411 c 0xefc0
 421 411 416 414 412 418 c 2
 406 425 l 1
 406 206 l 1
 363 163 l 1
 352 174 l 1
 352 394 l 1
 394 436 l 2
EndSplineSet
EndChar
StartChar: ordfeminine
Encoding: 170 170 210
Width: 400
Flags: W
HStem: 173 54<66 334> 498 54<194.062 273> 523 21G<98 129> 557 20G<171 195>
VStem: 73 54<391 459> 273 54<327.187 387 409 498 552 650>
LayerCount: 2
Back
SplineSet
50 200 m 25
 350 200 l 1049
125 550 m 17
 100 625 l 1
 175 700 l 1
 300 675 l 1
 300 325 l 1
 325 300 l 1
 375 350 l 1049
300 425 m 25
 175 300 l 1
 100 375 l 1
 100 475 l 1
 175 550 l 1
 175 550 193.963867188 525 250 525 c 3
 230.99609375 525 300 525 300 525 c 1033
EndSplineSet
Fore
SplineSet
234 498 m 1xdc
 233 498 l 2xdc
 189 499 167 515 161 521 c 2
 159 523 l 1xbc
 127 491 l 1
 127 391 l 1
 191 327 l 1
 273 409 l 1
 273 498 l 1
 234 498 l 1xdc
23 184 m 1
 66 227 l 1
 366 227 l 1
 377 216 l 1
 334 173 l 1
 34 173 l 1
 23 184 l 1
109 523 m 1xbc
 98 534 l 1
 73 609 l 1
 191 727 l 1
 316 702 l 1
 327 691 l 1
 327 541 l 1
 327 441 l 1
 327 341 l 2
 327 334 337 331 341 327 c 1
 391 377 l 1
 402 366 l 1
 309 273 l 1
 273 309 l 1
 273 387 l 1
 159 273 l 1
 73 359 l 1
 73 459 l 1
 191 577 l 1
 195 573 l 2
 204 566 228 552 272 552 c 2
 273 552 l 1xdc
 273 650 l 1
 159 673 l 1
 127 641 l 1
 152 566 l 1
 109 523 l 1xbc
EndSplineSet
EndChar
StartChar: guillemotleft
Encoding: 171 171 215
Width: 550
Flags: W
HStem: 23 329
LayerCount: 2
Back
SplineSet
475 325 m 17
 475 325 453.459960938 295.372070312 425 275 c 0
 330 207 300 200 300 200 c 1
 300 200 364 174 450 100 c 0
 471.075195312 81.8662109375 500 50 500 50 c 1033
225 325 m 17
 225 325 203.459960938 295.372070312 175 275 c 0
 80 207 50 200 50 200 c 1
 50 200 114 174 200 100 c 0
 221.074883505 81.8657979147 250 50 250 50 c 1033
EndSplineSet
Fore
SplineSet
241 352 m 1
 252 341 l 1
 252 341 242 327 227 312 c 2
 185 270 l 2
 178 263 168 255 159 248 c 0
 136 232 115 218 101 209 c 1
 127 194 169 167 216 127 c 0
 223 121 231 113 238 106 c 2
 249 94 l 1
 250 94 l 0
 265 79 277 66 277 66 c 1
 234 23 l 1
 223 34 l 2
 223 34 213 45 201 58 c 0
 195 63 189 68 184 73 c 0
 98 147 34 173 34 173 c 1
 23 184 l 1
 66 227 l 1
 66 227 96 234 191 302 c 0
 193 303 192 303 195 305 c 0
 197 307 198 309 198 309 c 1
 241 352 l 1
491 352 m 1
 502 341 l 1
 502 341 492 327 477 312 c 2
 435 270 l 2
 428 263 418 255 409 248 c 0
 386 232 365 218 351 209 c 1
 377 194 419 167 466 127 c 0
 473 121 481 113 488 106 c 2
 500 94 l 2
 515 79 527 66 527 66 c 1
 484 23 l 1
 473 34 l 2
 473 34 463 45 451 58 c 0
 445 63 439 68 434 73 c 0
 348 147 284 173 284 173 c 1
 273 184 l 1
 316 227 l 1
 316 227 346 234 441 302 c 0
 443 303 442 303 445 305 c 0
 447 307 448 309 448 309 c 1
 491 352 l 1
EndSplineSet
EndChar
StartChar: logicalnot
Encoding: 172 172 225
Width: 600
Flags: W
HStem: 373 54<116 473>
VStem: 473 54<216 373>
LayerCount: 2
Back
SplineSet
100 400 m 25
 500 400 l 25
 500 200 l 1049
EndSplineSet
Fore
SplineSet
73 384 m 1
 116 427 l 1
 516 427 l 1
 527 416 l 1
 527 216 l 1
 484 173 l 1
 473 184 l 1
 473 373 l 1
 84 373 l 1
 73 384 l 1
EndSplineSet
EndChar
StartChar: registered
Encoding: 174 174 222
Width: 700
Flags: W
HStem: -27 54<251.021 475.361> 135 54<213.135 267.602> 438 54<212.289 263.503> 573 54<224.639 448.979>
VStem: 23 54<199.239 425.361> 268 16<189 425> 318 54<178 422> 441 54<178 298> 623 54<174.639 400.761>
LayerCount: 2
Back
SplineSet
193 438 m 1
 193 438 212 465 234 465 c 3
 254 465 264 451 276 451 c 3
 291 451 303 465 304 465 c 1025
276 438 m 1
 276 176 l 1025
413 314 m 1
 496 396 l 1
 372 465 l 1
 345 438 l 1
 345 162 l 1
 317 135 l 1
 317 135 302 162 248 162 c 3
 210 162 193 135 193 135 c 1033
441 341 m 1
 468 314 l 1
 468 162 l 1
 496 135 l 9
 523 162 l 1049
50 350 m 0
 50 475 175 600 300 600 c 0
 550 600 650 500 650 250 c 0
 650 125 525 0 400 0 c 0
 150 0 50 100 50 350 c 0
EndSplineSet
Fore
SplineSet
23 334 m 0
 23 396 54 459 101 506 c 2
 144 549 l 2
 191 596 254 627 316 627 c 0
 441 627 528 602 584 546 c 2
 596 534 l 2
 652 478 677 391 677 266 c 0
 677 204 646 141 599 94 c 2
 556 51 l 2
 509 4 446 -27 384 -27 c 0
 259 -27 172 -2 116 54 c 2
 104 66 l 2
 48 122 23 209 23 334 c 0
77 366 m 0
 77 245 100 160 153 103 c 1
 209 51 295 27 416 27 c 0
 469 27 522 50 565 85 c 1
 600 128 623 181 623 234 c 0
 623 355 600 440 547 497 c 1
 491 549 405 573 284 573 c 0
 231 573 178 550 135 515 c 1
 100 472 77 419 77 366 c 0
386 298 m 1
 429 341 l 1
 466 377 l 1
 372 430 l 1
 372 178 l 1
 329 135 l 1
 301 108 l 1
 290 119 l 1
 290 120 l 0
 280 127 262 135 232 135 c 0
 214 135 201 128 192 122 c 2
 177 108 l 1
 166 119 l 2
 166 119 168 122 172 126 c 2
 172 127 l 2
 215 169 l 2
 223 177 239 189 264 189 c 0
 266 189 267 189 268 189 c 2
 268 425 l 2
 266 424 263 424 260 424 c 0
 248 424 238 438 218 438 c 0
 210 438 203 435 196 430 c 2
 177 411 l 1
 166 422 l 1
 166 422 169 427 175 433 c 2
 217 475 l 2
 218 476 l 0
 226 484 238 492 250 492 c 0
 270 492 280 478 292 478 c 0
 307 478 319 492 320 492 c 2
 331 481 l 1
 288 438 l 2
 288 438 287 436 284 434 c 2
 284 187 l 1
 300 185 310 180 318 175 c 1
 318 422 l 1
 388 492 l 1
 512 423 l 1
 523 412 l 1
 480 369 l 1
 468 357 l 1
 495 330 l 1
 495 178 l 1
 512 162 l 2
 512 162 535 185 539 189 c 1
 550 178 l 1
 480 108 l 1
 452 135 l 1
 441 146 l 1
 441 298 l 1
 425 314 l 1
 397 287 l 1
 386 298 l 1
EndSplineSet
EndChar
StartChar: macron
Encoding: 175 175 227
Width: 400
Flags: W
HStem: 513 74<95 305>
VStem: 38 324
LayerCount: 2
Back
SplineSet
75 550 m 1
 325 550 l 1049
EndSplineSet
Fore
SplineSet
38 530 m 1
 95 587 l 1
 345 587 l 1
 362 570 l 1
 305 513 l 1
 55 513 l 1
 38 530 l 1
EndSplineSet
EndChar
StartChar: degree
Encoding: 176 176 229
Width: 500
Flags: W
HStem: 388 74<208.205 317.987> 688 74<182.013 291.795>
VStem: 63 74<533.205 643.141> 363 74<506.859 616.795>
LayerCount: 2
Back
SplineSet
100 600 m 0
 100 660 165 725 225 725 c 0
 325 725 400 650 400 550 c 0
 400 490 335 425 275 425 c 0
 175 425 100 500 100 600 c 0
EndSplineSet
Fore
SplineSet
63 580 m 0
 63 610 79 641 103 665 c 2
 160 722 l 2
 184 746 215 762 245 762 c 0
 295 762 339 743 370 712 c 2
 387 695 l 2
 418 664 437 620 437 570 c 0
 437 540 421 509 397 485 c 2
 340 428 l 2
 316 404 285 388 255 388 c 0
 205 388 161 407 130 438 c 2
 113 455 l 2
 82 486 63 530 63 580 c 0
137 620 m 0
 137 575 153 534 179 504 c 1
 209 478 250 462 295 462 c 0
 313 462 331 467 348 477 c 1
 357 493 363 512 363 530 c 0
 363 575 347 616 321 646 c 1
 291 672 250 688 205 688 c 0
 187 688 169 683 152 673 c 1
 143 657 137 638 137 620 c 0
EndSplineSet
EndChar
StartChar: plusminus
Encoding: 177 177 213
Width: 600
Flags: W
HStem: -12 74<120 480> 338 74<120 263 337 480>
VStem: 263 74<195 338 412 555>
LayerCount: 2
Back
SplineSet
100 25 m 25
 500 25 l 1049
300 575 m 25
 300 175 l 1049
100 375 m 25
 500 375 l 1049
EndSplineSet
Fore
SplineSet
63 355 m 1
 120 412 l 1
 263 412 l 1
 263 555 l 1
 320 612 l 1
 337 595 l 1
 337 412 l 1
 520 412 l 1
 537 395 l 1
 480 338 l 1
 337 338 l 1
 337 195 l 1
 280 138 l 1
 263 155 l 1
 263 338 l 1
 80 338 l 1
 63 355 l 1
63 5 m 1
 120 62 l 1
 520 62 l 1
 537 45 l 1
 480 -12 l 1
 80 -12 l 1
 63 5 l 1
EndSplineSet
EndChar
StartChar: acute
Encoding: 180 180 99
Width: 400
Flags: W
HStem: 498 229
VStem: 248 54<643.878 684>
LayerCount: 2
Back
SplineSet
275 700 m 17
 275 600 150 525 150 525 c 1049
EndSplineSet
Fore
SplineSet
291 727 m 1
 302 716 l 1
 302 666 270 621 239 590 c 2
 197 548 l 2
 166 517 134 498 134 498 c 1
 123 509 l 1
 166 552 l 2
 166 552 183 562 205 581 c 1
 228 609 248 644 248 684 c 1
 291 727 l 1
EndSplineSet
EndChar
StartChar: micro
Encoding: 181 181 209
Width: 400
Flags: W
HStem: -187 21G<63 100> 417 20G<80 120 280 320> 417 20G<80 120 280 320>
VStem: 63 74<-130 -16 62 360> 263 74<45 46 80 360>
LayerCount: 2
Back
SplineSet
100 380 m 1
 100 -150 l 1025
120 360 m 9
 80 400 l 1041
375 50 m 9
 325 0 l 1
 300 25 l 17
 300 380 l 1025
320 360 m 9
 280 400 l 1041
50 0 m 1
 50 0 59.9692380484 25 125 25 c 3
 186 25 200 0 200 0 c 9
 300 100 l 1025
EndSplineSet
Fore
SplineSet
30 -37 m 1xd8
 13 -20 l 1
 13 -20 15 -17 18 -14 c 2
 63 32 l 1
 63 360 l 1
 43 380 l 1
 100 437 l 1
 120 417 l 1
 137 400 l 1
 157 380 l 1
 137 360 l 1
 137 62 l 2
 140 62 142 62 145 62 c 0
 190 62 209 48 216 41 c 2
 220 37 l 1
 263 80 l 1
 263 360 l 1
 243 380 l 1
 300 437 l 1
 320 417 l 1
 337 400 l 1
 357 380 l 1
 337 360 l 1
 337 120 l 1
 337 45 l 1
 345 37 l 1
 395 87 l 1
 412 70 l 1
 305 -37 l 1
 263 5 l 1
 263 46 l 1
 180 -37 l 1
 171 -28 l 2
 165 -23 154 -17 137 -14 c 1
 137 -130 l 1
 80 -187 l 1
 63 -170 l 1
 63 -16 l 1
 54 -18 47 -22 42 -25 c 2
 30 -37 l 1xd8
EndSplineSet
EndChar
StartChar: paragraph
Encoding: 182 182 226
Width: 600
Flags: W
HStem: -187 74<274.392 338 362 439.058> 63 74<181.753 263.83> 563 74<213.219 315.589> 563 49<362.896 381>
VStem: 63 74<200.455 464.977> 338 24<-113 539> 438 74<-55 530>
LayerCount: 2
Back
SplineSet
300 150 m 17
 300 150 290.06919394 100 225 100 c 3
 140 100 100 177.895380655 100 350 c 3
 100 469 141.905336974 600 274 600 c 3
 310 600 328 575 350 575 c 3
 378 575 400 600 401 600 c 1025
350 550 m 1
 350 -125 l 1025
525 600 m 1
 475 550 l 1
 475 -75 l 1025
550 -200 m 1
 550 -200 423 -150 325 -150 c 3
 256 -150 225 -200 225 -200 c 1025
EndSplineSet
Fore
SplineSet
587 -180 m 1xde
 530 -237 l 1
 530 -237 403 -187 305 -187 c 0
 272 -187 249 -198 233 -209 c 2
 205 -237 l 1
 188 -220 l 2
 188 -220 192 -214 200 -206 c 2
 200 -205 l 2
 257 -149 l 2
 271 -135 297 -115 338 -113 c 1
 338 539 l 2
 335 539 333 538 330 538 c 0
 308 538 290 563 254 563 c 0
 224 563 198 556 177 544 c 1
 148 496 137 432 137 370 c 0
 137 265 151 196 182 157 c 1
 199 144 221 137 245 137 c 0
 256 137 265 138 274 141 c 1
 320 187 l 1
 337 170 l 1
 337 170 334 155 320 141 c 2
 263 84 l 2
 252 73 234 63 205 63 c 0
 176 63 153 72 134 91 c 2
 117 108 l 2
 81 145 63 217 63 330 c 0
 63 407 81 490 129 538 c 2
 186 594 l 2
 212 620 247 637 294 637 c 0xee
 330 637 348 612 370 612 c 0xde
 398 612 420 637 421 637 c 2xee
 438 620 l 1
 381 563 l 2
 380 563 373 555 362 548 c 1
 362 -114 l 1
 457 -119 570 -163 570 -163 c 1
 587 -180 l 1xde
545 637 m 1
 562 620 l 1
 512 570 l 1
 512 -55 l 1
 455 -112 l 1
 438 -95 l 1
 438 530 l 1
 545 637 l 1
EndSplineSet
EndChar
StartChar: periodcentered
Encoding: 183 183 212
Width: 300
Flags: W
HStem: 268 114
VStem: 93 114
LayerCount: 2
Back
SplineSet
130 345 m 25
 170 305 l 1049
EndSplineSet
Fore
SplineSet
93 325 m 1
 150 382 l 1
 207 325 l 1
 150 268 l 1
 93 325 l 1
EndSplineSet
EndChar
StartChar: cedilla
Encoding: 184 184 102
Width: 400
Flags: W
HStem: -212 74<72.1255 194.387>
VStem: 13 324
LayerCount: 2
Back
SplineSet
200 0 m 25
 175 -25 l 1
 300 -75 l 1
 200 -200 l 1
 200 -200 174 -175 125 -175 c 3
 65 -175 50 -200 50 -200 c 1025
EndSplineSet
Fore
SplineSet
220 37 m 1
 237 20 l 1
 219 2 l 1
 320 -38 l 1
 337 -55 l 1
 237 -180 l 1
 180 -237 l 1
 180 -237 154 -212 105 -212 c 0
 67 -212 48 -222 38 -229 c 2
 30 -237 l 1
 13 -220 l 1
 13 -220 14 -218 16 -216 c 2
 73 -159 l 2
 80 -152 100 -138 145 -138 c 0
 179 -138 202 -151 213 -158 c 1
 257 -103 l 1
 155 -62 l 1
 138 -45 l 1
 220 37 l 1
EndSplineSet
EndChar
StartChar: ordmasculine
Encoding: 186 186 211
Width: 400
Flags: W
HStem: 163 74<70 330>
VStem: 63 74<380 580> 263 74<420 620>
LayerCount: 2
Back
SplineSet
200 700 m 25
 100 600 l 25
 100 400 l 25
 200 300 l 25
 300 400 l 25
 300 600 l 25
 200 700 l 25
50 200 m 25
 350 200 l 1049
EndSplineSet
Fore
SplineSet
13 180 m 1
 70 237 l 1
 370 237 l 1
 387 220 l 1
 330 163 l 1
 30 163 l 1
 13 180 l 1
180 663 m 1
 137 620 l 1
 137 420 l 2
 137 375 196 361 220 337 c 1
 263 380 l 1
 263 580 l 2
 263 625 204 639 180 663 c 1
63 580 m 1
 220 737 l 1
 337 620 l 1
 337 420 l 1
 180 263 l 1
 63 380 l 1
 63 580 l 1
EndSplineSet
EndChar
StartChar: guillemotright
Encoding: 187 187 216
Width: 550
Flags: W
LayerCount: 2
Back
SplineSet
325 325 m 17
 325 325 346.540039062 295.372070312 375 275 c 0
 470 207 500 200 500 200 c 1
 500 200 436 174 350 100 c 0
 328.924804688 81.8662109375 300 50 300 50 c 1033
75 325 m 17
 75 325 96.5400390625 295.372070312 125 275 c 0
 220 207 250 200 250 200 c 1
 250 200 186 174 100 100 c 0
 78.9248046875 81.8662109375 50 50 50 50 c 1033
EndSplineSet
Fore
SplineSet
95 362 m 1
 112 345 l 1
 112 345 118 337 128 326 c 0
 133 321 139 316 145 312 c 0
 209 266 243 248 259 241 c 0
 267 238 270 237 270 237 c 1
 287 220 l 1
 230 163 l 1
 230 163 166 137 80 63 c 0
 69 53 45 28 30 13 c 1
 13 30 l 1
 13 30 26 44 41 59 c 2
 97 115 l 2
 104 123 113 131 120 137 c 0
 143 157 164 173 183 186 c 1
 164 197 139 214 105 238 c 0
 96 245 87 253 80 260 c 2
 63 277 l 2
 48 292 38 305 38 305 c 1
 95 362 l 1
345 362 m 1
 362 345 l 1
 362 345 368 337 378 326 c 0
 383 321 389 316 395 312 c 0
 459 266 493 248 509 241 c 0
 517 238 520 237 520 237 c 1
 537 220 l 1
 480 163 l 1
 480 163 416 137 330 63 c 0
 319 53 295 28 280 13 c 1
 263 30 l 1
 263 30 276 44 291 59 c 2
 347 115 l 2
 354 123 363 131 370 137 c 0
 393 157 414 173 433 186 c 1
 414 197 389 214 355 238 c 0
 346 245 337 253 330 260 c 2
 313 277 l 2
 298 292 288 305 288 305 c 1
 345 362 l 1
EndSplineSet
EndChar
StartChar: questiondown
Encoding: 191 191 201
Width: 400
Flags: W
HStem: 417 20G<180 220> 417 20G<180 220>
VStem: 63 74<-120 -20> 163 74<70 185> 263 74<-105 -70>
CounterMasks: 1 38
LayerCount: 2
Back
SplineSet
300 -50 m 25
 300 -125 l 25
 225 -200 l 25
 100 -150 l 25
 100 0 l 25
 200 50 l 25
 200 205 l 1049
220 360 m 25
 180 400 l 1049
EndSplineSet
Fore
SplineSet
257 380 m 1xb8
 200 323 l 1
 143 380 l 1
 200 437 l 1
 257 380 l 1xb8
320 -13 m 1
 337 -30 l 1
 337 -105 l 1
 205 -237 l 1
 80 -187 l 1
 63 -170 l 1
 63 -20 l 1
 120 37 l 1
 163 58 l 1
 163 185 l 1
 220 242 l 1
 237 225 l 1
 237 70 l 1
 180 13 l 1
 137 -8 l 1
 137 -120 l 1
 245 -163 l 1
 263 -145 l 1
 263 -70 l 1
 320 -13 l 1
EndSplineSet
EndChar
StartChar: AE
Encoding: 198 198 188
Width: 1150
Flags: W
HStem: -37 74<705.149 863.215> 13 74<98.9946 179.793> 263 74<956.624 979.537> 313 39<232 258.079> 476 62G<188 223 403 440 663 688> 513 74<927.664 981.249> 517 20G<825 862> 563 74<245.492 296.758 817.812 876.993>
VStem: 313 74<385.713 551.593> 688 24<66 463 522 571> 788 74<120 313 353 480>
AnchorPoint: "blwmark" 600 0 basechar 0
AnchorPoint: "abvmark" 600 700 basechar 0
LayerCount: 2
Back
SplineSet
520 560 m 9
 480 600 l 25
 440 560 l 1041
200 300 m 1
 200 300 230 350 300 350 c 3
 427 350 500 250 501 250 c 1025
225 575 m 1
 225 575 235 600 275 600 c 11
 324 600 350 549 350 500 c 3
 350 263 176 75 176 75 c 1025
50 0 m 1
 50 0 81 50 150 50 c 3
 248 50 275 0 275 0 c 1025
500 580 m 1
 525 300 l 1025
825 300 m 25
 825 300 872 350 900 350 c 27
 935 350 915 300 950 300 c 3
 991 300 1025 350 1026 350 c 1049
700 550 m 1
 700 100 l 1025
825 500 m 1
 825 100 l 1025
700 600 m 1
 700 600 525 480 525 300 c 3
 525 134 620 0 800 0 c 3
 919 0 1051 150 1052 150 c 1025
700 492 m 1
 700 492 795 600 855 600 c 3
 919 600 892 550 950 550 c 3
 998 550 1025 600 1026 600 c 1025
EndSplineSet
Fore
SplineSet
680 455 m 1x01e0
 663 472 l 1
 663 472 672 482 686 496 c 2
 688 498 l 1
 688 571 l 1
 680 563 l 1
 680 563 669 555 653 542 c 0
 608 489 562 413 562 320 c 0
 562 234 588 156 637 102 c 0
 652 88 669 76 688 66 c 1
 688 463 l 1
 680 455 l 1x01e0
845 537 m 1x12e0
 862 520 l 1
 862 353 l 1
 878 368 903 387 920 387 c 0
 927 387 932 385 936 381 c 2
 953 364 l 2
 959 358 961 346 964 337 c 0
 966 337 968 337 970 337 c 0
 986 337 1001 345 1012 353 c 2
 1046 387 l 2
 1063 370 l 1
 1060 367 1055 360 1046 351 c 2
 1045 350 l 2
 989 293 l 2
 975 279 953 263 930 263 c 0x22e0
 923 263 919 265 915 269 c 0
 914 269 l 2
 897 286 l 2
 891 293 889 304 886 313 c 0
 885 313 882 313 880 313 c 0
 874 313 869 311 862 308 c 1
 862 120 l 1
 805 63 l 1
 788 80 l 1
 788 280 l 1
 788 480 l 1
 845 537 l 1x12e0
30 -37 m 1x80e0
 13 -20 l 1
 13 -20 17 -13 25 -5 c 2
 82 51 l 2
 96 65 123 86 165 87 c 1
 197 129 253 210 286 313 c 1
 284 313 282 313 280 313 c 0x50e0
 248 313 226 303 209 292 c 2
 180 263 l 1x20e0
 163 280 l 1
 163 280 168 287 176 295 c 2
 232 352 l 2
 233 352 l 0
 246 365 269 382 304 386 c 1
 310 416 313 448 313 480 c 0
 313 506 306 532 292 552 c 0
 282 559 269 563 255 563 c 0
 241 563 231 560 223 556 c 2
 205 538 l 1
 188 555 l 1
 188 555 190 560 195 565 c 2
 252 622 l 2
 259 629 272 637 295 637 c 0
 314 637 329 630 341 618 c 2
 357 601 l 2
 358 600 l 0
 377 581 387 550 387 520 c 0
 387 472 380 425 368 382 c 1
 419 371 458 346 484 324 c 1
 463 560 l 1
 460 563 l 1
 420 523 l 1
 403 540 l 1
 500 637 l 1
 520 617 l 1
 528 608 l 1
 557 580 l 1
 540 563 l 1
 549 462 l 1
 568 489 589 514 607 532 c 2
 663 588 l 2
 694 619 720 637 720 637 c 1
 737 620 l 1
 707 590 l 1
 712 590 l 1
 712 522 l 1
 742 553 l 2
 774 585 833 637 875 637 c 0x19e0
 897 637 907 631 915 623 c 2
 933 606 l 2
 937 602 940 596 943 592 c 0
 950 588 958 587 970 587 c 0x04e0
 984 587 996 591 1006 597 c 2
 1046 637 l 2x01e0
 1063 620 l 2
 1061 618 1055 607 1044 596 c 2
 987 540 l 2
 974 527 955 513 930 513 c 0x04e0
 912 513 902 518 895 525 c 0
 878 542 l 2
 874 546 870 551 867 556 c 0
 860 560 850 563 835 563 c 0
 802 563 760 531 727 502 c 2
 712 487 l 1
 712 60 l 1
 702 60 l 1
 736 45 775 37 820 37 c 0
 903 37 992 109 1038 153 c 2
 1071 186 l 1
 1072 187 l 2
 1089 170 l 1
 1087 168 l 2
 1084 165 1080 161 1072 153 c 2
 1015 95 l 2
 975 55 873 -37 780 -37 c 0
 698 -37 634 -9 588 37 c 2
 571 54 l 2
 528 97 501 156 492 224 c 1
 481 213 l 2
 464 230 l 2
 463 231 460 236 454 242 c 0
 431 263 393 291 342 305 c 1
 290 179 213 95 213 95 c 2
 203 85 l 1
 248 79 273 61 285 49 c 2
 302 32 l 2
 309 25 312 20 312 20 c 1
 255 -37 l 1x81e0
 238 -20 l 1
 238 -20 237 -18 236 -16 c 0
 218 -2 185 13 130 13 c 0x40e0
 98 13 74 3 58 -9 c 2
 30 -37 l 1x80e0
EndSplineSet
EndChar
StartChar: Eth
Encoding: 208 208 180
Width: 700
Flags: W
HStem: -27 21G<23 54 344 504> 23 54<95.0872 192 208 352.497> 273 54<352 405.939> 298 54<143.652 192> 523 21G<23 54> 548 54<161.837 192> 573 25<83 97.9505 220.009 235> 607 20G<266.5 278 371 427>
VStem: 192 16<77 295 352 549> 298 54<166 273 338 534> 573 54<117 454>
AnchorPoint: "blwmark" 350 0 basechar 0
AnchorPoint: "abvmark" 400 700 basechar 0
LayerCount: 2
Back
SplineSet
50 550 m 1
 50 550 84 600 124 600 c 3
 160 600 178 575 200 575 c 3
 228 575 250 600 251 600 c 1025
200 550 m 1
 200 75 l 1025
325 150 m 1
 325 550 l 1
 375 600 l 1
 600 475 l 1
 600 101 l 1
 500 0 l 17
 500 0 349 50 150 50 c 3
 81 50 50 0 50 0 c 1033
100 275 m 17
 100 275 140 325 175 325 c 27
 254 325 296 300 375 300 c 27
 410 300 450 350 450 350 c 1033
EndSplineSet
Fore
SplineSet
84 248 m 1xdbe0
 73 259 l 1
 73 259 79 266 87 274 c 2
 129 317 l 2
 130 318 l 0
 145 333 169 352 191 352 c 0
 192 352 l 2
 192 549 l 2
 190 549 187 548 184 548 c 0xdde0
 162 548 144 573 108 573 c 0
 95 573 83 568 71 560 c 2
 34 523 l 1
 23 534 l 1
 23 534 30 544 41 555 c 2
 83 598 l 2
 84 598 l 0xcbe0
 98 612 118 627 140 627 c 0
 176 627 194 602 216 602 c 0xcde0
 244 602 266 627 267 627 c 2
 278 616 l 1
 235 573 l 2
 234 573 224 561 208 554 c 1
 208 351 l 1
 242 349 270 344 298 338 c 1
 298 534 l 1
 391 627 l 1
 616 502 l 1
 627 491 l 1
 627 117 l 1
 527 16 l 1
 484 -27 l 1
 484 -27 333 23 134 23 c 0
 101 23 78 12 62 1 c 2
 34 -27 l 1
 23 -16 l 2
 23 -16 27 -9 35 -1 c 2
 78 41 l 2
 93 56 122 77 166 77 c 0
 175 77 183 77 192 77 c 1
 192 297 l 1
 182 298 171 298 159 298 c 0
 143 298 128 289 113 277 c 2
 84 248 l 1xdbe0
309 123 m 1
 298 134 l 1
 298 278 l 1
 267 283 240 291 208 295 c 1
 208 76 l 1
 381 70 508 29 515 27 c 1
 573 85 l 1
 573 454 l 1
 359 573 l 1
 352 566 l 1
 352 329 l 1
 364 328 377 327 391 327 c 0
 407 327 423 337 437 348 c 2
 466 377 l 1
 477 366 l 1
 477 366 471 359 463 351 c 2
 421 308 l 2
 406 293 381 273 359 273 c 0
 356 273 354 273 352 273 c 2xebe0
 352 166 l 1
 309 123 l 1
EndSplineSet
EndChar
StartChar: multiply
Encoding: 215 215 223
Width: 600
Flags: W
HStem: 517 20G<100 140 500 537>
LayerCount: 2
Back
SplineSet
500 500 m 25
 100 100 l 1049
100 500 m 25
 500 100 l 1049
EndSplineSet
Fore
SplineSet
63 480 m 1
 120 537 l 1
 320 337 l 1
 520 537 l 1
 537 520 l 1
 337 320 l 1
 537 120 l 1
 480 63 l 1
 280 263 l 1
 80 63 l 1
 63 80 l 1
 263 280 l 1
 63 480 l 1
EndSplineSet
EndChar
StartChar: Oslash
Encoding: 216 216 182
Width: 800
Flags: W
HStem: -37 74<305.149 464.23> 455 21G<263 288> 617 20G<296.735 337 448.5 493.5 700 737>
VStem: 88 74<192.104 386.603> 288 24<66 171 229 463 533 571> 389 74<120 272 306 346 380 530> 616 74<210.48 433.316>
AnchorPoint: "abvmark" 450 700 basechar 0
LayerCount: 2
Back
SplineSet
700 600 m 25
 100 0 l 1049
300 550 m 1
 300 100 l 1025
427 550 m 1
 425 100 l 1025
300 600 m 1
 300 600 125 480 125 300 c 3
 125 134 220 0 400 0 c 3
 519 0 653 142 653 300 c 3
 653 512 561 600 450 600 c 3
 363 600 300 492 300 492 c 1025
EndSplineSet
Fore
SplineSet
720 637 m 1
 737 620 l 1
 644 527 l 1
 672 479 690 411 690 320 c 0
 690 233 649 151 593 95 c 2
 537 38 l 2
 491 -8 434 -37 380 -37 c 0
 298 -37 234 -9 188 37 c 2
 171 54 l 2
 80 -37 l 1
 63 -20 l 1
 155 72 l 1
 111 126 88 199 88 280 c 0
 88 392 156 481 207 532 c 2
 263 588 l 2
 294 619 320 637 320 637 c 1
 337 620 l 1
 307 590 l 1
 312 590 l 1
 312 533 l 1
 363 584 l 2
 390 611 427 637 470 637 c 0
 517 637 561 621 596 586 c 2
 613 569 l 2
 619 563 625 556 631 548 c 1
 720 637 l 1
423 563 m 1
 397 561 373 549 353 535 c 1
 343 521 337 512 337 512 c 1
 312 487 l 1
 312 229 l 1
 389 306 l 1
 390 530 l 1
 423 563 l 1
464 560 m 1
 463 380 l 1
 571 488 l 1
 564 500 555 511 547 521 c 0
 522 543 495 555 464 560 c 1
288 571 m 1
 280 563 l 1
 280 563 269 555 253 542 c 0
 208 489 162 413 162 320 c 0
 162 248 180 182 214 131 c 1
 288 205 l 1
 288 463 l 1
 280 455 l 1
 263 472 l 1
 263 472 272 488 288 507 c 1
 288 571 l 1
288 66 m 1
 288 171 l 1
 228 112 l 1
 231 109 234 105 237 102 c 0
 252 88 269 76 288 66 c 1
302 60 m 1
 336 45 375 37 420 37 c 0
 463 37 507 55 546 85 c 1
 588 139 616 208 616 280 c 0
 616 358 603 420 582 466 c 1
 463 346 l 1
 462 120 l 1
 405 63 l 1
 388 80 l 1
 389 272 l 1
 312 195 l 1
 312 60 l 1
 302 60 l 1
EndSplineSet
EndChar
StartChar: Thorn
Encoding: 222 222 178
Width: 700
Flags: W
HStem: -177 54<19.0107 154.589> 72 55<352.234 429.073> 407 20G<371 427> 407 20G<371 427> 523 21G<23 54> 548 54<161.837 192> 573 25<83 97.9505 220.009 235> 607 20G<266.5 278 371 402>
VStem: 192 16<-150 549> 298 54<-59 64 125 366 388 534> 573 54<166 254>
AnchorPoint: "abvmark" 400 700 basechar 0
LayerCount: 2
Back
SplineSet
250 50 m 25
 250 50 306 100 350 100 c 27
 421 100 500 50 500 50 c 1
 600 150 l 1
 600 275 l 1
 375 400 l 1
 325 350 l 1025
50 550 m 1
 50 550 84 600 124 600 c 3
 160 600 178 575 200 575 c 3
 228 575 250 600 251 600 c 1025
200 550 m 1
 200 -125 l 1025
375 600 m 1
 325 550 l 1
 325 -75 l 1
 200 -200 l 1
 200 -200 173 -150 75 -150 c 3
 6 -150 -25 -200 -23 -200 c 1033
EndSplineSet
Fore
SplineSet
-7 -196 m 1xebe0
 -39 -227 l 1
 -50 -216 l 2
 -50 -216 -46 -208 -38 -200 c 2
 4 -157 l 2
 19 -142 48 -123 91 -123 c 0
 142 -123 173 -137 192 -150 c 1
 192 549 l 2
 190 549 187 548 184 548 c 0xede0
 162 548 144 573 108 573 c 0
 95 573 83 568 71 560 c 2
 34 523 l 1
 23 534 l 1
 23 534 30 544 41 555 c 2
 83 598 l 2
 84 598 l 0xcbe0
 98 612 118 627 140 627 c 0
 176 627 194 602 216 602 c 0xcde0
 244 602 266 627 267 627 c 2
 278 616 l 1
 235 573 l 2
 234 573 224 561 208 554 c 1
 208 -155 l 1
 199 -155 l 2
 202 -157 204 -159 206 -161 c 2
 217 -172 l 1
 298 -91 l 1
 298 64 l 1
 265 50 234 23 234 23 c 2
 223 34 l 1
 266 77 l 1
 266 77 279 89 298 101 c 1
 298 334 l 1
 298 534 l 1
 391 627 l 1
 402 616 l 1
 352 566 l 1
 352 388 l 1
 391 427 l 1
 616 302 l 1
 627 291 l 1
 627 166 l 1
 484 23 l 1
 484 23 418 65 352 72 c 1
 352 -59 l 1
 184 -227 l 1
 173 -216 l 1
 173 -216 172 -213 169 -209 c 0
 152 -194 118 -177 59 -177 c 0
 30 -177 9 -186 -7 -196 c 1xebe0
352 366 m 2
 352 125 l 1
 357 126 362 127 366 127 c 0
 437 127 516 77 516 77 c 2
 516 77 567 128 573 134 c 1
 573 254 l 1
 359 373 l 2
 359 373 353 367 352 366 c 2
EndSplineSet
EndChar
StartChar: germandbls
Encoding: 223 223 131
Width: 500
Flags: W
HStem: -237 74<24.1938 73.6421> -187 74<-77.5544 -25.3946> 313 74<219.299 313.846> 417 20G<162 217.2 350 390> 417 20G<162 217.2 350 390> 613 24<343.57 349.833>
VStem: 88 74<-130 -87 3.67881 344 429 530> 363 74<-130 75>
AnchorPoint: "abvmark" 300 750 basechar 0
LayerCount: 2
Back
SplineSet
150 400 m 1
 150 400 224 350 268 350 c 3
 342 350 350 400 350 400 c 1
 400 350 l 1
 250 200 l 1
 400 100 l 1
 400 -150 l 1
 400 -150 353.000180261 -200 325 -200 c 1
 259 -113 125 0 125 0 c 1025
-125 -200 m 17
 -125 -200 -88 -150 -50 -150 c 8
 -19 -150 18 -200 50 -200 c 24
 78 -200 125 -150 125 -150 c 1
 125 550 l 1
 225 650 l 17
 225 650 256 600 300 600 c 24
 328 600 375 650 376 650 c 1033
EndSplineSet
Fore
SplineSet
-145 -237 m 1xa7
 -162 -220 l 1
 -162 -220 -156 -212 -146 -202 c 2
 -89 -145 l 2
 -74 -130 -52 -113 -30 -113 c 0x67
 1 -113 38 -163 70 -163 c 0
 76 -163 82 -161 88 -158 c 1
 88 -20 l 1
 88 530 l 1
 245 687 l 1
 262 670 l 1
 262 670 266 664 272 657 c 0
 285 646 301 637 320 637 c 0
 348 637 395 687 396 687 c 2
 413 670 l 1
 356 613 l 2
 355 613 308 563 280 563 c 0
 257 563 237 577 224 590 c 0
 223 591 l 2
 206 608 l 2
 205 609 204 610 203 611 c 2
 162 570 l 1
 162 429 l 1
 170 437 l 1
 170 437 244 387 288 387 c 0
 303 387 316 389 325 392 c 1
 370 437 l 1
 437 370 l 1
 290 223 l 1
 420 137 l 1
 437 120 l 1
 437 -130 l 1
 437 -130 436 -131 433 -134 c 2
 376 -191 l 2
 364 -203 328 -237 305 -237 c 1
 288 -220 l 1
 268 -194 242 -165 215 -138 c 0
 196 -119 178 -102 162 -87 c 1
 162 -130 l 2
 162 -130 161 -131 158 -134 c 2
 101 -191 l 2
 89 -203 53 -237 30 -237 c 0xb7
 -2 -237 -39 -187 -70 -187 c 0x67
 -85 -187 -100 -195 -112 -204 c 2
 -145 -237 l 1xa7
162 344 m 1
 162 22 l 1
 184 3 223 -32 263 -72 c 2
 281 -90 l 2
 305 -114 328 -139 348 -163 c 1xa7
 353 -162 357 -161 363 -158 c 1
 363 75 l 1
 230 163 l 1
 213 180 l 1
 363 330 l 1
 336 357 l 1
 315 336 l 2
 303 324 283 313 248 313 c 0
 223 313 187 330 162 344 c 1
EndSplineSet
EndChar
StartChar: ae
Encoding: 230 230 189
Width: 550
Flags: W
HStem: 188 74<199.383 263> 417 20G<175 295 400 440> 417 20G<175 295 400 440>
VStem: 63 74<95 155> 263 74<154 188 262 320>
AnchorPoint: "blwmark" 300 0 basechar 0
AnchorPoint: "abvmark" 300 500 basechar 0
LayerCount: 2
Back
SplineSet
125 250 m 17
 100 325 l 1
 175 400 l 1
 300 375 l 1
 300 125 l 9
 175 0 l 1
 100 75 l 1
 100 175 l 1
 175 250 l 1
 175 250 193.964297096 225 250 225 c 3
 300 225 l 1033
300 100 m 1
 500 300 l 1
 400 400 l 25
 300 300 l 25
 300 100 l 25
 400 0 l 25
 500 100 l 1041
EndSplineSet
Fore
SplineSet
337 120 m 1xd8
 420 37 l 1
 520 137 l 1
 537 120 l 1
 380 -37 l 1
 268 76 l 1
 155 -37 l 1
 63 55 l 1
 63 155 l 1
 195 287 l 1
 199 282 l 2
 207 275 226 263 263 262 c 1
 263 280 l 1
 263 342 l 1
 155 363 l 1
 137 345 l 1
 162 270 l 1
 105 213 l 1
 88 230 l 1
 63 305 l 1
 195 437 l 1
 320 412 l 1
 337 395 l 1
 337 354 l 1
 420 437 l 1
 537 320 l 1
 337 120 l 1xd8
263 105 m 1
 263 188 l 1
 230 188 l 2
 184 188 163 205 157 211 c 2
 155 213 l 1
 137 195 l 1
 137 95 l 1
 195 37 l 1
 263 105 l 1
337 320 m 1
 337 154 l 1
 463 280 l 1
 380 363 l 1
 337 320 l 1
EndSplineSet
EndChar
StartChar: eth
Encoding: 240 240 181
Width: 400
Flags: W
HStem: 417 20G<200 239.545> 417 20G<200 239.545> 513 74<180 220>
VStem: 63 74<80 280 574 622> 263 74<120 280 393 488.246>
AnchorPoint: "blwmark" 200 0 basechar 0
AnchorPoint: "abvmark" 250 700 basechar 0
LayerCount: 2
Back
SplineSet
275 625 m 1
 100 450 l 1025
300 300 m 1
 200 400 l 25
 100 300 l 1
 100 100 l 25
 200 0 l 25
 300 100 l 1
 300 450 l 10
 300 505 244 550 200 550 c 0
 156 550 100 556 100 600 c 27
 100 628 140 650 141 650 c 1049
EndSplineSet
Fore
SplineSet
263 280 m 1x38
 180 363 l 1
 137 320 l 1
 137 120 l 2
 137 75 196 61 220 37 c 1
 263 80 l 1
 263 280 l 1x38
263 393 m 1
 263 430 l 2
 263 452 254 473 241 489 c 1
 222 504 200 513 180 513 c 1
 80 413 l 1
 63 430 l 1
 148 515 l 1
 126 517 103 522 91 535 c 2
 74 552 l 2
 67 559 63 568 63 580 c 0
 63 592 70 603 79 612 c 2
 136 668 l 2
 147 679 160 687 161 687 c 2
 178 670 l 1
 139 631 l 2
 138 628 137 624 137 620 c 0
 137 613 138 607 141 601 c 0
 161 589 193 587 220 587 c 1
 295 662 l 1
 312 645 l 1
 248 581 l 1
 263 576 277 566 289 554 c 2
 306 537 l 2
 324 519 337 496 337 470 c 2
 337 120 l 1
 180 -37 l 1
 63 80 l 1
 63 280 l 1
 220 437 l 1xb8
 263 393 l 1
EndSplineSet
EndChar
StartChar: divide
Encoding: 247 247 224
Width: 600
Flags: W
HStem: 263 74<120 480> 443 21G<280 320> 537 20G<280 320>
LayerCount: 2
Back
SplineSet
280 120 m 25
 320 80 l 1049
100 300 m 25
 500 300 l 1049
280 520 m 25
 320 480 l 1049
EndSplineSet
Fore
SplineSet
243 500 m 1
 300 557 l 1
 357 500 l 1
 300 443 l 1
 243 500 l 1
63 280 m 1
 120 337 l 1
 520 337 l 1
 537 320 l 1
 480 263 l 1
 80 263 l 1
 63 280 l 1
243 100 m 1
 300 157 l 1
 357 100 l 1
 300 43 l 1
 243 100 l 1
EndSplineSet
EndChar
StartChar: oslash
Encoding: 248 248 183
Width: 400
Flags: W
HStem: 417 20G<200 239.744 350 387> 417 20G<200 239.744 350 387>
VStem: 63 74<145 280> 263 74<120 255>
AnchorPoint: "abvmark" 200 500 basechar 0
LayerCount: 2
Back
SplineSet
350 400 m 25
 50 0 l 1049
200 400 m 25
 100 300 l 25
 100 100 l 25
 200 0 l 25
 300 100 l 25
 300 300 l 25
 200 400 l 25
EndSplineSet
Fore
SplineSet
180 363 m 1x30
 137 320 l 1
 137 145 l 1
 256 304 l 1
 240 331 199 344 180 363 c 1x30
63 280 m 1
 220 437 l 1
 297 359 l 1
 313 380 l 1
 370 437 l 1xb0
 387 420 l 1
 322 334 l 1
 337 320 l 1
 337 120 l 1
 180 -37 l 1
 103 41 l 1
 87 20 l 1
 30 -37 l 1
 13 -20 l 1
 78 66 l 1
 63 80 l 1
 63 280 l 1
144 96 m 1
 160 69 201 56 220 37 c 1
 263 80 l 1
 263 255 l 1
 144 96 l 1
EndSplineSet
EndChar
StartChar: thorn
Encoding: 254 254 179
Width: 400
Flags: W
HStem: -187 21G<63 100> 417 20G<200 240> 417 20G<200 240>
VStem: 63 74<-130 -7 86 320 354 585> 263 74<120 320>
AnchorPoint: "abvmark" 200 700 basechar 0
LayerCount: 2
Back
SplineSet
50 0 m 1
 50 0 96 50 125 50 c 0
 154 50 200 0 200 0 c 9
 300 100 l 1
 300 300 l 25
 200 400 l 1
 100 300 l 1049
80 625 m 25
 120 585 l 1049
100 605 m 1
 100 -150 l 1025
EndSplineSet
Fore
SplineSet
43 605 m 1xd8
 100 662 l 1
 137 625 l 1
 157 605 l 1
 137 585 l 1
 137 354 l 1
 220 437 l 1
 337 320 l 1
 337 120 l 1
 180 -37 l 1
 168 -24 l 2
 160 -16 149 -7 137 1 c 1
 137 -130 l 1
 80 -187 l 1
 63 -170 l 1
 63 -7 l 1
 55 -13 49 -18 43 -24 c 2
 30 -37 l 1
 13 -20 l 1
 13 -20 15 -18 19 -14 c 2
 63 30 l 1
 63 280 l 1
 63 585 l 1
 43 605 l 1xd8
137 320 m 1
 137 86 l 2
 140 87 142 87 145 87 c 0
 168 87 201 56 214 43 c 2
 220 37 l 1
 263 80 l 1
 263 280 l 2
 263 325 204 339 180 363 c 1
 137 320 l 1
EndSplineSet
EndChar
StartChar: dcroat
Encoding: 273 273 319
Width: 400
Flags: W
HStem: 407 20G<196 235.655 371 402> 407 20G<196 235.655 371 402> 523 54<133.948 241.542>
VStem: 73 54<84 87 109 141 163 284 582.641 621.625> 273 54<116 284 369 491.668>
AnchorPoint: "blwmark" 200 0 basechar 0
AnchorPoint: "abvmark" 250 700 basechar 0
LayerCount: 2
Back
SplineSet
375 400 m 1
 50 75 l 1025
300 300 m 1
 200 400 l 25
 100 300 l 1
 100 100 l 25
 200 0 l 25
 300 100 l 1
 300 450 l 10
 300 505 244 550 200 550 c 0
 156 550 100 556 100 600 c 27
 100 628 140 650 141 650 c 1049
EndSplineSet
Fore
SplineSet
273 369 m 1xb8
 273 434 l 2
 273 457 263 479 248 496 c 0
 229 513 205 523 184 523 c 0
 152 523 115 526 96 545 c 2
 84 556 l 2
 77 563 73 572 73 584 c 0
 73 596 80 607 89 616 c 2
 132 659 l 2
 143 670 156 677 157 677 c 2
 168 666 l 1
 129 627 l 2
 128 624 127 620 127 616 c 0
 127 607 129 599 133 593 c 0
 153 579 187 577 216 577 c 0
 239 577 265 565 285 545 c 0
 297 533 l 2
 315 515 327 492 327 466 c 2
 327 363 l 1
 391 427 l 1
 402 416 l 1
 327 341 l 1
 327 116 l 1
 184 -27 l 1
 73 84 l 1
 73 87 l 1
 34 48 l 1
 23 59 l 1
 73 109 l 1
 73 284 l 1
 216 427 l 1
 273 369 l 1xb8
261 297 m 1
 184 373 l 1
 127 316 l 1
 127 163 l 1
 261 297 l 1
272 286 m 1
 127 141 l 1
 127 116 l 2
 127 66 190 53 216 27 c 1
 273 84 l 1
 273 284 l 1
 272 286 l 1
EndSplineSet
EndChar
StartChar: hbar
Encoding: 295 295 964
Width: 400
Flags: W
HStem: 417 20G<225 265> 417 20G<225 265> 438 74<45 63 137 180>
VStem: 63 74<40 295 329 438 512 585> 263 74<40 338.448>
AnchorPoint: "abvmark" 200 700 basechar 0
AnchorPoint: "blwmark" 200 0 basechar 0
LayerCount: 2
Back
SplineSet
280 40 m 25
 320 0 l 1049
80 40 m 25
 120 0 l 1049
80 625 m 25
 120 585 l 1049
100 605 m 9
 100 20 l 1049
300 20 m 25
 300 325 l 25
 225 400 l 1
 100 275 l 1049
200 475 m 25
 25 475 l 1049
EndSplineSet
Fore
SplineSet
237 495 m 1xb8
 180 438 l 1
 137 438 l 1
 137 329 l 1
 245 437 l 1
 337 345 l 1
 337 40 l 1
 357 20 l 1
 300 -37 l 1
 280 -17 l 1
 263 0 l 1
 243 20 l 1
 263 40 l 1
 263 305 l 2
 263 336 222 346 205 363 c 1
 137 295 l 1
 137 40 l 1
 157 20 l 1
 100 -37 l 1
 80 -17 l 1
 63 0 l 1
 43 20 l 1
 63 40 l 1
 63 255 l 1
 63 438 l 1
 5 438 l 1
 -12 455 l 1
 45 512 l 1
 63 512 l 1
 63 585 l 1
 43 605 l 1
 100 662 l 1
 128 633 l 1
 137 625 l 1
 157 605 l 1
 137 585 l 1
 137 512 l 1
 220 512 l 1
 237 495 l 1xb8
EndSplineSet
EndChar
StartChar: dotlessi
Encoding: 305 305 97
Width: 200
Flags: W
HStem: 417 20G<80 120> 417 20G<80 120>
VStem: 63 74<40 360>
AnchorPoint: "blwmark" 100 0 basechar 0
AnchorPoint: "abvmark" 100 500 basechar 0
LayerCount: 2
Back
SplineSet
80 40 m 25
 120 0 l 25
 160 40 l 1049
120 360 m 25
 80 400 l 25
 40 360 l 1049
100 380 m 9
 100 20 l 1025
EndSplineSet
Fore
SplineSet
137 400 m 1xa0
 157 380 l 1
 137 360 l 1
 137 40 l 1
 140 37 l 1
 180 77 l 1
 197 60 l 1
 100 -37 l 1
 80 -17 l 1
 63 0 l 1
 43 20 l 1
 63 40 l 1
 63 360 l 1
 60 363 l 1
 20 323 l 1
 3 340 l 1
 100 437 l 1
 120 417 l 1
 137 400 l 1xa0
EndSplineSet
EndChar
StartChar: Lslash
Encoding: 321 321 288
Width: 700
Flags: W
HStem: -37 21G<13 50 340 500> 13 74<99.3918 188 212 357.808> 467 20G<441.948 487> 513 21G<13 50> 563 74<95.6099 165.589> 563 45<87 116.608 212.896 231>
VStem: 188 24<87 240 303 539> 288 74<170 312 357 364 410 530> 513 74<167.509 252.221>
LayerCount: 2
Back
SplineSet
50 550 m 1
 50 550 84 600 124 600 c 3
 160 600 178 575 200 575 c 3
 228 575 250 600 251 600 c 1025
200 550 m 1
 200 75 l 1025
325 150 m 1
 325 550 l 1
 375 600 l 1025
600 300 m 1
 600 300 550 261 550 225 c 3
 550 164 600 101 600 101 c 1
 500 0 l 17
 500 0 349 50 150 50 c 3
 81 50 50 0 50 0 c 1033
450 450 m 25
 100 200 l 1049
EndSplineSet
Fore
SplineSet
487 470 m 1xfb80
 430 413 l 1
 362 364 l 1
 362 170 l 1
 305 113 l 1
 288 130 l 1
 288 312 l 1
 212 257 l 1
 212 86 l 1
 384 80 511 40 519 37 c 1
 563 81 l 1
 563 81 513 144 513 205 c 0
 513 227 532 251 547 266 c 2
 604 322 l 2
 613 331 620 337 620 337 c 1
 637 320 l 1
 607 290 l 2
 596 276 587 260 587 245 c 0
 587 184 637 121 637 121 c 1
 537 20 l 1
 480 -37 l 1
 480 -37 329 13 130 13 c 0
 97 13 74 2 58 -9 c 2
 30 -37 l 1
 13 -20 l 2
 13 -20 17 -14 25 -6 c 2
 25 -5 l 2
 82 51 l 2
 97 66 126 87 170 87 c 0
 176 87 182 87 188 87 c 1
 188 240 l 1
 80 163 l 1
 63 180 l 1
 120 237 l 1
 188 285 l 1
 188 539 l 2
 185 539 183 538 180 538 c 0
 158 538 140 563 104 563 c 0xfb80
 91 563 78 558 67 550 c 2
 30 513 l 1
 13 530 l 1
 13 530 20 540 31 551 c 2
 87 608 l 2
 88 608 l 0xf780
 102 622 122 637 144 637 c 0
 180 637 198 612 220 612 c 0
 248 612 270 637 271 637 c 2xfb80
 288 620 l 1
 231 563 l 2xf780
 230 563 223 555 212 548 c 1
 212 303 l 1
 288 357 l 1
 288 530 l 1
 395 637 l 1
 412 620 l 1
 362 570 l 1
 362 410 l 1
 470 487 l 1
 487 470 l 1xfb80
EndSplineSet
EndChar
StartChar: lslash
Encoding: 322 322 291
Width: 200
Flags: W
HStem: 417 20G<175 212> 417 20G<175 212>
VStem: 63 74<40 271 305 345 379 585>
LayerCount: 2
Back
SplineSet
175 400 m 25
 25 250 l 1049
80 40 m 25
 120 0 l 25
 160 40 l 1049
80 625 m 25
 120 585 l 1049
100 605 m 9
 100 20 l 1049
EndSplineSet
Fore
SplineSet
43 605 m 1xa0
 100 662 l 1
 128 633 l 1
 137 625 l 1
 157 605 l 1
 137 585 l 1
 137 379 l 1
 195 437 l 1
 212 420 l 1
 137 345 l 1
 137 40 l 1
 140 37 l 1
 180 77 l 1
 197 60 l 1
 100 -37 l 1
 80 -17 l 1
 63 0 l 1
 43 20 l 1
 63 40 l 1
 63 271 l 1
 5 213 l 1
 -12 230 l 1
 63 305 l 1
 63 585 l 1
 43 605 l 1xa0
EndSplineSet
EndChar
StartChar: eng
Encoding: 331 331 600
Width: 400
Flags: W
HStem: -237 74<199.194 248.72> -187 74<97.1397 149.605> 417 20G<80 120 225 265> 417 20G<80 120 225 265>
VStem: 63 74<40 295 329 360> 263 74<-130 305>
AnchorPoint: "abvmark" 200 500 basechar 0
LayerCount: 2
Back
SplineSet
100 275 m 25
 225 400 l 1
 300 325 l 1
 300 -150 l 1
 300 -150 253 -200 225 -200 c 0
 193 -200 156 -150 125 -150 c 16
 87 -150 50 -200 50 -200 c 1033
80 40 m 25
 120 0 l 1049
120 360 m 25
 80 400 l 1049
100 380 m 9
 100 20 l 1025
EndSplineSet
Fore
SplineSet
137 400 m 1xac
 157 380 l 1
 137 360 l 1
 137 329 l 1
 245 437 l 1
 337 345 l 1
 337 -130 l 1
 337 -130 336 -131 333 -134 c 2
 276 -191 l 2
 264 -203 228 -237 205 -237 c 0xac
 173 -237 136 -187 105 -187 c 0x4c
 90 -187 74 -195 63 -204 c 2
 30 -237 l 1x8c
 13 -220 l 1
 13 -220 19 -212 29 -202 c 2
 86 -145 l 2
 100 -131 122 -113 145 -113 c 0x4c
 176 -113 213 -163 245 -163 c 0
 251 -163 256 -162 263 -158 c 1
 263 305 l 1
 205 363 l 1
 137 295 l 1
 137 40 l 1
 157 20 l 1
 100 -37 l 1
 80 -17 l 1
 63 0 l 1
 43 20 l 1
 63 40 l 1
 63 255 l 1
 63 360 l 1
 43 380 l 1
 100 437 l 1
 120 417 l 1
 137 400 l 1xac
EndSplineSet
EndChar
StartChar: OE
Encoding: 338 338 116
Width: 1250
Flags: W
HStem: -37 74<280.149 439.23 805.149 963.215> 263 74<1056.62 1079.54> 455 21G<238 263 763 788> 513 74<1027.66 1081.25> 517 20G<925 962> 563 74<917.812 976.993>
VStem: 63 74<193.29 386.603> 263 24<66 463 533 571> 363 74<120 530> 588 77<185.625 434.656> 788 24<66 463 522 571> 888 74<120 313 353 480>
AnchorPoint: "blwmark" 600 0 basechar 0
AnchorPoint: "abvmark" 650 700 basechar 0
LayerCount: 2
Back
SplineSet
925 300 m 25
 925 300 972 350 1000 350 c 27
 1035 350 1015 300 1050 300 c 3
 1091 300 1125 350 1126 350 c 1049
800 550 m 1
 800 100 l 1025
925 500 m 1
 925 100 l 1025
800 600 m 1
 800 600 625 480 625 300 c 3
 625 134 720 0 900 0 c 3
 1019 0 1151 150 1152 150 c 1025
800 492 m 1
 800 492 895 600 955 600 c 3
 1019 600 992 550 1050 550 c 3
 1098 550 1125 600 1126 600 c 1025
275 550 m 1
 275 100 l 1025
402 550 m 1
 400 100 l 1025
275 600 m 1
 275 600 100 480 100 300 c 3
 100 134 195 0 375 0 c 3
 494 0 628 142 628 300 c 3
 628 512 536 600 425 600 c 3
 338 600 275 492 275 492 c 1025
EndSplineSet
Fore
SplineSet
780 455 m 1xe7f0
 763 472 l 1
 763 472 772 482 786 496 c 2
 788 498 l 1
 788 571 l 1
 780 563 l 1
 780 563 769 555 753 542 c 0
 713 495 674 431 664 354 c 0
 665 343 665 332 665 320 c 0
 665 309 664 299 663 288 c 0
 669 215 694 150 737 102 c 0
 752 88 769 76 788 66 c 1
 788 463 l 1
 780 455 l 1xe7f0
945 537 m 1xebf0
 962 520 l 1
 962 353 l 1
 978 368 1003 387 1020 387 c 0
 1027 387 1032 385 1036 381 c 2
 1053 364 l 2
 1059 358 1061 346 1064 337 c 0
 1066 337 1068 337 1070 337 c 0
 1086 337 1100 345 1111 353 c 2
 1146 387 l 2
 1163 370 l 1
 1160 367 1155 360 1146 351 c 2
 1145 350 l 2
 1089 293 l 2
 1075 279 1053 263 1030 263 c 0
 1023 263 1019 265 1015 269 c 0
 1014 269 l 2
 997 286 l 2
 991 293 989 304 986 313 c 0
 985 313 982 313 980 313 c 0
 974 313 969 311 962 308 c 1
 962 120 l 1
 905 63 l 1
 888 80 l 1
 888 280 l 1
 888 480 l 1
 945 537 l 1xebf0
398 563 m 1xe7f0
 372 561 348 549 328 535 c 1
 318 521 312 512 312 512 c 1
 287 487 l 1
 287 60 l 1
 277 60 l 1
 311 45 350 37 395 37 c 0
 438 37 482 55 521 85 c 1
 557 131 582 188 589 248 c 0
 588 258 588 269 588 280 c 0
 588 292 589 304 590 315 c 0
 585 411 560 478 522 521 c 1
 497 543 470 555 439 560 c 1
 437 120 l 1
 380 63 l 1
 363 80 l 1
 365 530 l 1
 398 563 l 1xe7f0
263 571 m 1
 255 563 l 1
 255 563 244 555 228 542 c 0
 183 489 137 413 137 320 c 0
 137 234 163 156 212 102 c 0
 227 88 244 76 263 66 c 1
 263 463 l 1
 255 455 l 1
 238 472 l 1
 238 472 247 488 263 507 c 1
 263 571 l 1
287 533 m 1
 338 584 l 2
 365 611 402 637 445 637 c 0
 492 637 536 621 571 586 c 2
 588 569 l 2
 614 543 635 507 648 460 c 1
 667 488 688 513 707 532 c 2
 763 588 l 2
 794 619 820 637 820 637 c 1
 837 620 l 1
 807 590 l 1
 812 590 l 1
 812 522 l 1
 842 553 l 2
 874 585 933 637 975 637 c 0xe7f0
 997 637 1007 631 1015 623 c 2
 1033 606 l 2
 1037 602 1040 596 1043 592 c 0
 1050 588 1058 587 1070 587 c 0xf3f0
 1084 587 1096 591 1106 597 c 2
 1146 637 l 2xe7f0
 1163 620 l 2
 1161 618 1155 607 1144 596 c 2
 1087 540 l 2
 1074 527 1055 513 1030 513 c 0xf3f0
 1012 513 1002 518 995 525 c 0
 978 542 l 2
 974 546 970 551 967 556 c 0
 960 560 950 563 935 563 c 0
 902 563 860 531 827 502 c 2
 812 487 l 1
 812 60 l 1
 802 60 l 1
 836 45 875 37 920 37 c 0
 1003 37 1092 109 1138 153 c 2
 1171 186 l 1
 1172 187 l 2
 1189 170 l 1
 1187 168 l 2
 1184 165 1180 161 1172 153 c 2
 1115 95 l 2
 1075 55 973 -37 880 -37 c 0
 798 -37 734 -9 688 37 c 2
 671 54 l 2
 645 80 625 112 611 148 c 1
 598 129 584 111 568 95 c 2
 512 38 l 2
 466 -8 409 -37 355 -37 c 0
 273 -37 209 -9 163 37 c 2
 146 54 l 2
 91 109 63 189 63 280 c 0
 63 392 131 481 182 532 c 2
 238 588 l 2
 269 619 295 637 295 637 c 1
 312 620 l 1
 282 590 l 1
 287 590 l 1
 287 533 l 1
EndSplineSet
EndChar
StartChar: oe
Encoding: 339 339 115
Width: 550
Flags: W
HStem: 417 20G<200 240 400 440> 417 20G<200 240 400 440>
VStem: 63 74<120 280> 263 74<154 280>
AnchorPoint: "blwmark" 300 0 basechar 0
AnchorPoint: "abvmark" 300 500 basechar 0
LayerCount: 2
Back
SplineSet
500 100 m 9
 400 0 l 25
 300 100 l 25
 300 300 l 25
 400 400 l 25
 500 300 l 1
 300 100 l 25
 200 0 l 1
 100 100 l 25
 100 300 l 25
 200 400 l 25
 300 300 l 1041
EndSplineSet
Fore
SplineSet
337 154 m 1x30
 463 280 l 1
 380 363 l 1
 337 320 l 1
 337 154 l 1x30
280 63 m 1
 180 -37 l 1
 63 80 l 1
 63 280 l 1
 220 437 l 1
 320 337 l 1
 420 437 l 1xb0
 537 320 l 1
 337 120 l 1
 420 37 l 1
 520 137 l 1
 537 120 l 1
 380 -37 l 1
 280 63 l 1
263 280 m 1
 180 363 l 1
 137 320 l 1
 137 120 l 1
 220 37 l 1
 263 80 l 1
 263 280 l 1
EndSplineSet
EndChar
StartChar: longs
Encoding: 383 383 95
Width: 300
Flags: W
HStem: -237 74<24.1938 73.6421> -187 74<-77.5544 -25.3946> 613 24<343.57 349.833>
VStem: 88 74<-130 530>
AnchorPoint: "abvmark" 175 750 basechar 0
LayerCount: 2
Back
SplineSet
-125 -200 m 17
 -125 -200 -88 -150 -50 -150 c 8
 -19 -150 18 -200 50 -200 c 24
 78 -200 125 -150 125 -150 c 1
 125 550 l 1
 225 650 l 17
 225 650 256 600 300 600 c 24
 328 600 375 650 376 650 c 1033
EndSplineSet
Fore
SplineSet
-145 -237 m 1xb0
 -162 -220 l 1
 -162 -220 -156 -212 -146 -202 c 2
 -89 -145 l 2
 -74 -130 -52 -113 -30 -113 c 0x70
 1 -113 38 -163 70 -163 c 0
 76 -163 82 -161 88 -158 c 1
 88 530 l 1
 245 687 l 1
 262 670 l 1
 262 670 266 664 272 657 c 0
 285 646 301 637 320 637 c 0
 348 637 395 687 396 687 c 2
 413 670 l 1
 356 613 l 2
 355 613 308 563 280 563 c 0
 257 563 237 577 224 590 c 0
 223 591 l 2
 206 608 l 2
 205 609 204 610 203 611 c 2
 162 570 l 1
 162 -130 l 2
 162 -130 161 -131 158 -134 c 2
 101 -191 l 2
 89 -203 53 -237 30 -237 c 0xb0
 -2 -237 -39 -187 -70 -187 c 0x70
 -85 -187 -100 -195 -112 -204 c 2
 -145 -237 l 1xb0
EndSplineSet
EndChar
StartChar: florin
Encoding: 402 402 260
Width: 400
Flags: W
HStem: -227 54<20.2856 81.1717> -177 22<-94 -81.3897> 373 54<116 175 232 334> 573 54<368.356 430.88>
LayerCount: 2
Back
SplineSet
-125 -200 m 17
 -125 -200 -88 -150 -50 -150 c 8
 -6 -150 6 -200 50 -200 c 24
 85 -200 125 -150 125 -150 c 1
 225 550 l 1
 325 650 l 17
 325 650 365 600 400 600 c 24
 435 600 475 650 476 650 c 1033
100 400 m 25
 350 400 l 1049
EndSplineSet
Fore
SplineSet
73 384 m 1xb0
 116 427 l 1
 183 427 l 1
 198 534 l 1
 341 677 l 1
 352 666 l 1
 352 666 355 661 360 656 c 0
 375 642 396 627 416 627 c 0
 434 627 454 641 468 653 c 2
 491 676 l 2
 491 677 l 0
 492 677 l 2
 503 666 l 1
 501 664 l 2
 499 662 495 657 490 652 c 2
 448 610 l 2
 433 595 407 573 384 573 c 0
 362 573 339 593 324 608 c 0
 323 608 l 2
 312 619 l 2
 311 620 310 621 309 622 c 2
 252 566 l 1
 232 427 l 1
 366 427 l 1
 377 416 l 1
 334 373 l 1
 224 373 l 1
 152 -134 l 1
 152 -134 146 -141 138 -149 c 2
 96 -192 l 2
 81 -207 56 -227 34 -227 c 0xb0
 -10 -227 -22 -177 -66 -177 c 0x70
 -81 -177 -94 -184 -107 -194 c 2
 -141 -227 l 1xb0
 -152 -216 l 1
 -152 -216 -146 -208 -136 -198 c 2
 -94 -155 l 2
 -93 -155 l 0x70
 -78 -140 -56 -123 -34 -123 c 0
 10 -123 22 -173 66 -173 c 0
 77 -173 90 -167 99 -161 c 1
 175 373 l 1
 84 373 l 1
 73 384 l 1xb0
EndSplineSet
EndChar
StartChar: hv
Encoding: 405 405 514
Width: 600
Flags: W
HStem: 417 20G<225 265> 417 20G<225 265 501.19 542>
VStem: 63 74<40 295 329 585> 263 74<120 338.448> 413 74<430.6 501.017> 463 74<120 355>
AnchorPoint: "blwmark" 300 0 basechar 0
AnchorPoint: "abvmark" 300 700 basechar 0
LayerCount: 2
Back
SplineSet
505 550 m 25
 504 550 450 514 450 472 c 16
 450 423 500 375 500 375 c 25
 500 100 l 1
 400 0 l 25
 300 100 l 1
 300 325 l 25
 225 400 l 1
 100 275 l 1049
80 40 m 25
 120 0 l 1049
80 625 m 25
 120 585 l 1049
100 605 m 9
 100 20 l 1049
EndSplineSet
Fore
SplineSet
43 605 m 1xb4
 100 662 l 1
 128 633 l 1
 137 625 l 1
 157 605 l 1
 137 585 l 1
 137 329 l 1
 245 437 l 1
 337 345 l 1
 337 120 l 1
 420 37 l 1
 463 80 l 1
 463 355 l 1xb4
 462 356 l 2
 456 362 413 407 413 452 c 0
 413 474 427 494 442 509 c 0
 443 510 l 2
 500 566 l 2
 513 579 525 587 525 587 c 2
 542 570 l 1
 497 525 l 2
 490 514 487 504 487 492 c 0xb8
 487 449 526 406 535 397 c 2
 537 395 l 1
 537 120 l 1
 380 -37 l 1
 263 80 l 1
 263 305 l 2
 263 336 222 346 205 363 c 1
 137 295 l 1
 137 40 l 1
 157 20 l 1
 100 -37 l 1
 80 -17 l 1
 63 0 l 1
 43 20 l 1
 63 40 l 1
 63 255 l 1
 63 585 l 1
 43 605 l 1xb4
EndSplineSet
EndChar
StartChar: wynn
Encoding: 447 447 877
Width: 400
Flags: W
HStem: -187 21G<63 100> 417 20G<80 120 200 240> 417 20G<80 120 200 240>
VStem: 63 74<-130 -54 -20 20 54 320 354 360> 263 74<220 320>
AnchorPoint: "abvmark" 200 500 basechar 0
LayerCount: 2
Back
SplineSet
50 -50 m 9
 300 200 l 1
 300 300 l 25
 200 400 l 1
 100 300 l 1049
80 400 m 25
 120 360 l 1049
100 380 m 1
 100 -150 l 1025
EndSplineSet
Fore
SplineSet
43 380 m 1xd8
 100 437 l 1
 120 417 l 1
 137 400 l 1
 157 380 l 1
 137 360 l 1
 137 354 l 1
 220 437 l 1
 337 320 l 1
 337 220 l 1
 137 20 l 1
 137 -130 l 1
 80 -187 l 1
 63 -170 l 1
 63 -54 l 1
 30 -87 l 1
 13 -70 l 1
 63 -20 l 1
 63 280 l 1
 63 360 l 1
 43 380 l 1xd8
137 320 m 1
 137 54 l 1
 263 180 l 1
 263 280 l 2
 263 325 204 339 180 363 c 1
 137 320 l 1
EndSplineSet
EndChar
StartChar: HV
Encoding: 502 502 513
Width: 900
Flags: W
HStem: -37 21G<13 50 238 275 575 625> 13 74<99.3918 186.608> 513 21G<13 50> 563 74<95.6099 165.589> 563 45<87 116.608 212.896 231>
VStem: 188 24<86 539> 288 74<70 220 254 530> 513 74<75 305> 663 74<447 506.137> 738 74<171 388.125>
AnchorPoint: "blwmark" 475 0 basechar 0
AnchorPoint: "abvmark" 500 700 basechar 0
LayerCount: 2
Back
SplineSet
50 550 m 1
 50 550 84 600 124 600 c 3
 160 600 178 575 200 575 c 3
 228 575 250 600 251 600 c 1025
200 550 m 1
 200 75 l 1025
375 250 m 1
 500 375 l 1
 550 325 l 1
 550 50 l 1
 625 0 l 1
 775 151 l 1
 775 415 l 1
 775 415 700 419 700 475 c 3
 700 530 800 600 800 600 c 1025
375 600 m 1
 325 550 l 1
 325 50 l 1
 275 0 l 1
 275 0 248 50 150 50 c 3
 81 50 50 0 50 0 c 1033
EndSplineSet
Fore
SplineSet
395 637 m 1xf7c0
 412 620 l 1
 362 570 l 1
 362 254 l 1
 520 412 l 1
 587 345 l 1
 587 75 l 1
 645 37 l 1
 738 131 l 1
 738 381 l 1
 725 384 707 390 695 402 c 2
 678 419 l 2
 669 428 663 439 663 455 c 0
 663 481 686 511 710 535 c 2
 766 592 l 2
 767 593 l 2
 793 619 820 637 820 637 c 2xf7c0
 837 620 l 1
 780 563 l 2xefc0
 780 563 772 558 759 547 c 0
 747 530 737 512 737 495 c 0
 737 484 739 475 744 468 c 0
 765 454 795 452 795 452 c 1
 812 435 l 1
 812 171 l 1
 662 20 l 1
 605 -37 l 1
 530 13 l 1
 513 30 l 1
 513 305 l 1
 480 338 l 1
 362 220 l 1
 362 70 l 1
 255 -37 l 1
 238 -20 l 1
 238 -20 237 -18 236 -16 c 0
 218 -2 185 13 130 13 c 0
 97 13 74 2 58 -9 c 2
 30 -37 l 1
 13 -20 l 2
 13 -20 17 -14 25 -6 c 2
 25 -5 l 2
 82 51 l 2
 97 66 126 87 170 87 c 0
 176 87 182 86 188 86 c 1
 188 539 l 2
 185 539 183 538 180 538 c 0
 158 538 140 563 104 563 c 0xf7c0
 91 563 78 558 67 550 c 2
 30 513 l 1
 13 530 l 1
 13 530 20 540 31 551 c 2
 87 608 l 2
 88 608 l 0xefc0
 102 622 122 637 144 637 c 0
 180 637 198 612 220 612 c 0
 248 612 270 637 271 637 c 2xf7c0
 288 620 l 1
 231 563 l 2xefc0
 230 563 223 555 212 548 c 1
 212 83 l 1
 251 76 273 60 285 49 c 0
 288 46 l 1
 288 530 l 1
 395 637 l 1xf7c0
EndSplineSet
EndChar
StartChar: dotlessj
Encoding: 567 567 98
Width: 200
Flags: W
HStem: 417 20G<80 120> 417 20G<80 120>
VStem: 63 74<-80 360>
AnchorPoint: "abvmark" 100 500 basechar 0
LayerCount: 2
Back
SplineSet
120 360 m 25
 80 400 l 25
 40 360 l 1049
100 380 m 1
 100 -100 l 9
 60 -140 l 1049
EndSplineSet
Fore
SplineSet
137 400 m 1xa0
 157 380 l 1
 137 360 l 1
 137 -80 l 1
 40 -177 l 1
 23 -160 l 1
 63 -120 l 1
 63 360 l 1
 60 363 l 1
 20 323 l 1
 3 340 l 1
 100 437 l 1
 120 417 l 1
 137 400 l 1xa0
EndSplineSet
EndChar
StartChar: ascript
Encoding: 593 593 348
Width: 400
Flags: W
HStem: 417 20G<200 237 300 337> 417 20G<200 237 300 337>
VStem: 63 74<61.5521 280> 263 74<45 71 105 341>
AnchorPoint: "blwmark" 200 0 basechar 0
AnchorPoint: "abvmark" 225 500 basechar 0
LayerCount: 2
Back
SplineSet
375 50 m 25
 325 0 l 1
 300 25 l 1
 300 400 l 1
 300 400 278 360 250 360 c 0
 222 360 200 400 200 400 c 9
 100 300 l 1
 100 75 l 17
 175 0 l 1
 300 125 l 1049
EndSplineSet
Fore
SplineSet
263 341 m 2x30
 262 340 263 341 262 340 c 0
 262 339 l 0
 253 330 242 323 230 323 c 0
 218 323 207 331 198 340 c 2
 181 357 l 2
 180 358 178 359 177 360 c 2
 137 320 l 1
 137 95 l 2
 137 64 178 54 195 37 c 1
 263 105 l 1
 263 341 l 2x30
263 71 m 1
 155 -37 l 1
 63 55 l 1
 63 280 l 1
 220 437 l 1
 237 420 l 2
 237 420 240 414 246 406 c 0
 252 401 262 397 270 397 c 0
 274 397 278 397 282 399 c 2
 320 437 l 1xb0
 337 420 l 1
 337 45 l 1
 345 37 l 1
 395 87 l 1
 412 70 l 1
 305 -37 l 1
 263 5 l 1
 263 71 l 1
EndSplineSet
EndChar
StartChar: Rsmallcap
Encoding: 640 640 854
Width: 450
Flags: W
HStem: 417 20G<80 120 200 250> 417 20G<80 120 200 250>
VStem: 63 74<40 320 354 360>
AnchorPoint: "blwmark" 225 0 basechar 0
AnchorPoint: "abvmark" 200 500 basechar 0
LayerCount: 2
Back
SplineSet
80 40 m 25
 120 0 l 1049
80 400 m 25
 120 360 l 1049
100 380 m 9
 100 20 l 1025
400 50 m 25
 350 0 l 1
 350 0 331 82 300 125 c 24
 280 154 225 175 225 175 c 1025
200 150 m 1
 350 300 l 1
 200 400 l 1
 100 300 l 1049
EndSplineSet
Fore
SplineSet
180 113 m 1xa0
 163 130 l 1
 188 155 l 1
 245 212 l 1
 310 277 l 1
 180 363 l 2
 180 363 141 324 137 320 c 1
 137 40 l 1
 157 20 l 1
 100 -37 l 1
 80 -17 l 1
 63 0 l 1
 43 20 l 1
 63 40 l 1
 63 280 l 1
 63 360 l 1
 43 380 l 1
 100 437 l 1
 120 417 l 1
 137 400 l 1
 157 380 l 1
 137 360 l 1
 137 354 l 1
 220 437 l 1
 370 337 l 1
 387 320 l 1
 268 201 l 1
 282 194 299 184 311 172 c 0
 312 172 l 2
 312 171 l 1
 329 154 l 2
 332 151 335 148 337 145 c 0
 357 118 372 75 380 47 c 1
 420 87 l 1
 437 70 l 1
 330 -37 l 1
 313 -20 l 1
 313 -20 294 62 263 105 c 0
 262 107 l 0
 238 126 205 138 205 138 c 2
 180 113 l 1xa0
EndSplineSet
EndChar
StartChar: circumflex
Encoding: 710 710 100
Width: 400
Flags: W
HStem: 498 229
VStem: 173 54<634.156 684>
LayerCount: 2
Back
SplineSet
300 525 m 25
 300 525 200 600 200 700 c 1
 200 550 100 525 100 525 c 1025
EndSplineSet
Fore
SplineSet
327 541 m 1
 284 498 l 1
 284 498 274 506 259 521 c 2
 247 533 l 2
 231 549 212 571 197 598 c 1
 191 588 184 579 177 572 c 2
 134 529 l 2
 109 504 84 498 84 498 c 2
 73 509 l 1
 116 552 l 1
 116 552 127 554 142 564 c 1
 150 577 158 593 164 613 c 0
 170 633 173 656 173 684 c 1
 216 727 l 1
 227 716 l 1
 227 699 230 682 235 667 c 0
 248 626 273 592 295 569 c 0
 307 558 316 552 316 552 c 1
 327 541 l 1
EndSplineSet
EndChar
StartChar: caron
Encoding: 711 711 245
Width: 400
Flags: W
HStem: 488 249
VStem: 163 74<545 585.984>
LayerCount: 2
Back
SplineSet
100 700 m 25
 100 700 200 625 200 525 c 1
 200 675 300 700 300 700 c 1025
EndSplineSet
Fore
SplineSet
237 548 m 0
 237 546 237 547 237 545 c 2
 180 488 l 1
 163 505 l 2
 163 507 163 506 163 508 c 0
 163 527 159 543 153 560 c 0
 140 596 118 627 98 648 c 0
 88 657 80 663 80 663 c 1
 63 680 l 1
 120 737 l 1
 120 737 131 729 146 714 c 2
 163 697 l 2
 176 684 193 665 207 642 c 1
 209 645 211 647 213 649 c 2
 270 706 l 2
 295 731 320 737 320 737 c 1
 337 720 l 1
 280 663 l 1
 280 663 273 662 262 656 c 1
 258 649 254 640 251 631 c 0
 243 608 237 583 237 548 c 0
EndSplineSet
EndChar
StartChar: verticallinemod
Encoding: 712 712 887
Width: 400
Flags: W
HStem: 498 229
VStem: 173 54<541 684>
LayerCount: 2
Back
SplineSet
200 700 m 9
 200 525 l 1025
EndSplineSet
Fore
SplineSet
216 727 m 1
 227 716 l 1
 227 541 l 1
 184 498 l 1
 173 509 l 1
 173 684 l 1
 216 727 l 1
EndSplineSet
EndChar
StartChar: breve
Encoding: 728 728 265
Width: 400
Flags: W
HStem: 488 74<159.737 254.352>
VStem: 63 299
LayerCount: 2
Back
SplineSet
100 600 m 17
 100 600 114.77749776 525 225 525 c 3
 270 525 325 600 325 600 c 1033
EndSplineSet
Fore
SplineSet
120 637 m 1
 137 620 l 1
 137 620 139 605 152 589 c 1
 171 574 200 562 245 562 c 0
 259 562 274 569 287 578 c 0
 288 579 288 580 288 580 c 1
 345 637 l 1
 362 620 l 1
 362 620 349 604 332 586 c 2
 276 529 l 2
 256 509 229 488 205 488 c 0
 152 488 122 505 104 523 c 2
 87 540 l 2
 67 560 63 580 63 580 c 1
 120 637 l 1
EndSplineSet
EndChar
StartChar: dotaccent
Encoding: 729 729 269
Width: 400
Flags: W
HStem: 533 84
VStem: 158 84
LayerCount: 2
Back
SplineSet
185 590 m 25
 215 560 l 1049
EndSplineSet
Fore
SplineSet
158 574 m 1
 201 617 l 1
 242 576 l 1
 199 533 l 1
 158 574 l 1
EndSplineSet
EndChar
StartChar: ring
Encoding: 730 730 184
Width: 400
Flags: W
HStem: 488 74<169.093 262.843> 688 74<137.157 230.911>
VStem: 63 74<594.093 687.843> 263 74<562.157 655.907>
LayerCount: 2
Back
SplineSet
100 650 m 0
 100 710 115 725 175 725 c 0
 250 725 300 675 300 600 c 0
 300 540 285 525 225 525 c 0
 150 525 100 575 100 650 c 0
EndSplineSet
Fore
SplineSet
63 630 m 0
 63 660 67 679 78 690 c 2
 135 747 l 2
 146 758 165 762 195 762 c 0
 233 762 264 749 286 727 c 2
 303 710 l 2
 325 688 337 657 337 620 c 0
 337 590 333 571 322 560 c 2
 265 503 l 2
 254 492 235 488 205 488 c 0
 168 488 137 500 115 522 c 2
 98 539 l 1
 97 540 l 0
 75 562 63 593 63 630 c 0
137 670 m 0
 137 637 146 609 163 588 c 1
 184 571 212 562 245 562 c 0
 252 562 257 562 263 562 c 1
 263 567 263 574 263 580 c 0
 263 613 254 641 237 662 c 1
 216 679 188 688 155 688 c 0
 148 688 143 688 137 688 c 1
 137 683 137 676 137 670 c 0
EndSplineSet
EndChar
StartChar: ogonek
Encoding: 731 731 283
Width: 400
Flags: W
HStem: -237 274
VStem: 88 74<-122 -95>
LayerCount: 2
Back
SplineSet
200 0 m 25
 125 -75 l 1
 125 -150 l 9
 225 -200 l 25
 275 -150 l 1049
EndSplineSet
Fore
SplineSet
220 37 m 1
 237 20 l 1
 162 -55 l 1
 162 -122 l 1
 245 -163 l 2
 245 -163 290 -118 295 -113 c 1
 312 -130 l 1
 205 -237 l 1
 105 -187 l 1
 88 -170 l 1
 88 -95 l 1
 220 37 l 1
EndSplineSet
EndChar
StartChar: tilde
Encoding: 732 732 168
Width: 400
Flags: W
HStem: 488 21G<13 50> 513 74<181.271 301.624> 538 74<98.4014 218.729>
LayerCount: 2
Back
SplineSet
50 525 m 17
 50 525 90 575 125 575 c 27
 184 575 216 550 275 550 c 27
 310 550 350 600 350 600 c 1033
EndSplineSet
Fore
SplineSet
30 488 m 1xa0
 13 505 l 1
 13 505 19 512 27 520 c 2
 84 577 l 2
 99 592 123 612 145 612 c 0xa0
 204 612 236 587 295 587 c 0
 311 587 328 597 341 608 c 2
 370 637 l 1
 387 620 l 2
 387 620 382 614 374 605 c 2
 373 605 l 2
 316 548 l 2
 301 533 277 513 255 513 c 0xc0
 196 513 164 538 105 538 c 0
 89 538 73 529 59 517 c 2
 30 488 l 1xa0
EndSplineSet
EndChar
StartChar: hungarumlaut
Encoding: 733 733 267
Width: 400
Flags: W
HStem: 498 229
VStem: 173 54<643.878 684> 323 54<643.878 684>
LayerCount: 2
Back
SplineSet
350 700 m 17
 350 600 225 525 225 525 c 1049
200 700 m 17
 200 600 75 525 75 525 c 1049
EndSplineSet
Fore
SplineSet
216 727 m 1
 227 716 l 1
 227 666 195 621 164 590 c 2
 122 548 l 2
 91 517 59 498 59 498 c 1
 48 509 l 1
 91 552 l 2
 91 552 108 562 130 581 c 1
 153 609 173 644 173 684 c 1
 216 727 l 1
366 727 m 1
 377 716 l 1
 377 666 345 621 314 590 c 2
 272 548 l 2
 241 517 209 498 209 498 c 1
 198 509 l 1
 241 552 l 2
 241 552 258 562 280 581 c 1
 303 609 323 644 323 684 c 1
 366 727 l 1
EndSplineSet
EndChar
StartChar: ringbelow
Encoding: 755 755 886
Width: 400
Flags: W
HStem: -312 74<169.089 262.843> -112 74<137.157 230.911>
VStem: 63 74<-205.907 -112.157> 263 74<-237.843 -144.093>
LayerCount: 2
Back
SplineSet
100 -150 m 0
 100 -90 115 -75 175 -75 c 0
 250 -75 300 -125 300 -200 c 0
 300 -260 285 -275 225 -275 c 0
 150 -275 100 -225 100 -150 c 0
EndSplineSet
Fore
SplineSet
63 -170 m 0
 63 -140 67 -121 78 -110 c 2
 135 -53 l 2
 146 -42 165 -38 195 -38 c 0
 233 -38 264 -51 286 -73 c 2
 303 -90 l 2
 325 -112 337 -143 337 -180 c 0
 337 -210 333 -229 322 -240 c 2
 265 -297 l 2
 254 -308 235 -312 205 -312 c 0
 167 -312 136 -299 114 -277 c 2
 97 -260 l 2
 75 -238 63 -207 63 -170 c 0
137 -130 m 0
 137 -163 146 -191 163 -212 c 1
 184 -229 212 -238 245 -238 c 0
 252 -238 257 -238 263 -238 c 1
 263 -233 263 -226 263 -220 c 0
 263 -187 254 -159 237 -138 c 1
 216 -121 188 -112 155 -112 c 0
 148 -112 143 -112 137 -112 c 1
 137 -117 137 -124 137 -130 c 0
EndSplineSet
EndChar
StartChar: hookcmb
Encoding: 777 777 381
Width: 0
Flags: W
HStem: 473 254 548 21G<-302 -271>
VStem: -127 54<616 650>
AnchorPoint: "abvmark" -200 500 mark 0
LayerCount: 2
Back
SplineSet
-200 500 m 1
 -100 600 l 1
 -100 675 l 1
 -225 700 l 25
 -300 625 l 1
 -275 575 l 1049
EndSplineSet
Fore
SplineSet
-216 473 m 1xa0
 -227 484 l 1
 -127 584 l 1
 -127 650 l 1
 -241 673 l 2
 -241 673 -269 645 -273 641 c 1
 -248 591 l 1
 -291 548 l 1x60
 -302 559 l 1
 -327 609 l 1
 -209 727 l 1
 -84 702 l 1
 -73 691 l 1
 -73 616 l 1
 -216 473 l 1xa0
EndSplineSet
EndChar
StartChar: dotbelowcmb
Encoding: 803 803 357
Width: 0
VWidth: 400
Flags: W
HStem: -182 114
VStem: -257 114
AnchorPoint: "blwmark" -200 0 mark 0
LayerCount: 2
Back
SplineSet
-220 -105 m 25
 -180 -145 l 1049
EndSplineSet
Fore
SplineSet
-257 -125 m 1
 -200 -68 l 1
 -143 -125 l 1
 -200 -182 l 1
 -257 -125 l 1
EndSplineSet
EndChar
StartChar: breveinvertedbelowcmb
Encoding: 815 815 537
Width: 0
VWidth: 400
Flags: W
HStem: -152 54<-233.205 -129.896>
VStem: -327 279
AnchorPoint: "blwmark" -200 0 mark 0
LayerCount: 2
Back
SplineSet
-75 -200 m 21
 -75 -200 -89.77734375 -125 -200 -125 c 7
 -245 -125 -300 -200 -300 -200 c 1037
EndSplineSet
Fore
SplineSet
-91 -227 m 1
 -102 -216 l 1
 -102 -216 -105 -198 -120 -181 c 0
 -139 -165 -169 -152 -216 -152 c 0
 -232 -152 -250 -162 -265 -174 c 0
 -270 -180 -273 -184 -273 -184 c 2
 -316 -227 l 1
 -327 -216 l 1
 -327 -216 -314 -200 -297 -182 c 2
 -255 -139 l 2
 -235 -119 -208 -98 -184 -98 c 0
 -131 -98 -101 -115 -83 -133 c 2
 -72 -144 l 2
 -52 -164 -48 -184 -48 -184 c 1
 -91 -227 l 1
EndSplineSet
EndChar
StartChar: tridotright
Encoding: 4347 4347 895
Width: 500
Flags: W
LayerCount: 2
Back
SplineSet
380 195 m 25
 420 155 l 1049
130 350 m 25
 170 310 l 1049
130 40 m 25
 170 0 l 1049
EndSplineSet
Fore
SplineSet
93 20 m 1
 150 77 l 1
 207 20 l 1
 150 -37 l 1
 93 20 l 1
93 330 m 1
 150 387 l 1
 207 330 l 1
 150 273 l 1
 93 330 l 1
343 175 m 1
 400 232 l 1
 457 175 l 1
 400 118 l 1
 343 175 l 1
EndSplineSet
EndChar
StartChar: Germandbls
Encoding: 7838 7838 136
Width: 700
Flags: W
HStem: -152 54<258.078 435.098> -27 21G<23 54 248 279> 23 54<95.2575 190.937> 523 21G<23 54> 548 54<161.837 192> 573 25<83 97.9505 220.009 235> 607 20G<266.5 278 371 427>
VStem: 192 16<76 549> 298 54<66 534> 573 54<-109 204 391 454>
AnchorPoint: "abvmark" 400 700 basechar 0
LayerCount: 2
Back
SplineSet
50 0 m 17
 50 0 81 50 150 50 c 3
 248 50 275 0 275 0 c 1
 325 50 l 1
 325 550 l 1
 375 600 l 1
 600 475 l 1
 600 375 l 1
 500 275 l 9
 600 225 l 25
 600 -125 l 25
 525 -200 l 1
 499 -160 416.752929688 -125 350 -125 c 3
 221.902380975 -125 175 -200 175 -200 c 1025
50 550 m 1
 50 550 84 600 124 600 c 3
 160 600 178 575 200 575 c 3
 228 575 250 600 251 600 c 1025
200 550 m 1
 200 75 l 1025
EndSplineSet
Fore
SplineSet
34 523 m 1xf7c0
 23 534 l 1
 23 534 30 544 41 555 c 2
 83 598 l 2
 84 598 l 0xf7c0
 98 612 118 627 140 627 c 0
 176 627 194 602 216 602 c 0xfbc0
 244 602 266 627 267 627 c 2
 278 616 l 1
 235 573 l 2
 234 573 224 561 208 554 c 1
 208 73 l 1
 247 66 270 50 281 39 c 2
 292 28 l 1
 298 34 l 1
 298 534 l 1
 391 627 l 1
 616 502 l 1
 627 491 l 1
 627 391 l 1
 531 294 l 1
 616 252 l 1
 627 241 l 1
 627 -109 l 1
 509 -227 l 1
 498 -216 l 2
 496 -213 494 -209 492 -207 c 0
 456 -176 389 -152 334 -152 c 0
 264 -152 219 -174 192 -194 c 1
 159 -227 l 1
 148 -216 l 2
 148 -216 152 -209 162 -199 c 2
 205 -156 l 2
 227 -134 277 -98 366 -98 c 0
 425 -98 495 -125 529 -159 c 2
 540 -170 l 2
 541 -171 541 -171 542 -172 c 2
 573 -141 l 1
 573 204 l 1
 484 248 l 1
 473 259 l 1
 573 359 l 1
 573 454 l 1
 359 573 l 1xf7c0
 352 566 l 1
 352 66 l 1
 259 -27 l 1
 248 -16 l 1
 248 -16 247 -13 244 -9 c 0
 227 5 193 23 134 23 c 0
 102 23 78 13 62 1 c 2
 34 -27 l 1
 23 -16 l 1
 23 -16 27 -9 35 -1 c 2
 78 41 l 2
 93 56 122 77 166 77 c 0
 175 77 184 77 192 76 c 1
 192 549 l 2
 190 549 187 548 184 548 c 0xfbc0
 162 548 144 573 108 573 c 0
 95 573 83 568 71 560 c 2
 34 523 l 1xf7c0
EndSplineSet
EndChar
StartChar: figuredash
Encoding: 8210 8210 908
Width: 400
Flags: W
HStem: 163 74<120 280>
VStem: 63 274
LayerCount: 2
Back
SplineSet
100 200 m 25
 300 200 l 1049
EndSplineSet
Fore
SplineSet
63 180 m 1
 120 237 l 1
 320 237 l 1
 337 220 l 1
 280 163 l 1
 80 163 l 1
 63 180 l 1
EndSplineSet
EndChar
StartChar: endash
Encoding: 8211 8211 257
Width: 400
Flags: W
HStem: 163 74<70 330>
LayerCount: 2
Back
SplineSet
50 200 m 25
 350 200 l 1049
EndSplineSet
Fore
SplineSet
13 180 m 1
 70 237 l 1
 370 237 l 1
 387 220 l 1
 330 163 l 1
 30 163 l 1
 13 180 l 1
EndSplineSet
EndChar
StartChar: emdash
Encoding: 8212 8212 258
Width: 600
Flags: W
HStem: 173 54<66 534>
LayerCount: 2
Back
SplineSet
50 200 m 25
 550 200 l 1049
EndSplineSet
Fore
SplineSet
23 184 m 1
 66 227 l 1
 566 227 l 1
 577 216 l 1
 534 173 l 1
 34 173 l 1
 23 184 l 1
EndSplineSet
EndChar
StartChar: horizontalbar
Encoding: 8213 8213 909
Width: 700
Flags: W
HStem: 163 74<70 630>
LayerCount: 2
Back
SplineSet
50 200 m 25
 650 200 l 1049
EndSplineSet
Fore
SplineSet
13 180 m 1
 70 237 l 1
 670 237 l 1
 687 220 l 1
 630 163 l 1
 30 163 l 1
 13 180 l 1
EndSplineSet
EndChar
StartChar: quoteleft
Encoding: 8216 8216 254
Width: 300
Flags: W
HStem: 398 214
VStem: 96 133
LayerCount: 2
Back
SplineSet
172.5 435 m 25
 132.5 475 l 1
 132.5 515 l 25
 192.5 575 l 1049
EndSplineSet
Fore
SplineSet
209 455 m 1
 153 398 l 1
 96 455 l 1
 96 495 l 1
 212 612 l 1
 229 595 l 1
 169 535 l 1
 169 495 l 1
 209 455 l 1
EndSplineSet
EndChar
StartChar: quoteright
Encoding: 8217 8217 255
Width: 300
Flags: W
HStem: 448 159
VStem: 88 99
LayerCount: 2
Back
SplineSet
130 580 m 25
 160 550 l 1
 160 520 l 25
 115 475 l 1049
EndSplineSet
Fore
SplineSet
103 564 m 1
 146 607 l 1
 187 566 l 1
 187 536 l 1
 99 448 l 1
 88 459 l 1
 133 504 l 1
 133 534 l 1
 103 564 l 1
EndSplineSet
EndChar
StartChar: quotesinglbase
Encoding: 8218 8218 256
Width: 300
VWidth: 450
Flags: W
HStem: -137 214
VStem: 71 133
LayerCount: 2
Back
SplineSet
127.5 40 m 25
 167.5 0 l 1
 167.5 -40 l 25
 107.5 -100 l 1049
EndSplineSet
Fore
SplineSet
91 20 m 1
 147 77 l 1
 204 20 l 1
 204 -20 l 1
 88 -137 l 1
 71 -120 l 1
 131 -60 l 1
 131 -20 l 1
 91 20 l 1
EndSplineSet
EndChar
StartChar: quotereversed
Encoding: 8219 8219 928
Width: 300
Flags: W
HStem: 413 214
VStem: 96 133
LayerCount: 2
Back
SplineSet
172.5 590 m 25
 132.5 550 l 1
 132.5 510 l 25
 192.5 450 l 1049
EndSplineSet
Fore
SplineSet
153 627 m 1
 209 570 l 1
 169 530 l 1
 169 490 l 1
 229 430 l 1
 212 413 l 1
 96 530 l 1
 96 570 l 1
 153 627 l 1
EndSplineSet
EndChar
StartChar: quotedblleft
Encoding: 8220 8220 251
Width: 500
Flags: W
HStem: 398 214
LayerCount: 2
Back
SplineSet
172.5 435 m 25
 132.5 475 l 1
 132.5 515 l 25
 192.5 575 l 1049
372.5 435 m 25
 332.5 475 l 1
 332.5 515 l 25
 392.5 575 l 1049
EndSplineSet
Fore
SplineSet
409 455 m 1
 353 398 l 1
 296 455 l 1
 296 495 l 1
 412 612 l 1
 429 595 l 1
 369 535 l 1
 369 495 l 1
 409 455 l 1
209 455 m 1
 153 398 l 1
 96 455 l 1
 96 495 l 1
 212 612 l 1
 229 595 l 1
 169 535 l 1
 169 495 l 1
 209 455 l 1
EndSplineSet
EndChar
StartChar: quotedblright
Encoding: 8221 8221 252
Width: 500
Flags: W
HStem: 448 159
VStem: 88 299
LayerCount: 2
Back
SplineSet
330 580 m 25
 360 550 l 1
 360 520 l 25
 315 475 l 1049
130 580 m 25
 160 550 l 1
 160 520 l 25
 115 475 l 1049
EndSplineSet
Fore
SplineSet
103 564 m 1
 146 607 l 1
 187 566 l 1
 187 536 l 1
 99 448 l 1
 88 459 l 1
 133 504 l 1
 133 534 l 1
 103 564 l 1
303 564 m 1
 346 607 l 1
 387 566 l 1
 387 536 l 1
 299 448 l 1
 288 459 l 1
 333 504 l 1
 333 534 l 1
 303 564 l 1
EndSplineSet
EndChar
StartChar: quotedblbase
Encoding: 8222 8222 253
Width: 500
VWidth: 450
Flags: W
HStem: -102 159
VStem: 88 299
LayerCount: 2
Back
SplineSet
330 30 m 25
 360 0 l 1
 360 -30 l 25
 315 -75 l 1049
130 30 m 25
 160 0 l 1
 160 -30 l 25
 115 -75 l 1049
EndSplineSet
Fore
SplineSet
103 14 m 1
 146 57 l 1
 187 16 l 1
 187 -14 l 1
 99 -102 l 1
 88 -91 l 1
 133 -46 l 1
 133 -16 l 1
 103 14 l 1
303 14 m 1
 346 57 l 1
 387 16 l 1
 387 -14 l 1
 299 -102 l 1
 288 -91 l 1
 333 -46 l 1
 333 -16 l 1
 303 14 l 1
EndSplineSet
EndChar
StartChar: quotedblrev
Encoding: 8223 8223 929
Width: 500
Flags: W
HStem: 413 214
LayerCount: 2
Back
SplineSet
172.5 590 m 25
 132.5 550 l 1
 132.5 510 l 25
 192.5 450 l 1049
372.5 590 m 25
 332.5 550 l 1
 332.5 510 l 25
 392.5 450 l 1049
EndSplineSet
Fore
SplineSet
353 627 m 1
 409 570 l 1
 369 530 l 1
 369 490 l 1
 429 430 l 1
 412 413 l 1
 296 530 l 1
 296 570 l 1
 353 627 l 1
153 627 m 1
 209 570 l 1
 169 530 l 1
 169 490 l 1
 229 430 l 1
 212 413 l 1
 96 530 l 1
 96 570 l 1
 153 627 l 1
EndSplineSet
EndChar
StartChar: dagger
Encoding: 8224 8224 262
Width: 400
Flags: W
HStem: -187 21G<163 200> 417 20G<50 90 247 340> 417 20G<50 90 247 340>
VStem: 153 94<98.3206 332 419 529.944> 163 74<-130 69.3563>
LayerCount: 2
Back
SplineSet
50 400 m 25
 100 350 l 25
 300 400 l 25
 350 350 l 1049
175 550 m 1
 175 550 188 459 190 400 c 24
 198 186 200 -150 200 -150 c 1
 200 -150 203 186 210 400 c 24
 213 478 225 600 225 600 c 9
 175 550 l 1
EndSplineSet
Fore
SplineSet
138 530 m 1xd0
 245 637 l 1
 262 620 l 1
 262 620 250 498 247 420 c 0
 247 419 l 2xd0
 320 437 l 1
 387 370 l 1
 330 313 l 1
 280 363 l 1
 245 354 l 1
 239 143 237 -130 237 -130 c 2
 180 -187 l 1
 163 -170 l 1xc8
 163 -170 162 119 155 332 c 1
 80 313 l 1
 13 380 l 1
 70 437 l 1
 120 387 l 1
 153 395 l 1
 150 453 138 530 138 530 c 1xd0
EndSplineSet
EndChar
StartChar: daggerdbl
Encoding: 8225 8225 263
Width: 400
Flags: W
HStem: 417 20G<50 90 242 340> 417 20G<50 90 242 340>
VStem: 160 80<-129.978 -17 67 333 417 529.978>
LayerCount: 2
Back
SplineSet
50 50 m 25
 100 0 l 25
 300 50 l 25
 350 0 l 1049
50 400 m 25
 100 350 l 25
 300 400 l 25
 350 350 l 1049
175 550 m 1
 175 550 189 520 190 500 c 24
 198 383 200 200 200 200 c 1
 200 200 203 383 210 500 c 24
 212 539 225 600 225 600 c 9
 175 550 l 1
225 -150 m 1
 225 -150 211 -120 210 -100 c 24
 202 17 200 200 200 200 c 1
 200 200 197 17 190 -100 c 24
 188 -139 175 -200 175 -200 c 9
 225 -150 l 1
EndSplineSet
Fore
SplineSet
262 -130 m 1xa0
 155 -237 l 1
 138 -220 l 1
 138 -220 151 -159 153 -120 c 0
 155 -89 157 -53 158 -17 c 1
 80 -37 l 1
 13 30 l 1
 70 87 l 1
 120 37 l 1
 160 47 l 1
 162 120 163 180 163 180 c 1
 163 180 163 251 160 333 c 1
 80 313 l 1
 13 380 l 1
 70 437 l 1
 120 387 l 1
 158 396 l 1
 157 425 155 454 153 480 c 0
 152 500 138 530 138 530 c 1
 245 637 l 1
 262 620 l 1
 262 620 249 559 247 520 c 0
 245 489 243 453 242 417 c 1
 320 437 l 1
 387 370 l 1
 330 313 l 1
 280 363 l 1
 240 353 l 1
 238 280 237 220 237 220 c 2
 237 220 237 149 240 67 c 1
 320 87 l 1
 387 20 l 1
 330 -37 l 1
 280 13 l 1
 242 4 l 1
 243 -25 245 -54 247 -80 c 0
 248 -100 262 -130 262 -130 c 1xa0
EndSplineSet
EndChar
StartChar: bullet
Encoding: 8226 8226 259
Width: 300
Flags: W
HStem: 223 154
VStem: 73 154
LayerCount: 2
Back
SplineSet
130 340 m 25
 190 280 l 25
 170 260 l 25
 110 320 l 25
 130 340 l 25
EndSplineSet
Fore
SplineSet
150 377 m 1
 227 300 l 1
 150 223 l 1
 73 300 l 1
 150 377 l 1
EndSplineSet
EndChar
StartChar: perthousand
Encoding: 8240 8240 244
Width: 1050
Flags: W
HStem: -187 21G<13 50 460 500 810 850>
VStem: 63 74<430 580> 263 74<470 620> 363 74<-70 80> 563 74<-30 120> 713 74<-70 80> 913 74<-30 120>
LayerCount: 2
Back
SplineSet
850 200 m 25
 750 100 l 25
 750 -50 l 25
 850 -150 l 25
 950 -50 l 25
 950 100 l 25
 850 200 l 25
500 200 m 25
 400 100 l 25
 400 -50 l 25
 500 -150 l 25
 600 -50 l 25
 600 100 l 25
 500 200 l 25
50 -150 m 25
 650 700 l 1049
200 700 m 25
 100 600 l 25
 100 450 l 25
 200 350 l 25
 300 450 l 25
 300 600 l 25
 200 700 l 25
EndSplineSet
Fore
SplineSet
180 663 m 1
 137 620 l 1
 137 470 l 2
 137 425 196 411 220 387 c 1
 263 430 l 1
 263 580 l 2
 263 625 204 639 180 663 c 1
63 580 m 1
 220 737 l 1
 337 620 l 1
 337 470 l 1
 180 313 l 1
 63 430 l 1
 63 580 l 1
30 -187 m 1
 13 -170 l 1
 613 680 l 1
 670 737 l 1
 687 720 l 1
 87 -130 l 1
 30 -187 l 1
480 163 m 1
 437 120 l 1
 437 -30 l 2
 437 -75 496 -89 520 -113 c 1
 563 -70 l 1
 563 80 l 2
 563 125 504 139 480 163 c 1
363 80 m 1
 520 237 l 1
 637 120 l 1
 637 -30 l 1
 480 -187 l 1
 363 -70 l 1
 363 80 l 1
830 163 m 1
 787 120 l 1
 787 -30 l 2
 787 -75 846 -89 870 -113 c 1
 913 -70 l 1
 913 80 l 2
 913 125 854 139 830 163 c 1
713 80 m 1
 870 237 l 1
 987 120 l 1
 987 -30 l 1
 830 -187 l 1
 713 -70 l 1
 713 80 l 1
EndSplineSet
EndChar
StartChar: minute
Encoding: 8242 8242 926
Width: 300
Flags: W
HStem: 488 249
VStem: 163 74<637.523 680>
LayerCount: 2
Back
SplineSet
200 700 m 17
 200 600 100 525 100 525 c 1041
EndSplineSet
Fore
SplineSet
220 737 m 1
 237 720 l 1
 237 653 193 598 163 568 c 2
 106 512 l 2
 106 511 l 2
 91 496 80 488 80 488 c 2
 63 505 l 1
 113 555 l 1
 138 586 163 630 163 680 c 1
 220 737 l 1
EndSplineSet
EndChar
StartChar: guilsinglleft
Encoding: 8249 8249 242
Width: 300
Flags: W
VStem: 13 274
LayerCount: 2
Back
SplineSet
225 325 m 17
 225 325 203.459960938 295.372070312 175 275 c 0
 80 207 50 200 50 200 c 1
 50 200 114 174 200 100 c 0
 221.074883505 81.8657979147 250 50 250 50 c 1033
EndSplineSet
Fore
SplineSet
245 362 m 1
 262 345 l 1
 262 345 253 332 238 317 c 2
 181 261 l 1
 181 260 l 2
 180 259 180 260 179 259 c 0
 172 252 164 244 155 238 c 0
 141 228 128 219 117 212 c 1
 144 196 179 172 220 137 c 0
 227 131 235 123 242 116 c 2
 259 99 l 1
 260 98 l 0
 275 83 287 70 287 70 c 1
 230 13 l 1
 213 30 l 2
 213 30 205 39 194 50 c 0
 190 54 184 59 180 63 c 0
 94 137 30 163 30 163 c 1
 13 180 l 1
 70 237 l 1
 70 237 100 244 195 312 c 1
 245 362 l 1
EndSplineSet
EndChar
StartChar: guilsinglright
Encoding: 8250 8250 243
Width: 300
Flags: W
HStem: 23 329
VStem: 23 254
LayerCount: 2
Back
SplineSet
75 325 m 17
 75 325 96.5400390625 295.372070312 125 275 c 0
 220 207 250 200 250 200 c 1
 250 200 186 174 100 100 c 0
 78.9248046875 81.8662109375 50 50 50 50 c 1033
EndSplineSet
Fore
SplineSet
91 352 m 1
 102 341 l 1
 102 341 110 330 121 318 c 0
 127 312 134 307 141 302 c 0
 209 253 243 236 257 230 c 0
 266 227 l 1
 277 216 l 1
 234 173 l 1
 234 173 232 172 228 170 c 0
 210 162 154 134 84 73 c 0
 81 70 l 0
 77 66 l 2
 34 23 l 1
 23 34 l 1
 23 34 35 48 50 63 c 2
 93 106 l 2
 100 114 109 121 116 127 c 0
 147 154 175 175 199 190 c 1
 179 201 150 219 109 248 c 0
 100 255 91 263 84 270 c 2
 73 281 l 2
 58 296 48 309 48 309 c 1
 91 352 l 1
EndSplineSet
EndChar
StartChar: refmark
Encoding: 8251 8251 953
Width: 600
Flags: W
HStem: 443 21G<305 345> 537 0G<100 140 305 345 500 537>
LayerCount: 2
Back
SplineSet
500 500 m 25
 100 100 l 1049
100 500 m 25
 500 100 l 1049
480 345 m 25
 520 305 l 1049
255 120 m 25
 295 80 l 1049
305 520 m 25
 345 480 l 1049
80 295 m 25
 120 255 l 1049
EndSplineSet
Fore
SplineSet
43 275 m 1
 100 332 l 1
 157 275 l 1
 100 218 l 1
 43 275 l 1
268 500 m 1
 325 557 l 1
 382 500 l 1
 325 443 l 1
 268 500 l 1
218 100 m 1
 275 157 l 1
 332 100 l 1
 275 43 l 1
 218 100 l 1
443 325 m 1
 500 382 l 1
 557 325 l 1
 500 268 l 1
 443 325 l 1
63 480 m 1
 120 537 l 1
 320 337 l 1
 520 537 l 1
 537 520 l 1
 337 320 l 1
 537 120 l 1
 480 63 l 1
 280 263 l 1
 80 63 l 1
 63 80 l 1
 263 280 l 1
 63 480 l 1
EndSplineSet
EndChar
StartChar: fraction
Encoding: 8260 8260 217
Width: 700
Flags: W
LayerCount: 2
Back
SplineSet
100 0 m 25
 600 700 l 1049
EndSplineSet
Fore
SplineSet
80 -37 m 1
 63 -20 l 1
 563 680 l 1
 620 737 l 1
 637 720 l 1
 137 20 l 1
 80 -37 l 1
EndSplineSet
EndChar
StartChar: bracketquillleft
Encoding: 8261 8261 916
Width: 300
Flags: W
HStem: -177 54<127 234> 273 54<127 234> 673 54<127 234>
VStem: 73 54<-123 273 327 673>
LayerCount: 2
Back
SplineSet
250 300 m 25
 100 300 l 1049
250 700 m 25
 100 700 l 25
 100 -150 l 25
 250 -150 l 1033
EndSplineSet
Fore
SplineSet
277 716 m 1
 234 673 l 1
 127 673 l 1
 127 327 l 1
 266 327 l 1
 277 316 l 1
 234 273 l 1
 127 273 l 1
 127 -123 l 1
 266 -123 l 1
 277 -134 l 1
 234 -177 l 1
 84 -177 l 1
 73 -166 l 1
 73 284 l 1
 73 684 l 1
 116 727 l 1
 266 727 l 1
 277 716 l 1
EndSplineSet
EndChar
StartChar: et
Encoding: 8266 8266 960
Width: 400
Flags: W
HStem: -187 21G<113 150> 313 74<144.588 274.435> 417 20G<75 155 320 387> 417 20G<75 155 320 387>
VStem: 113 74<-130 32.8742>
LayerCount: 2
Back
SplineSet
75 400 m 1
 75 400 137 350 225 350 c 3
 279 350 350 400 350 400 c 1
 350 400 150 176 150 -100 c 3
 150 -150 l 1025
EndSplineSet
Fore
SplineSet
38 380 m 1xe8
 95 437 l 1
 95 437 157 387 245 387 c 0
 299 387 370 437 370 437 c 1
 387 420 l 1
 387 420 187 196 187 -80 c 2
 187 -130 l 1
 130 -187 l 1
 113 -170 l 1
 113 -120 l 2
 113 80 218 252 276 332 c 1
 254 322 228 313 205 313 c 0
 117 313 55 363 55 363 c 1
 38 380 l 1xe8
EndSplineSet
EndChar
StartChar: paragraphrev
Encoding: 8267 8267 951
Width: 700
Flags: W
HStem: -187 74<124.392 188 212 289.058> 63 74<419.76 495.859> 513 21G<13 50> 538 99<125.395 187.25 395 428.163> 563 74<94.5222 165.589 460.411 520.835> 563 49<212.896 231 420.905 500.664>
VStem: 188 24<-113 539> 288 74<-55 95 153 530> 539 74<204.07 535.859>
LayerCount: 2
Back
SplineSet
50 550 m 1
 50 550 82 600 124 600 c 3
 160 600 178 575 200 575 c 3
 228 575 250 600 251 600 c 1025
200 550 m 1
 200 -125 l 1025
400 -200 m 1
 400 -200 273 -150 175 -150 c 3
 106 -150 75 -200 75 -200 c 1025
376 150 m 17
 376 150 385.930664062 100 451 100 c 3
 536 100 576 177.895507812 576 350 c 3
 576 469 570 600 502 600 c 3
 466 600 448 575 426 575 c 3
 398 575 376 600 375 600 c 1
 325 550 l 1
 325 -75 l 1025
EndSplineSet
Fore
SplineSet
362 95 m 1xeb80
 362 -55 l 1
 305 -112 l 1
 288 -95 l 1
 288 530 l 1
 395 637 l 2xf380
 396 637 418 612 446 612 c 0xe780
 468 612 486 637 522 637 c 0
 535 637 546 632 555 623 c 2
 572 606 l 2
 609 569 613 466 613 370 c 0
 613 257 595 185 559 148 c 2
 559 147 l 2
 503 91 l 2
 484 72 460 63 431 63 c 0
 402 63 384 73 373 84 c 0
 362 95 l 1xeb80
362 153 m 1
 396 187 l 1
 413 170 l 1
 413 170 414 165 417 159 c 0
 418 156 420 153 422 150 c 0
 433 142 449 137 471 137 c 0
 485 137 498 139 510 143 c 1
 530 184 539 246 539 330 c 0
 539 418 536 513 507 556 c 0
 500 560 491 563 482 563 c 0xeb80
 446 563 428 538 406 538 c 0
 387 538 370 550 362 557 c 1
 362 153 l 1
437 -180 m 1
 380 -237 l 1
 380 -237 253 -187 155 -187 c 0
 122 -187 99 -198 83 -209 c 2
 55 -237 l 1
 38 -220 l 2
 38 -220 42 -214 50 -206 c 2
 50 -205 l 2
 107 -149 l 2
 121 -135 147 -115 188 -113 c 1
 188 539 l 2
 185 539 183 538 180 538 c 0xf380
 158 538 140 563 104 563 c 0xeb80
 91 563 79 559 69 552 c 2
 30 513 l 1
 13 530 l 1
 13 530 21 541 32 552 c 2
 88 609 l 2
 101 622 121 637 144 637 c 0xf380
 180 637 198 612 220 612 c 0xe780
 248 612 270 637 271 637 c 2xeb80
 288 620 l 1
 231 563 l 2xe780
 230 563 223 555 212 548 c 1
 212 -114 l 1
 307 -119 420 -163 420 -163 c 2
 437 -180 l 1
EndSplineSet
EndChar
StartChar: lozengedot
Encoding: 8280 8280 899
Width: 600
Flags: W
LayerCount: 2
Back
SplineSet
430 195 m 25
 470 155 l 1049
280 40 m 25
 320 0 l 1049
280 350 m 25
 320 310 l 1049
130 195 m 25
 170 155 l 1049
EndSplineSet
Fore
SplineSet
93 175 m 1
 150 232 l 1
 207 175 l 1
 150 118 l 1
 93 175 l 1
243 330 m 1
 300 387 l 1
 357 330 l 1
 300 273 l 1
 243 330 l 1
243 20 m 1
 300 77 l 1
 357 20 l 1
 300 -37 l 1
 243 20 l 1
393 175 m 1
 450 232 l 1
 507 175 l 1
 450 118 l 1
 393 175 l 1
EndSplineSet
EndChar
StartChar: dotcross
Encoding: 8284 8284 954
Width: 600
Flags: W
HStem: 263 74<70 263 337 530> 477 20G<140 180 300 337 420 460>
VStem: 263 74<70 263 337 530>
LayerCount: 2
Back
SplineSet
300 550 m 25
 300 50 l 1049
50 300 m 25
 550 300 l 1049
420 460 m 25
 460 420 l 1049
420 180 m 25
 460 140 l 1049
140 460 m 25
 180 420 l 1049
140 180 m 25
 180 140 l 1049
EndSplineSet
Fore
SplineSet
103 160 m 1
 160 217 l 1
 217 160 l 1
 160 103 l 1
 103 160 l 1
103 440 m 1
 160 497 l 1
 217 440 l 1
 160 383 l 1
 103 440 l 1
383 160 m 1
 440 217 l 1
 497 160 l 1
 440 103 l 1
 383 160 l 1
383 440 m 1
 440 497 l 1
 497 440 l 1
 440 383 l 1
 383 440 l 1
13 280 m 1
 70 337 l 1
 263 337 l 1
 263 530 l 1
 320 587 l 1
 337 570 l 1
 337 337 l 1
 570 337 l 1
 587 320 l 1
 530 263 l 1
 337 263 l 1
 337 70 l 1
 280 13 l 1
 263 30 l 1
 263 263 l 1
 30 263 l 1
 13 280 l 1
EndSplineSet
EndChar
StartChar: Euro
Encoding: 8364 8364 264
Width: 550
Flags: W
HStem: 188 74<70 113 187 330> 338 74<70 113 187 380> 488 21G<421.667 475>
VStem: 113 74<128 188 262 338>
LayerCount: 2
Back
SplineSet
50 225 m 25
 350 225 l 1049
50 375 m 25
 400 375 l 1049
475 525 m 9
 350 600 l 25
 150 400 l 25
 150 100 l 25
 350 0 l 25
 500 150 l 1041
EndSplineSet
Fore
SplineSet
512 545 m 1
 455 488 l 1
 330 563 l 2
 329 563 200 433 187 420 c 1
 187 412 l 1
 420 412 l 1
 437 395 l 1
 380 338 l 1
 187 338 l 1
 187 262 l 1
 370 262 l 1
 387 245 l 1
 330 188 l 1
 187 188 l 1
 187 128 l 1
 370 37 l 2
 371 37 454 121 463 130 c 2
 520 187 l 1
 537 170 l 1
 330 -37 l 1
 130 63 l 1
 113 80 l 1
 113 188 l 1
 30 188 l 1
 13 205 l 1
 70 262 l 1
 113 262 l 1
 113 338 l 1
 30 338 l 1
 13 355 l 1
 70 412 l 1
 145 412 l 1
 370 637 l 1
 495 562 l 1
 512 545 l 1
EndSplineSet
EndChar
StartChar: minus
Encoding: 8722 8722 214
Width: 600
Flags: W
HStem: 263 74<120 480>
LayerCount: 2
Back
SplineSet
100 300 m 25
 500 300 l 1049
EndSplineSet
Fore
SplineSet
63 280 m 1
 120 337 l 1
 520 337 l 1
 537 320 l 1
 480 263 l 1
 80 263 l 1
 63 280 l 1
EndSplineSet
EndChar
StartChar: logicaland
Encoding: 8743 8743 952
Width: 600
Flags: W
HStem: 407 20G<296 327> 407 20G<296 327>
LayerCount: 2
Back
SplineSet
100 0 m 25
 300 400 l 25
 500 0 l 1049
EndSplineSet
Fore
SplineSet
84 -27 m 1x80
 73 -16 l 1
 273 384 l 1
 316 427 l 1
 327 416 l 1
 527 16 l 1
 484 -27 l 1
 473 -16 l 1
 292 346 l 1
 127 16 l 1
 84 -27 l 1x80
EndSplineSet
EndChar
StartChar: therefore
Encoding: 8756 8756 896
Width: 600
Flags: W
LayerCount: 2
Back
SplineSet
430 40 m 25
 470 0 l 1049
280 350 m 25
 320 310 l 1049
130 40 m 25
 170 0 l 1049
EndSplineSet
Fore
SplineSet
93 20 m 1
 150 77 l 1
 207 20 l 1
 150 -37 l 1
 93 20 l 1
243 330 m 1
 300 387 l 1
 357 330 l 1
 300 273 l 1
 243 330 l 1
393 20 m 1
 450 77 l 1
 507 20 l 1
 450 -37 l 1
 393 20 l 1
EndSplineSet
EndChar
StartChar: because
Encoding: 8757 8757 897
Width: 600
Flags: W
LayerCount: 2
Back
SplineSet
430 350 m 25
 470 310 l 1049
130 350 m 25
 170 310 l 1049
280 40 m 25
 320 0 l 1049
EndSplineSet
Fore
SplineSet
243 20 m 1
 300 77 l 1
 357 20 l 1
 300 -37 l 1
 243 20 l 1
93 330 m 1
 150 387 l 1
 207 330 l 1
 150 273 l 1
 93 330 l 1
393 330 m 1
 450 387 l 1
 507 330 l 1
 450 273 l 1
 393 330 l 1
EndSplineSet
EndChar
StartChar: proportion
Encoding: 8759 8759 898
Width: 600
Flags: W
LayerCount: 2
Back
SplineSet
430 350 m 25
 470 310 l 1049
430 40 m 25
 470 0 l 1049
130 350 m 25
 170 310 l 1049
130 40 m 25
 170 0 l 1049
EndSplineSet
Fore
SplineSet
93 20 m 1
 150 77 l 1
 207 20 l 1
 150 -37 l 1
 93 20 l 1
93 330 m 1
 150 387 l 1
 207 330 l 1
 150 273 l 1
 93 330 l 1
393 20 m 1
 450 77 l 1
 507 20 l 1
 450 -37 l 1
 393 20 l 1
393 330 m 1
 450 387 l 1
 507 330 l 1
 450 273 l 1
 393 330 l 1
EndSplineSet
EndChar
StartChar: bracketangleleft
Encoding: 9296 9296 930
Width: 400
Flags: W
HStem: -177 21G<323 354>
LayerCount: 2
Back
SplineSet
325 675 m 17
 325 675 244.716713418 553.917846347 225 525 c 0
 180 459 50 250 50 250 c 1
 50 250 204 60 250 0 c 0
 266.916127607 -22.0645142705 350 -150 350 -150 c 1033
EndSplineSet
Fore
SplineSet
341 702 m 1
 352 691 l 1
 352 691 272 570 252 541 c 0
 207 475 77 266 77 266 c 1
 77 266 231 76 277 16 c 0
 294 -6 377 -134 377 -134 c 1
 334 -177 l 1
 323 -166 l 1
 323 -166 240 -38 223 -16 c 0
 177 44 23 234 23 234 c 1
 23 234 153 443 198 509 c 0
 218 538 298 659 298 659 c 1
 341 702 l 1
EndSplineSet
EndChar
StartChar: bracketangleright
Encoding: 9297 9297 931
Width: 400
Flags: W
HStem: -187 21G<13 50>
LayerCount: 2
Back
SplineSet
75 675 m 17
 75 675 155.283203125 553.91796875 175 525 c 0
 220 459 350 250 350 250 c 1
 350 250 196 60 150 0 c 0
 133.083984375 -22.064453125 50 -150 50 -150 c 1033
EndSplineSet
Fore
SplineSet
95 712 m 1
 112 695 l 1
 112 695 192 574 212 545 c 0
 257 479 387 270 387 270 c 1
 387 270 233 80 187 20 c 0
 170 -2 87 -130 87 -130 c 1
 30 -187 l 1
 13 -170 l 1
 13 -170 96 -42 113 -20 c 0
 159 40 313 230 313 230 c 1
 313 230 183 439 138 505 c 0
 118 534 38 655 38 655 c 1
 95 712 l 1
EndSplineSet
EndChar
StartChar: FleuronCenter
Encoding: 10086 10086 955
Width: 700
Flags: W
HStem: 457 20G<200 224 415 429.5> 548 54<477 609> 557 55<330.8 418 477 576.111> 573 54<91 216.5>
VStem: 48 304<87.5 306>
LayerCount: 2
Back
SplineSet
400 700 m 1
 400 700 450 644 450 600 c 27
 450 521 350 425 350 425 c 1025
50 575 m 25
 75 600 l 25
 625 575 l 25
 650 600 l 1049
550 100 m 1
 550 100 459 0 350 0 c 3
 229 0 75 141 75 300 c 27
 75 376 124 450 200 450 c 27
 262 450 300 325 300 325 c 1
 300 325 338 450 400 450 c 27
 455 450 500 399 500 350 c 3
 500 277.390625 436.303710938 243.852539062 375 200 c 8
 332 169 325 128 325 75 c 19
 325 47.4769851995 375 25 375 25 c 1025
EndSplineSet
Fore
SplineSet
566 127 m 1xc8
 577 116 l 1
 577 116 575 113 572 110 c 2
 529 68 l 2
 508 47 427 -27 334 -27 c 0
 326 -27 318 -26 310 -25 c 0
 257 -17 201 14 155 60 c 2
 144 71 l 2
 89 126 48 203 48 284 c 0
 48 328 64 372 93 401 c 2
 136 443 l 2
 157 464 184 477 216 477 c 0
 232 477 246 469 259 456 c 2
 270 444 l 1
 271 444 l 0
 287 428 300 406 309 387 c 1
 314 395 319 401 325 408 c 1
 323 409 l 1
 328 415 l 2
 345 433 404 496 419 557 c 1xa8
 59 573 l 1x98
 34 548 l 1xc8
 23 559 l 1
 91 627 l 1x98
 418 612 l 1xa8
 405 649 373 684 373 684 c 1
 416 727 l 1
 427 716 l 1
 427 716 477 660 477 616 c 0
 477 614 477 611 477 609 c 2
 641 602 l 2xc8
 641 602 663 624 666 627 c 2x98
 677 616 l 1
 609 548 l 1
 461 555 l 1
 447 526 427 497 410 476 c 1
 412 476 414 477 416 477 c 0
 443 477 467 465 485 447 c 2
 496 436 l 2
 496 435 l 0
 515 416 527 391 527 366 c 0
 527 331 512 305 489 282 c 2
 447 239 l 2
 426 218 396 199 369 180 c 1
 355 155 352 126 352 91 c 0
 352 84 356 77 360 71 c 0
 364 68 368 65 372 62 c 0
 382 55 391 52 391 52 c 1
 402 41 l 1
 390 28 l 1
 465 38 528 91 554 115 c 2
 566 127 l 1xc8
EndSplineSet
EndChar
StartChar: FleuronRight
Encoding: 10087 10087 956
Width: 800
Flags: W
HStem: 517 20G<150 190>
LayerCount: 2
Back
SplineSet
50 150 m 25
 75 200 l 25
 325 300 l 1049
175 0 m 25
 150 25 l 25
 175 475 l 25
 150 500 l 1049
750 350 m 1
 750 350 622 25 450 25 c 27
 374 25 300 74 300 150 c 27
 300 212 425 250 425 250 c 1
 425 250 300 288 300 350 c 27
 300 405 351 450 400 450 c 3
 473 450 506 386 550 325 c 8
 579 285 576 225 625 225 c 3
 667 225 725 325 725 325 c 1025
EndSplineSet
Fore
SplineSet
688 305 m 2
 770 387 l 1
 787 370 l 1
 787 370 782 358 774 340 c 0
 751 290 699 187 629 117 c 2
 573 60 l 2
 572 59 l 0
 530 17 482 -12 430 -12 c 0
 386 -12 343 4 314 33 c 2
 297 50 l 2
 297 51 l 0
 276 72 263 98 263 130 c 0
 263 146 272 161 285 174 c 2
 341 230 l 2
 343 232 346 235 348 237 c 1
 333 245 319 254 307 265 c 1
 305 263 l 1
 196 220 l 1
 187 45 l 1
 212 20 l 1
 155 -37 l 1
 113 5 l 1
 124 191 l 1
 91 177 l 1
 87 170 l 1
 30 113 l 1
 13 130 l 1
 38 180 l 1
 95 237 l 1
 127 250 l 1
 138 455 l 2
 138 458 132 461 130 463 c 2
 113 480 l 1
 170 537 l 1
 212 495 l 1
 200 279 l 1
 269 307 l 1
 265 314 263 322 263 330 c 0
 263 357 275 381 293 399 c 2
 350 456 l 2
 369 475 395 487 420 487 c 0
 455 487 481 471 503 449 c 2
 520 432 l 2
 544 408 564 376 587 345 c 0
 605 320 611 288 624 267 c 0
 630 264 636 262 645 262 c 0
 651 262 658 264 663 267 c 0
 678 288 688 305 688 305 c 2
EndSplineSet
EndChar
StartChar: bracketwhiteleft
Encoding: 10214 10214 918
Width: 400
Flags: W
HStem: -177 54<127 217 233 334> 673 54<127 217 233 334>
VStem: 73 54<-123 673> 217 16<-123 673>
LayerCount: 2
Back
SplineSet
225 650 m 25
 225 -100 l 1049
350 700 m 25
 100 700 l 25
 100 -150 l 25
 350 -150 l 1033
EndSplineSet
Fore
SplineSet
377 716 m 1
 334 673 l 1
 233 673 l 1
 233 -123 l 1
 366 -123 l 1
 377 -134 l 1
 334 -177 l 1
 84 -177 l 1
 73 -166 l 1
 73 684 l 1
 116 727 l 1
 366 727 l 1
 377 716 l 1
217 673 m 1
 127 673 l 1
 127 -123 l 1
 217 -123 l 1
 217 673 l 1
EndSplineSet
EndChar
StartChar: bracketwhiteright
Encoding: 10215 10215 919
Width: 400
Flags: W
HStem: -177 54<66 167 183 273> 673 54<66 167 183 273>
VStem: 167 16<-123 673> 273 54<-123 673>
LayerCount: 2
Back
SplineSet
175 650 m 25
 175 -100 l 1049
50 700 m 25
 300 700 l 25
 300 -150 l 25
 50 -150 l 1033
EndSplineSet
Fore
SplineSet
23 684 m 1
 66 727 l 1
 316 727 l 1
 327 716 l 1
 327 -134 l 1
 284 -177 l 1
 34 -177 l 1
 23 -166 l 1
 66 -123 l 1
 167 -123 l 1
 167 673 l 1
 34 673 l 1
 23 684 l 1
183 -123 m 1
 273 -123 l 1
 273 673 l 1
 183 673 l 1
 183 -123 l 1
EndSplineSet
EndChar
StartChar: luslst
Encoding: 11788 11788 902
Width: 300
Flags: W
HStem: 413 324
VStem: 13 274
LayerCount: 2
Back
SplineSet
50 700 m 25
 250 450 l 1049
EndSplineSet
Fore
SplineSet
70 737 m 1
 87 720 l 1
 287 470 l 1
 230 413 l 1
 213 430 l 1
 13 680 l 1
 70 737 l 1
EndSplineSet
EndChar
StartChar: ruslst
Encoding: 11789 11789 903
Width: 300
Flags: W
HStem: 413 324
VStem: 13 274
LayerCount: 2
Back
SplineSet
50 450 m 25
 250 700 l 1049
EndSplineSet
Fore
SplineSet
30 413 m 1
 13 430 l 1
 213 680 l 1
 270 737 l 1
 287 720 l 1
 87 470 l 1
 30 413 l 1
EndSplineSet
EndChar
StartChar: ramus
Encoding: 11801 11801 911
Width: 600
Flags: W
HStem: -187 21G<63 100> 523 20G<219 256>
VStem: 38 74<135.092 330> 182 74<328.055 486> 323 74<561.938 642>
LayerCount: 2
Back
SplineSet
360 662 m 1
 360 662 360 625 360 600 c 27
 360 551 395 475 395 475 c 1
 395 475 485 516 535 550 c 24
 555 564 572 588 572 588 c 1025
75 350 m 1
 75 350 75 274 75 225 c 27
 75 127 154 -25 154 -25 c 1
 154 -25 326 57 425 125 c 24
 465 153 500 200 500 200 c 1025
219 506 m 1
 219 506 219 449 219 412 c 27
 219 339 275 225 275 225 c 1
 275 225 407 287 481 338 c 24
 511 359 538 394 538 394 c 1025
100 -150 m 25
 500 700 l 1049
EndSplineSet
Fore
SplineSet
80 -187 m 1
 63 -170 l 1
 121 -48 l 1
 117 -45 l 1
 117 -45 38 107 38 205 c 2
 38 330 l 1
 95 387 l 1
 112 370 l 1
 112 245 l 2
 112 184 143 101 166 48 c 1
 239 204 l 1
 238 205 l 1
 238 205 182 319 182 392 c 2
 182 486 l 1
 239 543 l 1
 256 526 l 1
 256 432 l 2
 256 393 271 343 286 304 c 1
 358 456 l 1
 354 465 323 534 323 580 c 2
 323 642 l 1
 380 699 l 1
 397 682 l 1
 397 620 l 2
 397 602 401 581 407 561 c 1
 463 680 l 1
 520 737 l 1
 537 720 l 1
 446 527 l 1
 476 542 521 565 552 585 c 1
 592 625 l 1
 609 608 l 1
 609 608 601 597 590 586 c 0
 589 585 589 585 588 584 c 2
 532 527 l 2
 527 522 521 517 515 513 c 0
 486 493 444 471 413 456 c 1
 329 278 l 1
 373 300 451 340 501 375 c 0
 502 376 504 377 504 377 c 2
 558 431 l 1
 575 414 l 1
 575 414 564 400 548 384 c 2
 491 327 l 2
 482 318 472 309 461 301 c 0
 413 268 341 230 296 208 c 1
 213 31 l 1
 270 59 375 114 445 162 c 0
 448 164 453 168 454 169 c 0
 460 176 463 180 463 180 c 1
 520 237 l 1
 537 220 l 1
 537 220 521 199 499 177 c 2
 443 120 l 2
 432 109 418 97 405 88 c 0
 338 42 237 -11 179 -40 c 1
 137 -130 l 1
 80 -187 l 1
EndSplineSet
EndChar
StartChar: rlslst
Encoding: 11804 11804 904
Width: 300
Flags: W
HStem: -187 324
VStem: 13 274
LayerCount: 2
Back
SplineSet
50 100 m 25
 250 -150 l 1049
EndSplineSet
Fore
SplineSet
70 137 m 1
 87 120 l 1
 287 -130 l 1
 230 -187 l 1
 213 -170 l 1
 13 80 l 1
 70 137 l 1
EndSplineSet
EndChar
StartChar: llslst
Encoding: 11805 11805 905
Width: 300
Flags: W
HStem: -187 324
VStem: 13 274
LayerCount: 2
Back
SplineSet
50 -150 m 25
 250 100 l 1049
EndSplineSet
Fore
SplineSet
30 -187 m 1
 13 -170 l 1
 213 80 l 1
 270 137 l 1
 287 120 l 1
 87 -130 l 1
 30 -187 l 1
EndSplineSet
EndChar
StartChar: barquillleft
Encoding: 11808 11808 920
Width: 300
Flags: W
HStem: -187 21G<63 100> 263 74<137 230>
VStem: 63 74<-130 263 337 680>
LayerCount: 2
Back
SplineSet
250 300 m 25
 100 300 l 1049
100 700 m 25
 100 -150 l 1049
EndSplineSet
Fore
SplineSet
120 737 m 1
 137 720 l 1
 137 337 l 1
 270 337 l 1
 287 320 l 1
 230 263 l 1
 137 263 l 1
 137 -130 l 1
 80 -187 l 1
 63 -170 l 1
 63 280 l 1
 63 680 l 1
 120 737 l 1
EndSplineSet
EndChar
StartChar: barquillright
Encoding: 11809 11809 921
Width: 300
Flags: W
HStem: -177 21G<173 204> 273 54<66 173>
VStem: 173 54<-134 273 327 684>
LayerCount: 2
Back
SplineSet
50 300 m 25
 200 300 l 1049
200 700 m 25
 200 -150 l 1049
EndSplineSet
Fore
SplineSet
216 727 m 1
 227 716 l 1
 227 316 l 1
 227 -134 l 1
 184 -177 l 1
 173 -166 l 1
 173 273 l 1
 34 273 l 1
 23 284 l 1
 66 327 l 1
 173 327 l 1
 173 684 l 1
 216 727 l 1
EndSplineSet
EndChar
StartChar: brackettopleft
Encoding: 11810 11810 922
Width: 300
Flags: W
HStem: 663 74<137 230>
VStem: 63 74<320 663>
LayerCount: 2
Back
SplineSet
250 700 m 25
 100 700 l 17
 100 300 l 1025
EndSplineSet
Fore
SplineSet
287 720 m 1
 230 663 l 1
 137 663 l 1
 137 320 l 1
 80 263 l 1
 63 280 l 1
 63 680 l 1
 120 737 l 1
 270 737 l 1
 287 720 l 1
EndSplineSet
EndChar
StartChar: brackettopright
Encoding: 11811 11811 923
Width: 300
Flags: W
HStem: 663 74<70 163>
VStem: 163 74<320 663>
LayerCount: 2
Back
SplineSet
50 700 m 25
 200 700 l 17
 200 300 l 1025
EndSplineSet
Fore
SplineSet
13 680 m 1
 70 737 l 1
 220 737 l 1
 237 720 l 1
 237 320 l 1
 180 263 l 1
 163 280 l 1
 163 663 l 1
 30 663 l 1
 13 680 l 1
EndSplineSet
EndChar
StartChar: bracketbottomleft
Encoding: 11812 11812 924
Width: 300
Flags: W
HStem: -187 74<137 230>
VStem: 63 74<-113 280>
LayerCount: 2
Back
SplineSet
100 300 m 1
 100 -150 l 9
 250 -150 l 1033
EndSplineSet
Fore
SplineSet
120 337 m 1
 137 320 l 1
 137 -113 l 1
 270 -113 l 1
 287 -130 l 1
 230 -187 l 1
 80 -187 l 1
 63 -170 l 1
 63 280 l 1
 120 337 l 1
EndSplineSet
EndChar
StartChar: bracketbottomright
Encoding: 11813 11813 925
Width: 300
Flags: W
HStem: -187 74<70 163>
VStem: 163 74<-113 280>
LayerCount: 2
Back
SplineSet
200 300 m 1
 200 -150 l 9
 50 -150 l 1033
EndSplineSet
Fore
SplineSet
220 337 m 1
 237 320 l 1
 237 -130 l 1
 180 -187 l 1
 30 -187 l 1
 13 -170 l 1
 70 -113 l 1
 163 -113 l 1
 163 280 l 1
 220 337 l 1
EndSplineSet
EndChar
StartChar: Ubracketleft
Encoding: 11814 11814 912
Width: 500
Flags: W
HStem: -37 74<230.177 430> 363 74<231.362 430>
VStem: 63 74<129.595 269.313>
LayerCount: 2
Back
SplineSet
450 400 m 1
 300 400 l 26
 190 400 100 310 100 200 c 27
 100 90 190 0 300 0 c 26
 450 0 l 1025
EndSplineSet
Fore
SplineSet
487 420 m 1
 430 363 l 1
 280 363 l 2
 239 363 201 351 170 330 c 1
 149 299 137 261 137 220 c 0
 137 169 156 122 187 87 c 1
 222 56 269 37 320 37 c 2
 470 37 l 1
 487 20 l 1
 430 -37 l 1
 280 -37 l 2
 225 -37 175 -14 139 22 c 2
 122 39 l 2
 86 75 63 125 63 180 c 0
 63 235 86 285 122 321 c 2
 179 378 l 2
 215 414 265 437 320 437 c 2
 470 437 l 1
 487 420 l 1
EndSplineSet
EndChar
StartChar: Ubracketright
Encoding: 11815 11815 913
Width: 500
Flags: W
HStem: -27 54<66 272.638> 373 54<66 275.291>
VStem: 373 54<126.623 275.075>
LayerCount: 2
Back
SplineSet
50 400 m 1
 200 400 l 26
 310 400 400 310 400 200 c 27
 400 90 310 0 200 0 c 26
 50 0 l 1025
EndSplineSet
Fore
SplineSet
23 384 m 1
 66 427 l 1
 216 427 l 2
 271 427 321 404 357 368 c 2
 368 357 l 2
 404 321 427 271 427 216 c 0
 427 161 404 110 368 74 c 2
 326 32 l 2
 325 32 l 2
 289 -4 239 -27 184 -27 c 2
 34 -27 l 1
 23 -16 l 1
 66 27 l 1
 216 27 l 2
 260 27 301 41 334 66 c 1
 358 99 373 140 373 184 c 0
 373 236 353 284 320 320 c 0
 285 353 236 373 184 373 c 2
 34 373 l 1
 23 384 l 1
EndSplineSet
EndChar
StartChar: fivedots
Encoding: 11821 11821 935
Width: 600
Flags: W
LayerCount: 2
Back
SplineSet
280 195 m 25
 320 155 l 1049
445 195 m 25
 485 155 l 1049
280 30 m 25
 320 -10 l 1049
280 360 m 25
 320 320 l 1049
115 195 m 25
 155 155 l 1049
EndSplineSet
Fore
SplineSet
78 175 m 1
 135 232 l 1
 192 175 l 1
 135 118 l 1
 78 175 l 1
243 340 m 1
 300 397 l 1
 357 340 l 1
 300 283 l 1
 243 340 l 1
243 10 m 1
 300 67 l 1
 357 10 l 1
 300 -47 l 1
 243 10 l 1
408 175 m 1
 465 232 l 1
 522 175 l 1
 465 118 l 1
 408 175 l 1
243 175 m 1
 300 232 l 1
 357 175 l 1
 300 118 l 1
 243 175 l 1
EndSplineSet
EndChar
StartChar: a_a
Encoding: 42803 42803 336
Width: 600
Flags: W
HStem: 188 74<199.383 263 399.383 463> 417 20G<175 295 375 495> 417 20G<175 295 375 495>
VStem: 63 74<95 155> 263 74<105 188 262 342> 463 74<37.0945 71 105 188 262 342>
CounterMasks: 1 1c
AnchorPoint: "abvmark" 300 500 basechar 0
AnchorPoint: "blwmark" 300 0 basechar 0
LayerCount: 2
Back
SplineSet
300 325 m 1
 375 400 l 1
 500 375 l 1
 500 25 l 1
 525 0 l 1
 575 50 l 1049
500 125 m 25
 375 0 l 1
 300 75 l 1
 300 175 l 1
 375 250 l 1
 375 250 393.963867188 225 450 225 c 3
 500 225 l 1033
125 250 m 17
 100 325 l 1
 175 400 l 1
 300 375 l 1
 300 125 l 9
 175 0 l 1
 100 75 l 1
 100 175 l 1
 175 250 l 1
 175 250 193.964297096 225 250 225 c 3
 300 225 l 1033
EndSplineSet
Fore
SplineSet
263 188 m 1x9c
 230 188 l 2
 184 188 163 205 157 211 c 2
 155 213 l 1
 137 195 l 1
 137 95 l 1
 195 37 l 1
 263 105 l 1
 263 155 l 1
 263 188 l 1x9c
337 145 m 1
 337 95 l 1
 395 37 l 1
 463 105 l 1
 463 188 l 1
 430 188 l 2
 384 188 363 205 357 211 c 2
 355 213 l 1
 337 195 l 1
 337 145 l 1
337 229 m 1
 395 287 l 1
 399 282 l 2
 407 275 426 263 463 262 c 1
 463 342 l 1
 355 363 l 1
 337 345 l 1
 337 229 l 1
263 71 m 1
 155 -37 l 1
 63 55 l 1
 63 155 l 1
 195 287 l 1
 199 282 l 2
 207 275 226 263 263 262 c 1
 263 305 l 1
 263 342 l 1
 155 363 l 1
 137 345 l 1
 162 270 l 1
 105 213 l 1
 88 230 l 1
 63 305 l 1
 195 437 l 1
 320 412 l 1
 337 395 l 1
 337 379 l 1
 395 437 l 1xdc
 520 412 l 1
 537 395 l 1
 537 245 l 1
 537 145 l 1
 537 45 l 2
 537 42 543 39 545 37 c 2
 595 87 l 1
 612 70 l 1
 505 -37 l 1
 463 5 l 1
 463 71 l 1
 355 -37 l 1
 263 55 l 1
 263 71 l 1
EndSplineSet
LCarets2: 1 300 
Ligature2: "Historic ligatures-1" a a
EndChar
StartChar: a_o
Encoding: 42805 42805 341
Width: 600
Flags: W
HStem: 188 74<199.383 263> 417 20G<175 295 400 440> 417 20G<175 295 400 440>
VStem: 63 74<95 155> 263 74<105 188 262 320> 463 74<120 320>
CounterMasks: 1 1c
AnchorPoint: "blwmark" 300 0 basechar 0
AnchorPoint: "abvmark" 300 500 basechar 0
LayerCount: 2
Back
SplineSet
125 250 m 17
 100 325 l 1
 175 400 l 1
 300 375 l 1
 300 125 l 9
 175 0 l 1
 100 75 l 1
 100 175 l 1
 175 250 l 1
 175 250 193.964297096 225 250 225 c 3
 300 225 l 1033
400 400 m 25
 300 300 l 25
 300 100 l 25
 400 0 l 25
 500 100 l 25
 500 300 l 25
 400 400 l 25
EndSplineSet
Fore
SplineSet
263 105 m 1x9c
 263 188 l 1
 230 188 l 2
 184 188 163 205 157 211 c 2
 155 213 l 1
 137 195 l 1
 137 95 l 1
 195 37 l 1
 263 105 l 1x9c
268 76 m 1
 155 -37 l 1
 63 55 l 1
 63 155 l 1
 195 287 l 1
 199 282 l 2
 207 275 226 263 263 262 c 1
 263 280 l 1
 263 342 l 1
 155 363 l 1
 137 345 l 1
 162 270 l 1
 105 213 l 1
 88 230 l 1
 63 305 l 1
 195 437 l 1
 320 412 l 1
 337 395 l 1
 337 354 l 1
 420 437 l 1xdc
 537 320 l 1
 537 120 l 1
 380 -37 l 1
 268 76 l 1
337 145 m 1
 337 120 l 2
 337 75 396 61 420 37 c 1
 463 80 l 1
 463 280 l 2
 463 325 404 339 380 363 c 1
 337 320 l 1
 337 145 l 1
EndSplineSet
LCarets2: 1 300 
Ligature2: "Historic ligatures-1" a o
EndChar
StartChar: a_u
Encoding: 42807 42807 344
Width: 600
Flags: W
HStem: 198 54<194.062 273> 407 20G<171 291 481 516> 407 20G<171 291 481 516>
VStem: 73 54<91 159> 273 54<109 198 252 350> 473 54<41 87 109 369>
CounterMasks: 1 1c
AnchorPoint: "blwmark" 300 0 basechar 0
AnchorPoint: "abvmark" 300 500 basechar 0
LayerCount: 2
Back
SplineSet
300 125 m 9
 175 0 l 1
 100 75 l 1
 100 175 l 1
 175 250 l 1
 175 250 193.964297096 225 250 225 c 3
 230.995781714 225 300 225 300 225 c 1033
575 50 m 25
 525 0 l 1
 500 25 l 17
 500 385 l 1025
515 370 m 25
 485 400 l 1049
500 125 m 25
 375 0 l 25
 300 75 l 1
 300 375 l 17
 175 400 l 1
 100 325 l 1
 125 250 l 1033
EndSplineSet
Fore
SplineSet
591 77 m 1xdc
 602 66 l 1
 509 -27 l 1
 473 9 l 1
 473 87 l 1
 359 -27 l 1
 273 59 l 1
 273 87 l 1
 159 -27 l 1
 73 59 l 1
 73 159 l 1
 191 277 l 1
 195 273 l 2
 203 266 222 252 262 252 c 0
 263 252 263 252 264 252 c 2
 273 252 l 1
 273 350 l 1
 159 373 l 2
 159 373 131 345 127 341 c 1
 152 266 l 1
 109 223 l 1
 98 234 l 1
 73 309 l 1
 191 427 l 1
 316 402 l 1
 327 391 l 1
 327 241 l 1
 327 141 l 1
 327 91 l 1
 391 27 l 1
 473 109 l 1
 473 369 l 1
 458 384 l 1
 501 427 l 1
 516 412 l 1
 527 401 l 1
 542 386 l 1
 527 371 l 1
 527 141 l 1
 527 41 l 1
 541 27 l 1
 591 77 l 1xdc
273 109 m 1
 273 198 l 1
 233 198 l 2
 189 199 167 215 161 221 c 2
 159 223 l 1
 127 191 l 1
 127 91 l 1
 191 27 l 1
 273 109 l 1
EndSplineSet
LCarets2: 1 300 
Ligature2: "Historic ligatures-1" a u
EndChar
StartChar: a_v
Encoding: 42809 42809 345
Width: 600
Flags: W
HStem: 188 74<199.383 263> 417 20G<175 295> 417 20G<175 295 501.19 542>
VStem: 63 74<95 155> 263 74<120 188 262 342> 413 74<430.6 501.017> 463 74<120 355>
AnchorPoint: "blwmark" 300 0 basechar 0
AnchorPoint: "abvmark" 300 500 basechar 0
LayerCount: 2
Back
SplineSet
300 125 m 9
 175 0 l 1
 100 75 l 1
 100 175 l 1
 175 250 l 1
 175 250 193.964297096 225 250 225 c 3
 300 225 l 1033
505 550 m 25
 504 550 450 514 450 472 c 16
 450 423 500 375 500 375 c 25
 500 100 l 1
 400 0 l 25
 300 100 l 1
 300 375 l 17
 175 400 l 1
 100 325 l 1
 125 250 l 1033
EndSplineSet
Fore
SplineSet
542 570 m 1xdc
 497 525 l 2
 490 514 487 504 487 492 c 0xdc
 487 449 526 406 535 397 c 2
 537 395 l 1
 537 120 l 1
 380 -37 l 1
 268 76 l 1
 155 -37 l 1
 63 55 l 1
 63 155 l 1
 195 287 l 1
 199 282 l 2
 207 275 226 263 263 262 c 1
 263 342 l 1
 155 363 l 2
 155 363 139 347 137 345 c 2
 162 270 l 1
 105 213 l 1
 88 230 l 1
 63 305 l 1
 195 437 l 1
 320 412 l 1
 337 395 l 1
 337 245 l 1
 337 145 l 1
 337 120 l 1
 420 37 l 1
 463 80 l 1
 463 355 l 1xda
 462 356 l 2
 456 362 413 407 413 452 c 0
 413 474 427 494 442 509 c 0
 443 510 l 2
 500 566 l 2
 513 579 525 587 525 587 c 2
 542 570 l 1xdc
263 105 m 1
 263 188 l 1
 230 188 l 2
 184 188 163 205 157 211 c 2
 155 213 l 1
 137 195 l 1
 137 95 l 1
 195 37 l 1
 263 105 l 1
EndSplineSet
LCarets2: 1 300 
Ligature2: "Historic ligatures-1" a v
EndChar
StartChar: avslash
Encoding: 42811 42811 861
Width: 600
Flags: W
HStem: 188 74<199.383 263> 213 74<337 463> 417 20G<175 295> 417 20G<175 295 501.19 542>
VStem: 63 74<95 155> 263 74<120 188 287 342> 413 74<430.6 501.017> 463 74<120 213 287 355>
AnchorPoint: "abvmark" 300 500 basechar 0
AnchorPoint: "blwmark" 300 0 basechar 0
LayerCount: 2
Back
SplineSet
300 250 m 25
 550 250 l 1049
300 125 m 9
 175 0 l 1
 100 75 l 1
 100 175 l 1
 175 250 l 1
 175 250 193.964297096 225 250 225 c 3
 300 225 l 1033
505 550 m 25
 504 550 450 514 450 472 c 16
 450 423 500 375 500 375 c 25
 500 100 l 1
 400 0 l 25
 300 100 l 1
 300 375 l 17
 175 400 l 1
 100 325 l 1
 125 250 l 1033
EndSplineSet
Fore
SplineSet
542 570 m 1x6e
 497 525 l 2
 490 514 487 504 487 492 c 0x6e
 487 449 526 406 535 397 c 2
 537 395 l 1
 537 287 l 1
 570 287 l 1
 587 270 l 1
 537 220 l 1
 537 120 l 1
 380 -37 l 1
 268 76 l 1
 155 -37 l 1
 63 55 l 1
 63 155 l 1
 195 287 l 1x6d
 199 282 l 2
 207 275 226 263 263 262 c 1x8d
 263 342 l 1
 155 363 l 2
 155 363 139 347 137 345 c 2
 162 270 l 1
 105 213 l 1
 88 230 l 1
 63 305 l 1
 195 437 l 1
 320 412 l 1
 337 395 l 1
 337 287 l 1
 463 287 l 1
 463 355 l 1x6d
 462 356 l 2
 456 362 413 407 413 452 c 0
 413 474 427 494 442 509 c 0
 443 510 l 2
 500 566 l 2
 513 579 525 587 525 587 c 2
 542 570 l 1x6e
263 105 m 1
 263 188 l 1
 230 188 l 2x8c
 184 188 163 205 157 211 c 2
 155 213 l 1
 137 195 l 1
 137 95 l 1
 195 37 l 1
 263 105 l 1
337 145 m 1
 337 120 l 1
 420 37 l 1
 463 80 l 1
 463 213 l 1
 337 213 l 1x4d
 337 145 l 1
EndSplineSet
EndChar
StartChar: a_y
Encoding: 42813 42813 346
Width: 600
Flags: W
HStem: -237 74<399.69 447.705> -187 74<297.446 348.765> 188 74<199.383 263> 417 20G<175 295 480 520> 417 20G<175 295 480 520>
VStem: 63 74<95 155> 263 74<120 188 262 342> 463 74<-130 46 80 360>
CounterMasks: 1 07
AnchorPoint: "abvmark" 300 500 basechar 0
LayerCount: 2
Back
SplineSet
300 125 m 9
 175 0 l 1
 100 75 l 1
 100 175 l 1
 175 250 l 1
 175 250 193.964297096 225 250 225 c 3
 300 225 l 1033
520 360 m 25
 480 400 l 1049
250 -200 m 17
 250 -200 287 -150 325 -150 c 8
 349.5 -150 399 -200 425 -200 c 24
 449.5 -200 500 -150 500 -150 c 1
 500 380 l 1025
500 100 m 9
 400 0 l 25
 300 100 l 1
 300 375 l 17
 175 400 l 1
 100 325 l 1
 125 250 l 1033
EndSplineSet
Fore
SplineSet
230 -237 m 1xa7
 213 -220 l 1
 213 -220 219 -212 229 -202 c 2
 286 -145 l 2
 301 -130 323 -113 345 -113 c 0x67
 369 -113 419 -163 445 -163 c 0xa7
 450 -163 457 -160 463 -157 c 1
 463 46 l 1
 380 -37 l 1
 268 76 l 1
 155 -37 l 1
 63 55 l 1
 63 155 l 1
 195 287 l 1
 199 282 l 2
 207 275 226 263 263 262 c 1
 263 342 l 1
 155 363 l 2
 155 363 139 347 137 345 c 2
 162 270 l 1
 105 213 l 1
 88 230 l 1
 63 305 l 1
 195 437 l 1
 320 412 l 1
 337 395 l 1
 337 245 l 1
 337 145 l 1
 337 120 l 1
 420 37 l 1
 463 80 l 1
 463 360 l 1
 443 380 l 1
 500 437 l 1
 520 417 l 1
 537 400 l 1
 557 380 l 1
 537 360 l 1
 537 120 l 1
 537 -130 l 1
 480 -187 l 1x77
 480 -187 430 -237 405 -237 c 0xa7
 379 -237 329 -187 305 -187 c 0x67
 290 -187 275 -195 263 -204 c 2
 230 -237 l 1xa7
263 105 m 1
 263 188 l 1
 230 188 l 2
 184 188 163 205 157 211 c 2
 155 213 l 1
 137 195 l 1
 137 95 l 1
 195 37 l 1
 263 105 l 1
EndSplineSet
LCarets2: 1 300 
Ligature2: "Historic ligatures-1" a y
EndChar
StartChar: kbar
Encoding: 42817 42817 862
Width: 400
Flags: W
HStem: 432 20G<281 316> 448 54<41 73 127 184>
VStem: 73 54<31 205 235 448 502 594> 273 54<31 182 366 394>
AnchorPoint: "abvmark" 200 700 basechar 0
AnchorPoint: "blwmark" 200 0 basechar 0
LayerCount: 2
Back
SplineSet
200 475 m 25
 25 475 l 1049
285 425 m 25
 315 395 l 1049
85 625 m 25
 115 595 l 1049
85 625 m 25
 115 595 l 1049
100 200 m 1
 300 350 l 9
 300 410 l 1049
200 275 m 1
 300 200 l 1
 300 15 l 1025
285 30 m 25
 315 0 l 1049
85 30 m 25
 115 0 l 1049
85 625 m 25
 115 595 l 1049
100 610 m 9
 100 15 l 1049
EndSplineSet
Fore
SplineSet
258 409 m 1x70
 301 452 l 1xb0
 316 437 l 1
 327 426 l 1
 342 411 l 1
 327 396 l 1
 327 366 l 1
 284 323 l 1
 236 287 l 1
 316 227 l 1
 327 216 l 1
 327 31 l 1
 342 16 l 1
 299 -27 l 1
 284 -12 l 1
 273 -1 l 1
 258 14 l 1
 273 29 l 1
 273 182 l 1
 184 248 l 1
 127 205 l 1
 127 31 l 1
 142 16 l 1
 99 -27 l 1
 84 -12 l 1
 73 -1 l 1
 58 14 l 1
 73 29 l 1
 73 184 l 1
 73 448 l 1
 9 448 l 1
 -2 459 l 1
 41 502 l 1
 73 502 l 1
 73 594 l 1
 58 609 l 1
 101 652 l 1
 116 637 l 1
 127 626 l 1
 142 611 l 1
 127 596 l 1
 127 502 l 1
 216 502 l 1
 227 491 l 1
 184 448 l 1
 127 448 l 1
 127 235 l 1
 216 302 l 1
 273 345 l 1
 273 394 l 1
 258 409 l 1x70
EndSplineSet
EndChar
StartChar: kslash
Encoding: 42819 42819 863
Width: 400
Flags: W
HStem: 442 20G<280 320>
VStem: 63 74<40 206 249 585> 263 74<40 121 155 176 370 385>
AnchorPoint: "abvmark" 200 700 basechar 0
AnchorPoint: "blwmark" 200 0 basechar 0
LayerCount: 2
Back
SplineSet
375 250 m 25
 225 100 l 1049
280 425 m 25
 320 385 l 1049
80 625 m 25
 120 585 l 1049
80 625 m 25
 120 585 l 1049
100 200 m 1
 300 350 l 9
 300 405 l 1049
200 275 m 1
 300 200 l 1
 300 20 l 1025
280 40 m 25
 320 0 l 1049
80 40 m 25
 120 0 l 1049
80 625 m 25
 120 585 l 1049
100 605 m 9
 100 20 l 1049
EndSplineSet
Fore
SplineSet
243 405 m 1
 300 462 l 1
 320 442 l 1
 337 425 l 1
 357 405 l 1
 337 385 l 1
 337 370 l 1
 280 313 l 1
 249 290 l 1
 320 237 l 1
 332 224 l 1
 395 287 l 1
 412 270 l 1
 337 195 l 1
 337 40 l 1
 357 20 l 1
 300 -37 l 1
 280 -17 l 1
 263 0 l 1
 243 20 l 1
 263 40 l 1
 263 121 l 1
 205 63 l 1
 188 80 l 1
 263 155 l 1
 263 176 l 1
 180 238 l 1
 137 206 l 1
 137 40 l 1
 157 20 l 1
 100 -37 l 1
 80 -17 l 1
 63 0 l 1
 43 20 l 1
 63 40 l 1
 63 180 l 1
 63 585 l 1
 43 605 l 1
 100 662 l 1
 137 625 l 1
 157 605 l 1
 137 585 l 1
 137 249 l 1
 220 312 l 1
 263 344 l 1
 263 385 l 1
 243 405 l 1
EndSplineSet
EndChar
StartChar: lbroken
Encoding: 42823 42823 574
Width: 350
Flags: W
HStem: 417 20G<250 287> 417 20G<250 287>
VStem: 63 74<304 585> 213 74<40 346>
LayerCount: 2
Back
SplineSet
230 40 m 25
 270 0 l 25
 310 40 l 1049
80 625 m 25
 120 585 l 1049
100 605 m 1
 100 250 l 1
 250 400 l 1
 250 20 l 1025
EndSplineSet
Fore
SplineSet
43 605 m 1xb0
 100 662 l 1
 137 625 l 1
 157 605 l 1
 137 585 l 1
 137 304 l 1
 270 437 l 1
 287 420 l 1
 287 40 l 1
 290 37 l 1
 330 77 l 1
 347 60 l 1
 250 -37 l 1
 230 -17 l 1
 213 0 l 1
 193 20 l 1
 213 40 l 1
 213 346 l 1
 80 213 l 1
 63 230 l 1
 63 585 l 1
 43 605 l 1xb0
EndSplineSet
EndChar
StartChar: lbar
Encoding: 42825 42825 865
Width: 200
Flags: W
HStem: 448 54<41 73 127 159>
VStem: 73 54<31 448 502 594>
AnchorPoint: "abvmark" 100 700 basechar 0
AnchorPoint: "blwmark" 100 0 basechar 0
LayerCount: 2
Back
SplineSet
85 30 m 25
 115 0 l 25
 145 30 l 1049
85 625 m 25
 115 595 l 1049
100 610 m 9
 100 15 l 1049
175 475 m 25
 25 475 l 1049
EndSplineSet
Fore
SplineSet
202 491 m 1
 159 448 l 1
 127 448 l 1
 127 31 l 1
 131 27 l 1
 161 57 l 1
 172 46 l 1
 99 -27 l 1
 84 -12 l 1
 73 -1 l 1
 58 14 l 1
 73 29 l 1
 73 448 l 1
 9 448 l 1
 -2 459 l 1
 41 502 l 1
 73 502 l 1
 73 594 l 1
 58 609 l 1
 101 652 l 1
 116 637 l 1
 127 626 l 1
 142 611 l 1
 127 596 l 1
 127 502 l 1
 191 502 l 1
 202 491 l 1
EndSplineSet
EndChar
StartChar: obiit
Encoding: 42827 42827 866
Width: 400
Flags: W
HStem: 188 74<45 63 137 263 337 355> 417 20G<200 240> 417 20G<200 240>
VStem: 63 74<80 188 262 280> 263 74<120 188 262 320>
LayerCount: 2
Back
SplineSet
25 225 m 25
 375 225 l 1049
200 400 m 25
 100 300 l 25
 100 100 l 25
 200 0 l 25
 300 100 l 25
 300 300 l 25
 200 400 l 25
EndSplineSet
Fore
SplineSet
180 363 m 1x98
 137 320 l 1
 137 262 l 1
 263 262 l 1
 263 280 l 2
 263 325 204 339 180 363 c 1x98
63 280 m 1
 220 437 l 1xd8
 337 320 l 1
 337 262 l 1
 395 262 l 1
 412 245 l 1
 355 188 l 1
 337 188 l 1
 337 120 l 1
 180 -37 l 1
 63 80 l 1
 63 188 l 1
 5 188 l 1
 -12 205 l 1
 45 262 l 1
 63 262 l 1
 63 280 l 1
137 188 m 1
 137 120 l 2
 137 75 196 61 220 37 c 1
 263 80 l 1
 263 188 l 1
 137 188 l 1
EndSplineSet
EndChar
